<svg width="524" height="615" viewBox="0 0 524 615" fill="none" xmlns="http://www.w3.org/2000/svg">
<path opacity="0.1" d="M5.13263 187.341C13.4361 219.706 31.0164 247.683 58.8007 261.243C116.565 289.428 246.759 274.89 343.941 258.207C394.224 249.575 438.389 225.773 470.491 192.231L5.13263 187.341Z" fill="#00C2FF"/>
<path opacity="0.1" d="M514.283 35.3797H461.042C458.508 35.3797 456.436 33.479 456.436 31.1564C456.436 28.8338 458.504 26.933 461.042 26.933H470.254C467.721 26.933 465.648 25.0323 465.648 22.7097C465.648 20.3871 467.716 18.491 470.254 18.491H463.681C461.148 18.491 459.075 16.5902 459.075 14.2676C459.075 11.945 461.143 10.0443 463.681 10.0443H491.47C485.302 7.41107 478.112 5.54279 469.793 4.56461C394.018 -4.36885 366.962 1.53734 357.405 7.61505C345.524 15.2686 332.309 20.5842 318.46 23.2799C271.708 32.1299 184.275 42.7787 105.027 19.8678C65.6406 8.48661 36.3689 27.7489 18.8196 59.8806H523.528C522.869 50.5346 520.898 41.9025 517.277 34.3505C516.423 35.0224 515.368 35.3849 514.283 35.3797Z" fill="#00C2FF"/>
<path opacity="0.1" d="M1.14332 119.761C-0.898931 138.75 -0.2025 157.937 3.21082 176.724L470.53 192.473C483.406 178.876 494.335 163.524 502.997 146.862L1.14332 119.761ZM185.961 160.397H176.752C179.28 160.397 181.356 162.305 181.356 164.637C181.356 166.969 179.284 168.872 176.752 168.872H123.549C121.021 168.872 118.945 166.969 118.945 164.637C118.945 162.305 121.017 160.397 123.549 160.397H132.759C130.231 160.397 128.154 158.489 128.154 156.157C128.154 153.825 130.226 151.917 132.759 151.917H126.179C123.651 151.917 121.574 150.013 121.574 147.682C121.574 145.35 123.646 143.442 126.179 143.442H179.404C181.937 143.442 184.009 145.35 184.009 147.682C184.009 150.013 181.941 151.917 179.404 151.917H185.961C188.494 151.917 190.566 153.825 190.566 156.157C190.566 158.489 188.507 160.397 185.961 160.397Z" fill="#00C2FF"/>
<path opacity="0.1" d="M523.294 59.8806L13.9166 71.2955C7.71031 85.9718 3.60495 102.562 1.71088 119.761H514.366C517.703 109.698 520.18 99.3628 521.767 88.8709C523.294 78.7614 523.905 68.9865 523.294 59.8806ZM105.136 97.2845H95.941C98.4649 97.2845 100.538 99.1893 100.538 101.517C100.538 103.845 98.4695 105.749 95.941 105.749H42.8058C40.2819 105.749 38.2086 103.845 38.2086 101.517C38.2086 99.1893 40.2773 97.2845 42.8058 97.2845H52.0004C49.4765 97.2845 47.4031 95.3844 47.4031 93.0568C47.4031 90.7292 49.4719 88.8244 52.0004 88.8244H45.4309C42.907 88.8244 40.8336 86.9196 40.8336 84.592C40.8336 82.2644 42.9024 80.3596 45.4309 80.3596H98.5707C101.099 80.3596 103.168 82.2644 103.168 84.592C103.168 86.9196 101.104 88.8244 98.5707 88.8244H105.136C107.659 88.8244 109.733 90.7292 109.733 93.0568C109.733 95.3844 107.659 97.2845 105.136 97.2845Z" fill="#00C2FF"/>
<path opacity="0.1" d="M289.948 602.083C325.49 602.083 354.302 595.614 354.302 587.634C354.302 579.655 325.49 573.186 289.948 573.186C254.406 573.186 225.593 579.655 225.593 587.634C225.593 595.614 254.406 602.083 289.948 602.083Z" fill="#054DA1"/>
<path opacity="0.1" d="M150.349 561.193C198.595 561.193 237.706 554.724 237.706 546.744C237.706 538.765 198.595 532.296 150.349 532.296C102.103 532.296 62.9915 538.765 62.9915 546.744C62.9915 554.724 102.103 561.193 150.349 561.193Z" fill="#054DA1"/>
<path d="M215.627 203.021C213.779 190.583 202.479 161.558 202.479 161.558C202.282 160.703 202.06 159.847 201.812 158.992C193.796 131.447 182.701 129.051 182.701 129.051L142.958 120.497C143.291 120.705 143.581 120.975 143.813 121.293C143.603 121.312 143.395 121.343 143.189 121.387C141.369 119.238 140.166 116.637 139.707 113.859C139.63 113.448 139.562 113.003 139.51 112.584C142.365 109.802 144.591 106.441 146.04 102.728C147.489 99.0145 148.128 95.0342 147.912 91.0539C147.697 87.0736 146.632 83.1855 144.791 79.6502C142.949 76.115 140.373 73.0144 137.235 70.5566C136.816 70.2315 136.379 69.915 135.96 69.6156C137.834 67.6224 137.894 64.8508 136.491 62.0792C133.36 55.5779 126.551 51.4632 119.553 49.4529C114.207 47.9217 108.432 47.4255 103.112 49.1022C100.092 50.0603 97.3373 51.6685 94.5058 53.0971C89.2278 55.7318 83.3851 57.8191 79.4416 62.1562C78.5177 63.1656 77.6623 64.4573 77.936 65.7918C78.1413 66.7841 78.9283 67.554 79.433 68.4351C80.5707 70.4112 80.2885 72.9005 79.51 75.0562C78.7316 77.2119 77.5938 79.2136 77.0549 81.4206C76.516 83.6277 76.7213 86.2282 78.3808 87.8107C79.1766 88.4249 80.0047 88.996 80.8616 89.5216C81.7697 90.2956 82.567 91.1908 83.2312 92.182C84.8052 94.2921 86.3735 96.4108 87.9361 98.5379C90.1423 101.357 92.1135 104.353 93.83 107.494C95.002 109.804 95.9087 112.268 97.4742 114.338C97.933 114.942 98.458 115.493 99.0396 115.98L98.5777 115.801C99.2579 116.493 100.072 117.039 100.971 117.405C101.87 117.772 102.834 117.95 103.804 117.931C103.89 117.931 103.967 117.931 104.044 117.931C104.401 117.923 104.743 117.783 105.002 117.537C105.002 117.828 105.002 118.119 105.002 118.393C105.096 121.447 105.079 124.697 104.865 127.751L104.497 127.563C103.952 127.292 103.34 127.181 102.734 127.245C102.128 127.309 101.553 127.544 101.076 127.922L64.4885 157.281C64.4885 157.281 56.5329 168.162 57.645 186.947L51.2292 215.117C51.2292 215.117 43.2138 239.018 49.3815 256.084C55.5492 273.15 59.1249 282.91 59.1249 282.91C59.1249 282.91 61.5886 302.303 65.2926 303.886C68.9967 305.468 70.5963 306.324 70.5963 306.324L71.332 310.96C71.332 310.96 71.5801 311.414 72.0164 312.175C74.711 316.863 84.694 333.407 90.4938 331.636C91.2239 336.129 91.5389 340.679 91.4348 345.229L97.1748 383.767C97.1748 383.767 101.178 394.246 100.93 399.738C100.682 405.229 105.601 413.057 105.601 413.057C102.613 418.527 101.736 424.904 103.137 430.978C105.481 441.243 108.441 488.532 108.441 488.532L112.718 499.995L112.598 513.434C112.247 515.626 111.333 517.689 109.946 519.422C107.175 522.433 107.38 525.915 100.699 530.029C94.0182 534.144 89.7838 535.701 89.7838 541.15C89.7757 541.91 89.707 542.668 89.5785 543.417C88.9626 547.42 87.765 549.593 100.049 550.757C114.48 552.125 124.104 542.715 124.104 542.715C124.104 542.715 126.225 538.866 136.217 537.309C136.217 537.309 139.639 537.129 139.818 534.11C139.887 533.066 139.87 531.073 139.818 528.874C139.656 524.691 139.254 519.807 138.723 519.567C138.056 519.268 136.893 515.059 136.491 513.536H139.271C139.271 513.536 141.837 494.144 139.271 481.586C136.705 469.028 139.023 460.123 139.023 460.123L138.527 426.958C138.527 426.958 135.105 423.296 137.791 416.829C140.477 410.362 137.791 378.42 137.791 378.42C137.791 378.42 138.783 366.957 141.615 364.271C144.446 361.585 141.752 347.479 141.615 346.743L146.662 363.672C146.662 363.672 148.877 397.325 153.574 403.416L154.925 418.66C154.925 418.66 164.54 432.689 162.693 440.243C160.845 447.796 164.669 475.119 164.669 475.119V503.049C164.669 503.049 160.349 514.264 166.38 518.293L168.946 518.19C168.091 518.986 167.432 520.183 166.431 521.218C165.276 522.407 164.617 526.933 164.25 530.825C163.942 534.118 163.839 536.95 163.839 536.95C163.839 536.95 166.405 541.056 171.239 541.338C176.072 541.62 192 553.733 192 553.733C192 553.733 207.732 553.733 211.803 552.878L212.043 552.818C213.35 552.407 214.449 551.51 215.114 550.312C215.93 548.922 216.192 547.276 215.85 545.701C215.345 543.297 213.437 540.662 209.211 538.421C198.698 532.878 197.133 527.685 197.133 527.685L190.229 517.326H191.213C191.213 517.326 190.606 506.351 198.116 494.032L197.629 439.772C197.629 439.772 200.708 421.115 195.413 410.987C195.413 410.987 194.977 400.259 198.518 396.966C202.06 393.673 193.805 360.387 193.805 360.387C193.805 360.387 192.094 342.517 190.084 326.213C198.407 334.108 207.039 305.682 208.493 300.627H208.707L208.613 300.259C208.673 300.019 208.707 299.899 208.707 299.899C208.707 299.899 206.859 293.33 208.211 294.664C209.562 295.999 212.898 291.003 212.898 291.003C212.898 291.003 212.402 263.809 218.202 250.104C224.002 236.4 215.627 203.021 215.627 203.021ZM190.82 220.327L190.862 220.25C191.718 236.854 190.7 272.286 190.7 272.286C190.7 272.286 189.554 276.828 188.33 282.175L187.475 248.513L186.619 216.802L190.82 220.327ZM84.6512 208.881C84.6512 208.881 88.8428 261.311 84.6512 268.873C83.4621 271.028 82.4613 274.861 81.6315 279.232C80.2457 275.596 77.3115 267.059 78.3637 262.534C79.7239 256.683 75.652 241.311 75.652 240.951C75.652 240.592 75.2841 232.397 78.2183 226.135C81.1524 219.873 79.2277 217.161 79.2277 217.161C79.2277 217.161 81.6914 206.896 84.6512 208.881Z" fill="url(#paint0_linear)"/>
<path d="M94.8652 326.965C91.2124 343.022 76.6871 318.745 73.3765 312.919C72.9488 312.158 72.7093 311.713 72.7093 311.713L74.2833 304.33L82.6067 300.909C83.9248 301.597 85.1738 302.411 86.3364 303.338C90.8959 306.922 97.6795 314.527 94.8652 326.965Z" fill="#D38884"/>
<path d="M207.552 300.695C207.552 300.695 207.552 300.815 207.458 301.054C207.458 301.157 207.389 301.294 207.347 301.439C205.918 306.452 197.449 334.673 189.271 326.837C180.323 318.283 184.669 298.505 184.669 298.505H184.729L203.548 296.58L207.278 300.413L207.552 300.695Z" fill="#D38884"/>
<path d="M196.662 439.575L197.141 493.468C189.759 505.701 190.366 516.565 190.366 516.565L166.038 517.523C160.101 513.528 164.327 502.399 164.327 502.399V474.648C164.327 474.648 160.571 447.539 162.385 440.029C164.198 432.518 154.763 418.643 154.763 418.643L153.428 403.51C148.826 397.462 146.645 364.057 146.645 364.057L141.709 347.188C141.846 347.915 144.412 361.996 141.709 364.588C139.006 367.18 137.954 378.625 137.954 378.625C137.954 378.625 140.614 410.345 137.954 416.752C135.293 423.16 138.672 426.804 138.672 426.804L139.16 459.729C139.16 459.729 136.859 468.566 139.399 481.03C141.94 493.494 139.399 512.749 139.399 512.749H113.3L113.42 499.311L109.194 487.933C109.194 487.933 106.285 440.97 103.984 430.799C102.607 424.771 103.464 418.449 106.396 413.005C106.396 413.005 101.563 405.264 101.803 399.815C102.042 394.365 98.073 383.972 98.073 383.972L92.4442 345.725C92.5992 338.365 91.6594 331.022 89.6555 323.937C86.3877 313.039 81.546 298.753 81.546 298.753L87.0122 299.241L114.592 301.696C114.592 301.696 181.649 297.188 184.652 300.935C185.285 302.159 185.713 303.48 185.918 304.844C188.929 318.368 192.907 360.738 192.907 360.738C192.907 360.738 201.016 393.784 197.535 397.052C194.053 400.319 194.481 410.961 194.481 410.961C199.699 421.012 196.662 439.575 196.662 439.575Z" fill="#444053"/>
<path d="M139.972 533.186C139.784 536.188 136.439 536.368 136.439 536.368C126.636 537.908 124.549 541.723 124.549 541.723C124.549 541.723 115.139 551.073 100.947 549.713C88.8856 548.549 90.0575 546.402 90.682 542.424C90.8033 541.683 90.8691 540.934 90.8788 540.183C90.8788 534.734 95.0533 533.186 101.589 529.063C108.124 524.939 107.945 521.526 110.665 518.532C113.385 515.538 113.668 509.73 113.668 509.73C116.747 504.366 124.557 510.585 124.557 510.585C124.925 512.484 136.533 512.219 136.533 512.219C136.533 512.219 138.073 518.395 138.869 518.755C139.391 518.994 139.784 523.836 139.938 527.993C140.024 530.175 140.041 532.151 139.972 533.186Z" fill="#B07473"/>
<path opacity="0.1" d="M139.972 533.186C139.784 536.188 136.439 536.368 136.439 536.368C126.636 537.908 124.549 541.723 124.549 541.723C124.549 541.723 115.139 551.073 100.947 549.713C88.8856 548.55 90.0575 546.402 90.682 542.425C96.0713 543.759 106.371 545.624 112.384 542.356C120.742 537.822 126.739 534.657 126.739 534.657L139.947 528.01C140.024 530.175 140.041 532.151 139.972 533.186Z" fill="black"/>
<path d="M213.857 549.345C213.213 550.533 212.134 551.426 210.845 551.834L210.614 551.894C206.62 552.75 191.179 552.75 191.179 552.75C191.179 552.75 175.567 540.679 170.845 540.406C166.123 540.132 163.582 536.043 163.582 536.043C163.582 536.043 163.677 533.237 163.976 529.969C164.344 526.103 164.985 521.612 166.123 520.431C168.21 518.25 168.689 515.299 173.386 517.163C173.386 517.163 180.092 505.341 187.997 514.477L196.175 526.881C196.175 526.881 197.714 532.014 208.074 537.583C212.214 539.807 214.062 542.424 214.584 544.811C214.913 546.36 214.654 547.977 213.857 549.345Z" fill="#B07473"/>
<path opacity="0.1" d="M213.857 549.345C212.933 550.124 211.915 550.962 210.845 551.834L210.614 551.894C206.62 552.75 191.179 552.75 191.179 552.75C191.179 552.75 175.567 540.68 170.845 540.406C166.123 540.132 163.582 536.043 163.582 536.043C163.582 536.043 163.677 533.237 163.976 529.969C168.784 531.407 176.063 533.947 178.014 536.685C181.008 540.851 190.101 546.668 190.101 546.668C190.101 546.668 207.056 545.034 214.584 544.811C214.913 546.36 214.654 547.977 213.857 549.345Z" fill="black"/>
<path d="M147.877 126.938L125.55 150.54C125.55 150.54 98.4922 148.547 103.214 140.557C105.618 136.485 105.994 127.965 105.781 120.557C105.584 113.414 104.848 107.332 104.848 107.332C104.848 107.332 142.795 88.4436 139.921 106.057C139.302 109.376 139.267 112.778 139.818 116.108C141.435 125.005 147.877 126.938 147.877 126.938Z" fill="#D38884"/>
<path opacity="0.1" d="M139.887 106.057C139.268 109.376 139.233 112.778 139.784 116.108C137.189 118.739 134.096 120.826 130.686 122.249C127.275 123.672 123.616 124.403 119.921 124.398C114.788 124.398 109.236 120.18 105.088 117.742C104.891 110.591 104.848 107.332 104.848 107.332C104.848 107.332 142.795 88.4436 139.887 106.057Z" fill="black"/>
<path d="M147.877 94.9792C147.879 101.315 145.729 107.464 141.78 112.419C137.831 117.373 132.317 120.84 126.14 122.251C119.963 123.662 113.49 122.934 107.782 120.185C102.073 117.437 97.4668 112.831 94.7176 107.123C91.9685 101.414 91.2393 94.9417 92.6496 88.7648C94.0599 82.5878 97.526 77.0729 102.48 73.1232C107.434 69.1736 113.583 67.0234 119.919 67.0249C126.255 67.0264 132.402 69.1794 137.355 73.1314C140.636 75.7498 143.286 79.0733 145.107 82.8555C146.929 86.6376 147.875 90.7813 147.877 94.9792Z" fill="#D38884"/>
<path opacity="0.1" d="M185.918 304.844C178.955 321.414 134.164 321.756 134.164 321.756V303.689L131.452 303.509C132.624 308.685 129.81 321.302 129.81 321.302C94.4117 326.298 85.7803 306.127 85.7803 306.127L87.0122 299.224L114.591 301.679C114.591 301.679 181.649 297.171 184.652 300.917C185.287 302.148 185.715 303.474 185.918 304.844Z" fill="black"/>
<path d="M134.164 319.574V301.508L131.452 301.336C132.624 306.469 129.81 319.13 129.81 319.13C103.171 322.885 91.6914 312.397 87.6452 306.974C86.9177 306.04 86.2925 305.03 85.7803 303.963L96.5931 243.141L99.1594 153.628L103.035 137.922L103.933 130.386V130.3H104.027L106.781 131.481L123.266 138.606L141.991 124.466L142.265 124.269L143.197 123.559L144.746 124.8L148.595 127.888L160.939 207.606C160.939 207.606 182.325 268.984 186.328 293.757C186.491 294.75 186.619 295.673 186.722 296.537C189.365 319.155 134.164 319.574 134.164 319.574Z" fill="#054DA1"/>
<path d="M125.267 141.96C126.146 141.96 126.858 141.247 126.858 140.369C126.858 139.49 126.146 138.778 125.267 138.778C124.389 138.778 123.676 139.49 123.676 140.369C123.676 141.247 124.389 141.96 125.267 141.96Z" fill="#67647E"/>
<path d="M126.003 156.485C126.882 156.485 127.594 155.773 127.594 154.894C127.594 154.015 126.882 153.303 126.003 153.303C125.124 153.303 124.412 154.015 124.412 154.894C124.412 155.773 125.124 156.485 126.003 156.485Z" fill="#67647E"/>
<path d="M127.594 180.001C128.473 180.001 129.185 179.289 129.185 178.41C129.185 177.531 128.473 176.819 127.594 176.819C126.715 176.819 126.003 177.531 126.003 178.41C126.003 179.289 126.715 180.001 127.594 180.001Z" fill="#67647E"/>
<path d="M130.22 205.331C131.099 205.331 131.812 204.618 131.812 203.74C131.812 202.861 131.099 202.148 130.22 202.148C129.342 202.148 128.629 202.861 128.629 203.74C128.629 204.618 129.342 205.331 130.22 205.331Z" fill="#67647E"/>
<path d="M131.811 229.112C132.69 229.112 133.403 228.4 133.403 227.521C133.403 226.642 132.69 225.93 131.811 225.93C130.933 225.93 130.22 226.642 130.22 227.521C130.22 228.4 130.933 229.112 131.811 229.112Z" fill="#67647E"/>
<path d="M133.403 254.442C134.281 254.442 134.994 253.729 134.994 252.85C134.994 251.972 134.281 251.259 133.403 251.259C132.524 251.259 131.811 251.972 131.811 252.85C131.811 253.729 132.524 254.442 133.403 254.442Z" fill="#67647E"/>
<path d="M132.77 279.497C133.648 279.497 134.361 278.785 134.361 277.906C134.361 277.027 133.648 276.315 132.77 276.315C131.891 276.315 131.178 277.027 131.178 277.906C131.178 278.785 131.891 279.497 132.77 279.497Z" fill="#67647E"/>
<path opacity="0.1" d="M104.994 251.986C104.994 251.986 103.214 275.28 99.9464 282.055C96.6787 288.83 95.2244 307.838 95.2244 307.838L87.6367 306.982C86.9091 306.048 86.284 305.039 85.7718 303.971L96.5845 243.15L99.1509 153.637L103.035 137.922L103.933 130.386L104.035 130.343C104.459 130.143 104.923 130.043 105.392 130.05C105.861 130.057 106.321 130.172 106.739 130.386L107.098 130.574C106.99 130.882 106.887 131.198 106.79 131.524C103.83 140.788 102.727 157.862 102.727 157.862C102.727 157.862 107.004 189.094 107.449 203.62C107.893 218.145 104.994 251.986 104.994 251.986Z" fill="black"/>
<path opacity="0.1" d="M86.3364 303.364C86.2532 303.559 86.156 303.747 86.0456 303.928C83.1029 308.898 75.6434 312.055 73.3765 312.919C72.9488 312.158 72.7093 311.713 72.7093 311.713L74.2833 304.33L82.6067 300.909C83.9258 301.606 85.1748 302.428 86.3364 303.364Z" fill="black"/>
<path d="M66.1737 184.492L59.2703 188.607L52.9828 216.571C52.9828 216.571 45.1128 240.292 51.1607 257.239C57.2087 274.185 60.7246 283.886 60.7246 283.886C60.7246 283.886 63.1454 303.133 66.781 304.707C70.4167 306.281 71.9821 307.128 71.9821 307.128L72.7092 311.73C72.7092 311.73 82.5639 308.385 86.0455 302.491C89.5272 296.597 83.4792 281.961 83.4792 281.961C83.4792 281.961 78.2781 269.488 79.6126 263.68C80.9471 257.872 76.9437 242.619 76.9437 242.294C76.9437 241.969 76.5844 233.817 79.51 227.581C82.4356 221.344 80.4852 218.684 80.4852 218.684L78.6631 200.891L66.1737 184.492Z" fill="#67647E"/>
<path opacity="0.1" d="M186.491 299.609C186.491 299.609 168.21 306.503 162.402 300.464C156.594 294.425 157.192 266.084 157.192 266.084C157.192 266.084 151.632 213.791 148.116 205.202C144.6 196.614 146.405 134.629 146.405 134.629C146.405 134.629 144.044 126.613 141.983 124.517C141.852 124.383 141.706 124.265 141.546 124.167L142.256 124.321L144.737 124.851L148.587 127.939L160.931 207.657C160.931 207.657 182.317 269.035 186.32 293.809L186.491 299.609Z" fill="black"/>
<path opacity="0.1" d="M207.552 301.422H207.347C205.046 301.721 184.737 304.176 184.652 299.951C184.649 299.462 184.674 298.973 184.729 298.488L203.549 296.563L207.278 300.395C207.347 300.643 207.398 300.857 207.449 301.028L207.552 301.422Z" fill="black"/>
<path d="M188.065 156.485L201.41 163.448C201.41 163.448 212.531 192.242 214.31 204.586C214.31 204.586 222.548 237.658 216.876 251.259C211.205 264.86 211.675 291.858 211.675 291.858C211.675 291.858 208.407 296.82 207.073 295.494C205.738 294.168 207.561 300.695 207.561 300.695C207.561 300.695 184.746 303.723 184.652 299.241C184.558 294.758 189.887 273.338 189.887 273.338C189.887 273.338 191.341 222.379 189.28 214.39C187.218 206.4 188.065 156.485 188.065 156.485Z" fill="#67647E"/>
<path opacity="0.1" d="M148.244 210.763C148.244 210.763 140.734 229.155 138.313 230.369C135.892 231.584 138.8 236.417 138.8 236.417C138.8 236.417 152.479 217.298 148.244 210.763Z" fill="black"/>
<path opacity="0.1" d="M143.762 146.246C143.847 145.895 134.806 155.117 132.385 156.511C129.964 157.905 141.221 156.426 143.762 146.246Z" fill="black"/>
<path opacity="0.1" d="M118.586 209.308C118.586 209.308 104.788 218.231 106.61 221.764C108.432 225.296 118.586 209.308 118.586 209.308Z" fill="black"/>
<path opacity="0.1" d="M143.642 339.549C143.642 339.549 155.387 347.102 173.659 348.959L143.642 339.549Z" fill="black"/>
<path opacity="0.1" d="M115.438 357.71C115.438 357.71 126.328 371.397 131.298 371.747C136.268 372.098 115.438 357.71 115.438 357.71Z" fill="black"/>
<path opacity="0.1" d="M130.691 411.346C130.203 411.585 124.515 423.69 118.715 424.057C112.915 424.425 130.691 411.346 130.691 411.346Z" fill="black"/>
<path opacity="0.1" d="M181.162 437.864C181.162 437.864 191.957 435.443 194.361 443.185C194.361 443.159 193.634 440.739 181.162 437.864Z" fill="black"/>
<path opacity="0.1" d="M173.899 482.142C173.899 482.142 186.979 479.473 189.759 483.109C192.539 486.744 173.899 482.142 173.899 482.142Z" fill="black"/>
<path opacity="0.1" d="M136.901 488.335C136.901 488.455 123.591 491.004 124.07 492.698C124.549 494.392 138.27 494.152 138.758 491.483C138.845 491.155 138.866 490.812 138.82 490.475C138.773 490.138 138.661 489.814 138.488 489.521C138.315 489.228 138.086 488.972 137.814 488.769C137.541 488.565 137.231 488.418 136.901 488.335Z" fill="black"/>
<path opacity="0.1" d="M169.545 499.815C169.545 499.815 191.418 497.146 190.075 501.749C188.732 506.351 169.545 499.815 169.545 499.815Z" fill="black"/>
<path opacity="0.1" d="M55.0359 230.369C55.1556 230.729 69.4414 232.671 71.3747 237.273C71.3747 237.273 57.337 230.729 55.1214 230.729" fill="black"/>
<path opacity="0.1" d="M75.1302 267.769C75.1302 267.769 63.2652 271.524 64.1121 277.179C64.959 282.833 62.906 274.561 75.1302 267.769Z" fill="black"/>
<path opacity="0.1" d="M69.6041 296.58C69.6041 296.58 73.924 290.652 78.0387 291.738C82.1533 292.825 69.6041 296.58 69.6041 296.58Z" fill="black"/>
<path opacity="0.1" d="M137.355 73.1313C136.939 73.5344 136.473 73.8823 135.969 74.1663C132.547 76.1595 131.606 79.2305 129.981 82.772C128.467 86.0141 126.799 89.4445 123.745 91.2837C119.801 93.6618 114.609 92.7892 110.511 94.8594C108.692 95.8063 107.198 97.2764 106.223 99.0801C105.247 100.884 104.834 102.938 105.036 104.979C105.297 106.554 105.686 108.105 106.2 109.616C107.132 112.888 107.553 116.284 107.449 119.684C107.457 119.784 107.457 119.884 107.449 119.984C103.943 118.232 100.844 115.763 98.3546 112.736C95.8648 109.71 94.0391 106.194 92.996 102.416C91.9529 98.6386 91.7157 94.6839 92.2998 90.8086C92.884 86.9334 94.2764 83.2243 96.3867 79.922C98.497 76.6196 101.278 73.7979 104.549 71.6399C107.821 69.4819 111.509 68.0358 115.376 67.3955C119.242 66.7551 123.2 66.9349 126.992 67.923C130.784 68.9111 134.327 70.6856 137.389 73.1313H137.355Z" fill="black"/>
<path d="M136.628 64.7138C133.557 58.2638 126.876 54.1749 120.006 52.1817C114.763 50.6676 109.065 50.1714 103.864 51.8395C100.896 52.7805 98.2013 54.4058 95.4211 55.8002C90.2372 58.4178 84.54 60.488 80.6392 64.7908C79.7238 65.7917 78.9283 67.0749 79.1592 68.4008C79.356 69.3845 80.1259 70.1117 80.622 71.0184C81.7427 72.9859 81.4775 75.4582 80.699 77.5967C79.9206 79.7353 78.8171 81.72 78.2867 83.9184C77.7563 86.1169 77.9616 88.6918 79.587 90.2572C80.3141 90.9501 81.2465 91.3864 82.0335 91.9681C82.9229 92.7364 83.7029 93.6229 84.3518 94.6028L88.9711 100.916C91.1411 103.714 93.0753 106.687 94.7539 109.804C95.9002 112.097 96.7898 114.543 98.3296 116.588C99.8694 118.632 102.265 120.275 104.814 120.052C105.011 120.057 105.207 120.016 105.385 119.931C105.564 119.846 105.72 119.721 105.84 119.565C105.935 119.364 105.979 119.144 105.969 118.923C106.081 115.535 105.669 112.15 104.745 108.889C104.23 107.378 103.841 105.827 103.582 104.252C103.385 102.212 103.801 100.16 104.776 98.3573C105.751 96.5548 107.242 95.0838 109.057 94.1324C113.163 92.0622 118.355 92.9347 122.29 90.5652C125.353 88.7174 127.021 85.2871 128.527 82.0108C130.178 78.4693 131.093 75.3983 134.515 73.4051C137.936 71.4119 138.33 68.1099 136.628 64.7138Z" fill="#585268"/>
<path opacity="0.1" d="M124.104 521.749C124.104 521.749 128.381 527.198 127.269 530.303C126.157 533.408 124.104 521.749 124.104 521.749Z" fill="black"/>
<path opacity="0.1" d="M181.974 535.384C181.974 535.384 182.924 528.079 186.731 528.01C190.537 527.942 190.725 527.617 193.634 528.738C196.542 529.858 199.271 531.595 198.399 531.851C197.526 532.108 193.394 527.677 189.151 529.944C186.504 531.393 184.085 533.226 181.974 535.384Z" fill="black"/>
<path opacity="0.1" d="M111.341 147.768L123.317 139.376C123.317 139.376 105.798 129.026 103.71 130.48C101.623 131.934 100.186 145.022 100.186 145.022L111.341 147.768Z" fill="black"/>
<path d="M111.289 147.229L123.266 138.675C123.266 138.675 105.746 128.324 103.659 129.778C101.572 131.233 100.135 145.039 100.135 145.039L111.289 147.229Z" fill="#E1E7EF"/>
<path d="M111.289 147.229L123.266 138.675C123.266 138.675 105.746 128.324 103.659 129.778C101.572 131.233 100.135 145.039 100.135 145.039L111.289 147.229Z" fill="#054DA1"/>
<path d="M105.644 129.847L105.284 129.667C104.75 129.395 104.148 129.283 103.552 129.345C102.955 129.407 102.389 129.641 101.923 130.018L65.9941 159.163C65.9941 159.163 58.184 169.967 59.2704 188.607L80.4595 218.624C80.4595 218.624 82.8804 208.462 85.7804 210.395C85.7804 210.395 89.895 262.448 85.7804 269.951C81.6657 277.453 79.8522 305.537 79.8522 305.537L93.7702 307.111C93.7702 307.111 95.2244 288.103 98.4922 281.328C101.76 274.553 103.539 251.259 103.539 251.259C103.539 251.259 106.482 217.418 105.994 202.893C105.507 188.367 101.272 157.135 101.272 157.135C101.272 157.135 102.461 138.829 105.644 129.847Z" fill="#67647E"/>
<path opacity="0.1" d="M141.435 142.465L126.508 136.938C126.508 136.938 145.516 116.117 147.894 127.666L141.435 142.465Z" fill="black"/>
<path d="M141.435 141.738L126.508 136.211C126.508 136.211 145.516 115.39 147.894 126.938L141.435 141.738Z" fill="#E1E7EF"/>
<path d="M141.435 141.738L126.508 136.211C126.508 136.211 145.516 115.39 147.894 126.938L141.435 141.738Z" fill="#054DA1"/>
<path opacity="0.1" d="M140.948 124.021C141.163 123.987 141.383 124.036 141.563 124.158L140.948 124.021Z" fill="black"/>
<path d="M142.385 122.576L181.991 131.13C181.991 131.13 192.89 133.551 200.76 160.908C208.63 188.265 189.981 221.781 189.981 221.781L185.867 218.282L187.928 298.172C187.928 298.172 169.648 305.066 163.839 299.027C158.031 292.988 158.638 264.621 158.638 264.621C158.638 264.621 153.069 212.337 149.553 203.74C146.037 195.143 147.842 133.175 147.842 133.175C147.842 133.175 144.609 122.097 142.385 122.576Z" fill="#67647E"/>
<path opacity="0.1" d="M178.621 173.483C178.065 173.996 177.415 198.171 179.836 216.571C181.316 227.777 183.603 238.861 186.679 249.737L183.086 176.023C183.086 176.023 180.315 171.909 178.621 173.483Z" fill="black"/>
<path opacity="0.1" d="M173.779 152.661C174.746 153.269 178.989 163.312 177.047 167.426C175.105 171.541 173.779 152.661 173.779 152.661Z" fill="black"/>
<path opacity="0.1" d="M136.397 64.7139C134.452 60.8851 131.424 57.7135 127.688 55.595C130.466 57.5837 132.708 60.2286 134.215 63.2939C135.926 66.7157 135.421 70.1374 132.094 72.0108C128.766 73.8842 127.731 77.075 126.106 80.6165C124.592 83.8586 122.923 87.2889 119.861 89.1709C115.926 91.549 110.734 90.6679 106.627 92.7381C104.813 93.6928 103.324 95.1656 102.349 96.9692C101.374 98.7728 100.957 100.826 101.153 102.866C101.416 104.439 101.808 105.986 102.325 107.494C103.256 110.766 103.677 114.162 103.573 117.563C103.581 117.785 103.534 118.005 103.437 118.204C103.319 118.362 103.164 118.488 102.987 118.573C102.81 118.658 102.615 118.699 102.419 118.692C101.392 118.771 100.363 118.579 99.4332 118.136C100.106 118.804 100.909 119.326 101.792 119.672C102.674 120.018 103.618 120.179 104.566 120.146C104.72 120.169 104.877 120.155 105.025 120.107C105.174 120.058 105.308 119.976 105.419 119.867C105.531 119.757 105.615 119.624 105.665 119.476C105.716 119.329 105.732 119.172 105.712 119.017C105.823 115.617 105.404 112.22 104.472 108.949C103.95 107.439 103.558 105.888 103.3 104.312C103.103 102.272 103.519 100.22 104.494 98.4173C105.469 96.6147 106.959 95.1438 108.775 94.1923C112.881 92.1222 118.073 92.9947 122.008 90.6251C125.071 88.7774 126.739 85.3471 128.244 82.0708C129.895 78.5293 130.811 75.4582 134.232 73.4651C137.654 71.4719 138.108 68.11 136.397 64.7139Z" fill="black"/>
<path d="M380.085 172.14C368.297 171.909 357.895 163.585 352.001 153.414C350.455 150.994 349.484 148.252 349.161 145.399C349.202 144.75 349.311 144.108 349.486 143.482C349.846 142.528 350.132 141.547 350.342 140.548C350.388 140.15 350.388 139.749 350.342 139.351C350.342 139.351 350.342 139.351 350.342 139.282C350.624 137.118 349.349 135.005 347.775 133.525C346.201 132.045 344.225 130.959 342.583 129.488C337.519 125.039 335.979 117.905 335.885 111.113V110.753C335.945 107.845 336.176 104.928 336.15 102.019C336.19 100.368 336.118 98.7164 335.936 97.075C335.448 92.9603 333.883 88.7687 330.649 86.1425C322.215 79.299 308.032 86.4248 299.298 79.9577C297.176 78.3751 295.457 76.0398 292.882 75.4238C290.94 74.9533 288.921 75.5864 287.022 76.2194C280.589 78.3409 273.412 81.1296 270.897 87.3401C269.46 90.9073 269.862 94.9791 268.545 98.5891C267.689 101.01 266.055 103.089 264.866 105.381C263.89 107.107 263.416 109.072 263.498 111.053C263.392 112.078 263.536 113.114 263.917 114.073C264.364 115.227 265.083 116.257 266.013 117.075C265.677 117.789 265.258 118.461 264.764 119.077C263.121 121.087 260.598 122.499 258.887 124.5C255.722 128.17 255.841 133.157 257.398 137.469C258.955 141.78 261.77 145.707 263.711 149.907C264.567 151.729 265.217 153.765 264.353 155.578C263.746 156.836 262.488 157.794 261.513 158.88C260.086 160.48 259.19 162.482 258.947 164.612C239.691 169.009 239.674 184.484 239.674 184.484L229.272 210.643C229.272 210.643 227.603 215.048 225.644 220.865L213.335 218.658L221.889 232.978C220.272 238.812 219.126 244.219 219.502 246.939C219.502 246.939 215.679 264.903 222.479 268.043L237.484 274.792C238.134 275.191 238.832 275.504 239.562 275.725L240.17 275.998C240.388 276.104 240.628 276.159 240.871 276.159C241.114 276.159 241.354 276.104 241.573 275.998H241.615H241.778C242.069 276.018 242.361 275.974 242.633 275.87C242.968 275.69 243.232 275.404 243.386 275.057C243.381 275.029 243.381 275 243.386 274.972L247.877 273.672L251.684 278.18C253.395 279.386 255.106 280.43 256.722 281.37L250.829 339.9C250.829 339.9 249.879 417.744 247.005 435.486C245.944 442.056 245.935 446.538 246.338 449.584L246.226 449.772C246.936 454.776 248.793 455.76 248.793 455.76V455.692C248.827 455.719 248.864 455.742 248.904 455.76C249.77 453.487 250.799 451.28 251.983 449.156C251.983 449.575 251.983 450.012 251.983 450.439C251.924 457.043 251.718 466.29 251.034 472.304C249.87 482.569 254.011 516.402 254.011 516.402L255.439 547.198C255.672 552.427 254.458 557.618 251.932 562.202C248.51 568.353 244.139 577.01 243.823 580.851C243.806 581.059 243.806 581.267 243.823 581.475L236.483 590.303C236.483 590.303 233.617 594.734 240.093 596.522C243.574 597.489 249.58 596.522 254.404 595.385C256.51 594.899 258.39 593.715 259.737 592.025C261.083 590.335 261.818 588.239 261.821 586.077C263.04 581.836 265.1 577.882 267.877 574.452L269.084 581.544L277.159 583.545L278.194 564.11C278.611 563.019 278.8 561.855 278.75 560.688C280.341 546.864 275.003 548.105 275.003 548.105C275.146 548.226 275.238 548.397 275.26 548.584L275.003 548.113C271.727 541.646 273.292 531.004 273.292 531.004C273.292 531.004 277.57 500.209 279.032 492.073C280.085 486.325 279.648 467.505 279.298 457C279.298 456.564 279.298 456.145 279.255 455.726C291.778 455.563 307.125 455.144 317.895 454.1V455.367L315.91 528.122C315.774 532.76 314.83 537.34 313.122 541.655C313.122 541.74 313.062 541.817 313.027 541.903C310.666 547.996 309.334 554.44 309.084 560.97L308.16 584.067V584.709C306.552 585.325 304.011 587.113 303.943 592.297C303.831 599.893 317.219 597.361 317.219 597.361C330.598 597.361 330.709 583.434 330.709 583.434C330.709 583.434 331.129 570.662 331.77 562.117C332.412 553.571 329.751 555.453 329.751 555.453L329.546 579.764C329.546 579.824 329.546 579.884 329.546 579.952V558.644L329.751 555.555V555.47V554.811L331.436 529.738C331.436 529.738 343.763 487.959 345.671 479.943C347.031 474.246 346.466 457.086 346.022 447.599C346.022 447.163 346.022 446.744 345.953 446.342C349.777 445.999 353.156 445.965 354.508 445.965H355.132C355.132 445.965 354.499 378.865 352.899 353.578C351.3 328.291 348.759 305.152 342.386 298.188C338.537 293.98 333.173 280.986 329.554 271.362C337.161 274.651 345.057 277.228 353.139 279.061C373.319 283.287 370.556 265.767 370.556 265.767L368.511 232.636H368.648C368.573 223.958 367.83 215.298 366.424 206.734C365.355 200.164 363.721 193.372 361.223 187.914C363.413 187.058 365.577 186.143 367.698 185.202C373.182 182.781 379.358 179.351 380.145 173.44H379.88C379.986 173.013 380.054 172.578 380.085 172.14ZM254.995 220.044C255.037 223.466 254.909 229.403 254.704 235.964L248.296 227.409L254.721 216.99L254.995 220.044ZM343.515 250.361L332.839 246.939C334.732 243.986 336.944 241.249 339.435 238.778L340.359 237.923L340.025 237.991L340.538 237.521L340.846 237.452L340.359 237.923L340.94 237.803C341.583 240.485 342.826 242.986 344.576 245.117C348.408 249.3 343.524 250.361 343.524 250.361H343.515Z" fill="url(#paint1_linear)"/>
<path d="M278.665 558.31L277.416 581.989L269.451 579.995L267.775 570.149L278.665 558.31Z" fill="#A27772"/>
<path opacity="0.1" d="M278.665 558.31L277.416 581.989L269.451 579.995L267.775 570.149L278.665 558.31Z" fill="black"/>
<path d="M307.895 585.128L320.042 587.643L329.05 579.687V557.266L329.255 554.204V554.11V553.46L330.932 528.541C330.932 528.541 343.088 487.061 344.978 479.096C346.313 473.451 345.756 456.41 345.312 446.992C345.132 443.134 344.978 440.55 344.978 440.55L318.16 434.058L317.595 454.674L315.637 526.907C315.501 531.511 314.572 536.058 312.891 540.346L312.796 540.594C310.464 546.644 309.149 553.037 308.904 559.516L307.997 582.485V583.118L307.895 585.128Z" fill="#CC818C"/>
<path opacity="0.1" d="M307.895 585.128L320.042 587.643L329.05 579.687V577.78C329.02 578.202 328.887 578.61 328.662 578.969C328.436 579.327 328.126 579.624 327.758 579.833L327.63 579.91C323.446 582.122 318.705 583.058 313.994 582.604L309.255 582.202C308.823 582.243 308.399 582.347 307.997 582.51V583.143L307.895 585.128Z" fill="black"/>
<path d="M327.63 580.534L327.758 580.466C328.153 580.244 328.483 579.921 328.712 579.53C328.942 579.14 329.065 578.695 329.067 578.242L329.264 554.11C329.264 554.11 331.881 552.236 331.248 560.722C330.615 569.208 330.205 581.886 330.205 581.886C330.205 581.886 330.102 595.71 316.903 595.71C316.903 595.71 303.703 598.225 303.806 590.68C303.909 583.135 309.255 582.827 309.255 582.827L313.994 583.237C318.706 583.692 323.448 582.752 327.63 580.534Z" fill="#B07473"/>
<path d="M244.627 579.995C244.935 585.445 260.965 582.297 260.965 582.297L271.753 561.355C271.753 561.355 280.76 554.435 276.252 548.361C276.011 548.031 275.791 547.685 275.593 547.326C275.593 547.326 275.593 547.326 275.551 547.275C275.457 547.121 275.371 546.958 275.285 546.787C272.052 540.372 273.643 529.85 273.643 529.85C273.643 529.85 277.826 499.259 279.297 491.192C280.333 485.495 279.905 466.804 279.563 456.35C279.426 452.005 279.297 449.088 279.297 449.088L252.685 441.962C252.685 441.962 252.685 445.281 252.685 449.9C252.625 456.462 252.42 465.64 251.744 471.611C250.598 481.765 254.678 515.393 254.678 515.393L256.089 545.992C256.334 551.176 255.15 556.327 252.668 560.885C249.331 566.993 244.969 575.598 244.669 579.405C244.64 579.6 244.625 579.798 244.627 579.995Z" fill="#CC818C"/>
<path opacity="0.1" d="M244.627 579.995C244.935 585.444 260.966 582.296 260.966 582.296L271.753 561.355C271.753 561.355 280.76 554.435 276.252 548.361C276.011 548.03 275.791 547.685 275.593 547.326C275.448 550.5 271.966 558.447 271.966 558.447C271.966 558.447 263.061 576.266 260.23 580.346C257.398 584.426 245.097 579.585 244.635 579.414C244.617 579.607 244.614 579.802 244.627 579.995Z" fill="black"/>
<path d="M275.285 546.762C275.285 546.762 280.555 545.538 278.981 559.26C279.041 560.818 278.687 562.365 277.955 563.743C277.223 565.121 276.14 566.281 274.815 567.104C271.043 569.474 265.226 574.572 262.283 584.486C262.285 586.626 261.564 588.703 260.236 590.381C258.908 592.058 257.052 593.237 254.969 593.725C250.213 594.837 244.284 595.812 240.854 594.854C234.464 593.075 237.296 588.678 237.296 588.678L244.627 579.978C244.627 579.978 257.407 585.008 260.23 580.919C263.053 576.83 271.966 559.029 271.966 559.029C271.966 559.029 276.851 547.916 275.285 546.762Z" fill="#B07473"/>
<path opacity="0.1" d="M318.16 436.598L317.595 457.214C324.738 456.521 329.854 455.555 330.726 454.195C332.617 451.269 339.478 450.037 345.312 449.532C345.132 445.674 344.978 443.091 344.978 443.091L318.16 436.598Z" fill="black"/>
<path opacity="0.1" d="M252.685 452.407C253.368 451.01 254.374 449.796 255.619 448.865C258.442 447.3 258.134 458.925 258.134 458.925C258.134 458.925 267.544 459.011 279.563 458.857C279.426 454.511 279.298 451.586 279.298 451.586L252.685 444.469C252.685 444.469 252.736 447.771 252.685 452.407Z" fill="black"/>
<path d="M249.648 455.161C249.648 455.161 252.796 446.607 255.636 445.084C258.476 443.561 258.151 455.136 258.151 455.136C258.151 455.136 327.288 455.769 330.744 450.422C334.2 445.076 354.311 445.392 354.311 445.392C354.311 445.392 353.686 378.771 352.112 353.638C350.538 328.505 348.032 305.554 341.744 298.642C337.681 294.168 331.898 279.694 328.323 270.044C326.381 264.775 325.089 260.934 325.089 260.934L259.101 264.698L258.562 270.044L251.556 340.122C251.556 340.122 250.615 417.428 247.783 435.024C244.952 452.621 249.648 455.161 249.648 455.161Z" fill="#444053"/>
<g opacity="0.1">
<path opacity="0.1" d="M325.371 450.422C328.793 445.084 348.939 445.392 348.939 445.392C348.939 445.392 348.314 378.771 346.74 353.638C345.166 328.505 342.66 305.554 336.372 298.642C332.292 294.151 326.526 279.694 322.951 270.045C321.317 265.614 320.145 262.2 319.82 261.225L324.952 260.934C324.952 260.934 326.244 264.775 328.194 270.045C331.77 279.694 337.544 294.168 341.608 298.642C347.895 305.554 350.41 328.497 351.976 353.638C353.541 378.779 354.183 445.392 354.183 445.392C354.183 445.392 334.071 445.084 330.607 450.422C327.655 454.982 276.782 455.196 262.018 455.153C280.966 455.11 322.702 454.546 325.371 450.422Z" fill="black"/>
<path opacity="0.1" d="M250.264 445.084C251.539 444.374 252.172 446.342 252.488 448.729C251.346 450.799 250.354 452.949 249.52 455.162C249.52 455.162 247.698 454.178 246.953 449.173C247.997 447.386 249.152 445.7 250.264 445.084Z" fill="black"/>
</g>
<path d="M270.042 99.7441C265.474 105.972 270.093 114.825 265.191 120.882C263.575 122.884 261.085 124.304 259.4 126.271C256.278 129.915 256.397 134.868 257.929 139.146C259.46 143.423 262.206 147.324 264.156 151.498C265.012 153.303 265.645 155.33 264.789 157.127C264.191 158.376 262.95 159.325 261.983 160.403C258.835 163.919 258.75 168.804 260.444 172.944C262.137 177.084 265.371 180.643 268.562 184.15C269.819 185.527 271.41 187.05 273.506 187.007C274.608 186.924 275.674 186.574 276.611 185.989C283.869 182.282 289.417 175.919 292.1 168.224C294.784 160.529 294.396 152.096 291.017 144.68C288.365 138.324 283.943 132.234 283.9 125.518C283.9 120.189 286.637 115.099 287.125 109.795C287.715 103.345 283.9 93.1059 276.115 90.2915C276.629 94.4318 272.36 96.5448 270.042 99.7441Z" fill="#585268"/>
<path opacity="0.1" d="M270.042 99.7441C265.474 105.972 270.093 114.825 265.191 120.882C263.575 122.884 261.085 124.304 259.4 126.271C256.278 129.915 256.397 134.868 257.929 139.146C259.46 143.423 262.206 147.324 264.156 151.498C265.012 153.303 265.645 155.33 264.789 157.127C264.191 158.376 262.95 159.325 261.983 160.403C258.835 163.919 258.75 168.804 260.444 172.944C262.137 177.084 265.371 180.643 268.562 184.15C269.819 185.527 271.41 187.05 273.506 187.007C274.608 186.924 275.674 186.574 276.611 185.989C283.869 182.282 289.417 175.919 292.1 168.224C294.784 160.529 294.396 152.096 291.017 144.68C288.365 138.324 283.943 132.234 283.9 125.518C283.9 120.189 286.637 115.099 287.125 109.795C287.715 103.345 283.9 93.1059 276.115 90.2915C276.629 94.4318 272.36 96.5448 270.042 99.7441Z" fill="black"/>
<path opacity="0.1" d="M320.701 326.272C311.556 326.752 302.95 330.687 294.944 335.135C286.937 339.583 279.186 344.622 270.572 347.778" fill="black"/>
<path opacity="0.1" d="M315.021 347.821C305.975 348.684 297.545 352.785 291.282 359.369C289.058 361.722 287.142 364.357 284.824 366.615C281.275 370.078 276.89 372.563 272.095 373.826" fill="black"/>
<path opacity="0.1" d="M316.894 364.22C309.599 366.244 302.996 370.226 297.801 375.734C296.398 377.248 295.123 378.865 293.72 380.379C286.15 388.506 275.457 392.817 265.131 396.897" fill="black"/>
<path d="M316.116 136.802C316.317 144.109 316.946 151.398 317.998 158.632C318.853 163.765 320.051 168.384 321.77 170.429C326.8 176.417 297.262 184.415 297.262 184.415L279.819 170.899C279.819 170.899 293.643 158.17 287.202 145.758C280.76 133.346 316.116 136.802 316.116 136.802Z" fill="#CC818C"/>
<path opacity="0.1" d="M258.545 270.044H328.306C326.364 264.775 325.072 260.934 325.072 260.934L259.084 264.698L258.545 270.044Z" fill="black"/>
<path d="M254.054 268.787H328.639C326.543 261.285 328.639 254.347 331.625 249.01C333.717 245.269 336.349 241.856 339.435 238.881L339.948 238.411L365.988 232.645L367.391 232.337C367.391 232.337 367.604 184.989 350.838 178.487C334.071 171.986 324.02 163.201 324.02 163.201L300.983 170.318L284.011 161.763C278.562 167.623 264.105 165.322 264.105 165.322C240.435 168.042 240.435 185.853 240.435 185.853C240.435 185.853 254.259 218.111 255.311 218.111C256.363 218.111 254.054 268.787 254.054 268.787Z" fill="#054DA1"/>
<path opacity="0.1" d="M279.802 238.684C279.802 238.684 264.593 235.314 259.417 229.42L279.802 238.684Z" fill="black"/>
<path opacity="0.1" d="M356.492 221.02L338.853 235.476C338.981 236.627 339.175 237.77 339.435 238.898L339.948 238.428L365.988 232.662L356.492 221.02Z" fill="black"/>
<path opacity="0.1" d="M308.733 263.757C308.733 263.757 312.591 265.93 318.502 268.787H328.639C326.543 261.285 328.639 254.348 331.625 249.01L313.755 243.227C319.837 248.881 308.733 263.757 308.733 263.757Z" fill="black"/>
<path d="M250.906 180.172L240.435 185.827L230.17 211.806C230.17 211.806 219.485 240.293 220.529 247.837C220.529 247.837 216.765 265.648 223.463 268.787L240.914 276.691C241.222 276.827 241.565 276.864 241.896 276.797C242.226 276.729 242.527 276.561 242.757 276.314C242.987 276.068 243.135 275.757 243.181 275.423C243.226 275.089 243.166 274.749 243.01 274.45C240.521 269.737 237.783 262.363 242.154 258.308L237.124 247.837L255.302 218.085L261.376 207.82L250.906 180.172Z" fill="#054DA1"/>
<path opacity="0.1" d="M274.199 232.739C275.106 236.435 278.168 242.149 288.305 244.279L299.426 253.389L311.257 258.753L316.081 260.934L318.126 246.161L313.481 243.595L308.066 240.635C308.066 240.635 295.85 218.505 276.509 227.803C275.61 228.229 274.888 228.955 274.466 229.856C274.045 230.756 273.95 231.776 274.199 232.739Z" fill="black"/>
<path d="M274.832 231.481C275.739 235.186 278.793 240.891 288.93 243.021L300.05 252.132L311.89 257.495L316.706 259.677L318.75 244.903L314.105 242.337L308.733 239.403C308.733 239.403 296.509 217.273 277.167 226.614C276.278 227.033 275.56 227.746 275.135 228.633C274.709 229.519 274.603 230.525 274.832 231.481Z" fill="#CC818C"/>
<path opacity="0.1" d="M296.629 155.963C311.553 155.963 323.652 143.865 323.652 128.94C323.652 114.015 311.553 101.917 296.629 101.917C281.704 101.917 269.605 114.015 269.605 128.94C269.605 143.865 281.704 155.963 296.629 155.963Z" fill="black"/>
<path d="M296.629 155.339C311.553 155.339 323.652 143.24 323.652 128.316C323.652 113.391 311.553 101.292 296.629 101.292C281.704 101.292 269.605 113.391 269.605 128.316C269.605 143.24 281.704 155.339 296.629 155.339Z" fill="#CC818C"/>
<path opacity="0.1" d="M313.37 186.058L305.243 170.266C305.243 170.266 317.134 165.459 317.998 159.89C318.861 154.321 329.392 166.417 327.117 170.429C324.841 174.441 313.37 186.058 313.37 186.058Z" fill="black"/>
<path d="M313.37 184.8L305.243 169.009C305.243 169.009 317.134 164.201 317.998 158.632C318.861 153.063 329.392 165.168 327.117 169.171C324.841 173.175 313.37 184.8 313.37 184.8Z" fill="#054DA1"/>
<path d="M246.859 225.596L291.761 285.964C291.761 285.964 275.209 294.972 252.411 278.847L242.565 267.11L214.455 219.728L246.859 225.596Z" fill="#F6F8FB"/>
<path d="M238.023 258.419L242.112 258.308C242.112 258.308 267.09 234.065 273.224 246.332C279.357 258.599 257.663 270.062 257.663 270.062L251.068 273.62L242.471 276.187L236.97 268.804L238.023 258.419Z" fill="#CC818C"/>
<path opacity="0.1" d="M244.053 271.516C244.43 272.91 244.789 274.45 244.156 275.742C244.004 276.087 243.743 276.373 243.412 276.554C243.14 276.659 242.847 276.7 242.556 276.674C240.393 276.49 238.379 275.494 236.919 273.885C235.486 272.283 234.258 270.507 233.266 268.599C232.154 266.657 231 264.51 231.393 262.303C231.838 259.899 233.959 258.231 236.038 256.879C240.178 254.142 240.315 257.333 241.222 260.857C242.129 264.382 243.104 267.957 244.053 271.516Z" fill="black"/>
<path d="M243.429 271.516C243.797 272.91 244.165 274.45 243.532 275.742C243.38 276.087 243.118 276.373 242.787 276.554C242.515 276.659 242.223 276.7 241.932 276.674C239.767 276.494 237.752 275.497 236.295 273.885C234.856 272.285 233.625 270.509 232.633 268.599C231.521 266.657 230.366 264.51 230.769 262.303C231.205 259.899 233.335 258.231 235.405 256.879C239.554 254.142 239.682 257.333 240.598 260.857C241.513 264.382 242.471 267.957 243.429 271.516Z" fill="#054DA1"/>
<path opacity="0.1" d="M255.311 218.085L257.398 214.552L255.576 221.114L255.311 218.085Z" fill="black"/>
<path opacity="0.1" d="M311.924 257.495L316.74 259.677L318.785 244.903L314.14 242.337C317.347 246.015 314.542 252.816 311.924 257.495Z" fill="black"/>
<path opacity="0.1" d="M331.257 240.344C331.257 240.344 315.705 241.293 309.101 237.05L331.257 240.344Z" fill="black"/>
<g opacity="0.1">
<path opacity="0.1" d="M329.324 250.267C331.416 246.524 334.048 243.108 337.134 240.13C337.874 239.666 338.642 239.249 339.435 238.881L363.678 233.902L365.081 233.594C365.081 233.594 365.295 186.246 348.537 179.745C339.136 176.17 330.325 171.208 322.394 165.023L324.234 164.458C324.234 164.458 334.285 173.252 351.052 179.745C367.818 186.237 367.596 233.594 367.596 233.594H365.081L340.273 238.342C340.273 238.342 339.204 239.377 338.879 239.677C335.768 242.793 333.099 246.322 330.949 250.164C327.666 256.259 326.919 263.403 328.87 270.045H326.304C324.234 262.543 326.372 255.605 329.324 250.267Z" fill="black"/>
<path opacity="0.1" d="M263.113 166.691C263.515 166.631 263.9 166.571 264.319 166.528C266.02 166.769 267.734 166.909 269.451 166.947C267.335 167.006 265.217 166.92 263.113 166.691Z" fill="black"/>
<path opacity="0.1" d="M298.673 171.575L283.327 163.808C283.631 163.558 283.917 163.286 284.182 162.995L300.196 171.096L298.673 171.575Z" fill="black"/>
</g>
<path d="M357.1 219.728L367.365 232.302L369.461 266.452C369.461 266.452 372.181 283.834 352.283 279.642C332.386 275.451 309.358 262.499 309.358 262.499C309.358 262.499 320.478 247.623 314.388 241.969L342.882 251.191C342.882 251.191 347.698 250.138 343.926 245.955C340.153 241.772 339.486 234.219 339.486 234.219L357.1 219.728Z" fill="#054DA1"/>
<path opacity="0.1" d="M361.736 255.802L367.391 262.294C365.936 261.848 364.636 261.003 363.636 259.855C362.637 258.708 361.979 257.304 361.736 255.802Z" fill="black"/>
<path opacity="0.1" d="M352.095 254.75L360.898 266.058L356.501 267.111L352.095 254.75Z" fill="black"/>
<path opacity="0.1" d="M264.353 115.912C263.386 113.542 264.131 110.779 265.294 108.547C266.457 106.314 268.057 104.201 268.93 101.797C270.221 98.2214 269.828 94.1752 271.239 90.6765C273.729 84.4745 280.803 81.7029 287.142 79.5558C289.015 78.9313 291.008 78.3068 292.925 78.7688C295.491 79.3761 297.159 81.7029 299.255 83.2684C307.861 89.6842 321.856 82.6182 330.179 89.4104C333.361 91.9767 334.91 96.1769 335.389 100.257C335.868 104.338 335.389 108.478 335.337 112.593C335.2 119.796 336.552 127.674 341.941 132.447C343.567 133.885 345.483 134.962 347.074 136.451C348.665 137.939 349.914 140.018 349.64 142.174C349.43 143.164 349.144 144.136 348.785 145.082C347.715 148.838 349.315 152.781 351.265 156.203C357.082 166.272 367.339 174.569 378.965 174.8C378.186 180.669 372.121 184.073 366.689 186.477C359.846 189.548 352.557 192.559 345.021 192.174C337.484 191.789 329.623 186.965 328.306 179.539C327.852 176.973 327.912 173.885 325.739 172.55C324.405 171.738 322.677 171.943 321.24 171.336C319.161 170.48 318.134 168.145 317.45 165.998C316.048 161.567 315.296 156.957 315.217 152.311C315.123 146.802 315.85 140.788 312.728 136.254C309.837 132.054 304.704 129.924 301.368 126.066C298.288 122.49 294.943 118.179 289.896 117.512C282.916 116.528 268.476 126.015 264.353 115.912Z" fill="black"/>
<path d="M264.353 114.654C263.386 112.285 264.131 109.522 265.294 107.289C266.457 105.056 268.057 102.943 268.93 100.54C270.221 96.9639 269.828 92.9176 271.239 89.4189C273.729 83.2084 280.803 80.4368 287.142 78.2982C289.015 77.6737 291.008 77.0493 292.925 77.5112C295.491 78.1186 297.159 80.4454 299.255 82.0108C307.861 88.4266 321.856 81.3607 330.179 88.1529C333.361 90.7192 334.91 94.9194 335.389 99.0084C335.868 103.097 335.389 107.221 335.337 111.335C335.2 118.538 336.552 126.417 341.941 131.19C343.567 132.627 345.483 133.705 347.074 135.193C348.665 136.682 349.914 138.761 349.64 140.916C349.43 141.906 349.144 142.878 348.785 143.825C347.715 147.58 349.315 151.524 351.265 154.945C357.1 164.98 367.314 173.303 378.939 173.534C378.16 179.402 372.095 182.807 366.663 185.219C359.82 188.282 352.532 191.293 344.995 190.908C337.459 190.523 329.597 185.698 328.28 178.273C327.827 175.707 327.886 172.619 325.714 171.284C324.379 170.472 322.651 170.677 321.214 170.07C319.135 169.214 318.109 166.879 317.424 164.732C316.021 160.301 315.269 155.691 315.192 151.045C315.098 145.536 315.825 139.522 312.702 134.988C309.811 130.788 304.678 128.658 301.342 124.8C298.263 121.224 294.918 116.913 289.871 116.245C282.916 115.27 268.476 124.774 264.353 114.654Z" fill="#585268"/>
<path opacity="0.1" d="M283.532 184.099L299.024 171.524C299.024 171.524 288.416 165.775 287.15 160.874C285.884 155.972 277.398 163.2 278.262 167.597C279.126 171.994 283.532 184.099 283.532 184.099Z" fill="black"/>
<path d="M284.139 182.208L299.631 169.642C299.631 169.642 289.024 163.893 287.809 158.992C286.594 154.09 278.057 161.319 278.921 165.716C279.785 170.112 284.139 182.208 284.139 182.208Z" fill="#054DA1"/>
<path opacity="0.1" d="M300.239 181.396C300.919 181.396 301.47 180.844 301.47 180.164C301.47 179.483 300.919 178.932 300.239 178.932C299.558 178.932 299.007 179.483 299.007 180.164C299.007 180.844 299.558 181.396 300.239 181.396Z" fill="black"/>
<path opacity="0.1" d="M300.239 188.239C300.919 188.239 301.47 187.688 301.47 187.007C301.47 186.327 300.919 185.775 300.239 185.775C299.558 185.775 299.007 186.327 299.007 187.007C299.007 187.688 299.558 188.239 300.239 188.239Z" fill="black"/>
<path opacity="0.1" d="M300.239 195.074C300.919 195.074 301.47 194.523 301.47 193.842C301.47 193.162 300.919 192.61 300.239 192.61C299.558 192.61 299.007 193.162 299.007 193.842C299.007 194.523 299.558 195.074 300.239 195.074Z" fill="black"/>
<g opacity="0.1">
<path opacity="0.1" d="M270.606 97.1864C271.83 93.8246 271.564 90.0521 272.711 86.6646C272.18 87.4135 271.74 88.2234 271.402 89.0769C269.982 92.6098 270.384 96.6561 269.084 100.198L268.998 100.403C269.632 99.3824 270.17 98.3057 270.606 97.1864Z" fill="black"/>
<path opacity="0.1" d="M368.34 181.866C361.497 184.929 354.208 187.94 346.672 187.555C339.135 187.17 331.274 182.345 329.957 174.929C329.503 172.362 329.563 169.266 327.39 167.931C326.056 167.118 324.328 167.324 322.891 166.716C320.812 165.861 319.785 163.526 319.101 161.378C317.698 156.948 316.946 152.338 316.868 147.691C316.774 142.191 317.51 136.177 314.388 131.635C311.488 127.435 306.355 125.313 303.019 121.447C299.939 117.879 296.594 113.559 291.547 112.892C284.627 111.951 270.161 121.447 266.072 111.335C265.416 109.425 265.511 107.336 266.338 105.493C266.038 105.997 265.747 106.502 265.482 107.015C264.319 109.291 263.583 112.02 264.55 114.389C268.664 124.483 283.104 114.997 290.025 115.946C295.072 116.63 298.417 120.95 301.496 124.5C304.832 128.367 309.965 130.489 312.856 134.697C315.987 139.231 315.252 145.245 315.346 150.745C315.423 155.392 316.175 160.002 317.578 164.432C318.263 166.588 319.289 168.898 321.368 169.77C322.805 170.378 324.533 170.181 325.868 170.985C328.075 172.319 328.015 175.442 328.434 177.982C329.768 185.399 337.621 190.224 345.149 190.609C352.677 190.994 359.931 187.991 366.817 184.92C371.779 182.713 377.305 179.659 378.793 174.655C376.415 177.905 372.207 180.147 368.34 181.866Z" fill="black"/>
</g>
<path opacity="0.1" d="M64.3717 615C77.0947 615 87.4087 613.257 87.4087 611.108C87.4087 608.958 77.0947 607.216 64.3717 607.216C51.6488 607.216 41.3348 608.958 41.3348 611.108C41.3348 613.257 51.6488 615 64.3717 615Z" fill="#054DA1"/>
<path d="M40.3852 567.54C59.3822 567.54 74.7823 564.936 74.7823 561.723C74.7823 558.511 59.3822 555.906 40.3852 555.906C21.3882 555.906 5.98804 558.511 5.98804 561.723C5.98804 564.936 21.3882 567.54 40.3852 567.54Z" fill="#054DA1"/>
<path d="M26.1593 552.211C24.5867 550.935 23.4407 549.21 22.8744 547.266C22.4552 545.299 23.2936 542.946 25.167 542.228C27.2713 541.424 29.5211 542.878 31.2235 544.349C32.9258 545.821 34.8847 547.506 37.1174 547.198C35.9692 546.156 35.1104 544.835 34.6246 543.363C34.1389 541.891 34.0428 540.318 34.3458 538.797C34.438 538.167 34.7047 537.574 35.1157 537.087C36.2791 535.838 38.4006 536.377 39.8035 537.36C44.2432 540.491 45.4922 546.531 45.5093 551.971C45.9627 550.004 45.5863 547.968 45.5948 545.983C45.6034 543.998 46.1594 541.706 47.8532 540.662C48.8994 540.083 50.0792 539.788 51.2749 539.807C53.2767 539.738 55.5008 539.935 56.8695 541.398C58.5804 543.211 58.127 546.265 56.6471 548.241C55.1672 550.218 52.9259 551.492 50.8643 552.878C49.2037 553.862 47.7881 555.211 46.724 556.822C46.5993 557.045 46.4962 557.28 46.416 557.523H33.9181C31.1021 556.114 28.4917 554.326 26.1593 552.211Z" fill="#054DA1"/>
<path opacity="0.1" d="M411.406 577.419C424.129 577.419 434.443 575.677 434.443 573.527C434.443 571.377 424.129 569.635 411.406 569.635C398.683 569.635 388.369 571.377 388.369 573.527C388.369 575.677 398.683 577.419 411.406 577.419Z" fill="#054DA1"/>
<path d="M395.939 555.435C395.939 555.435 409.079 555.033 413.048 552.21C417.017 549.387 433.254 546.025 434.237 550.55C435.221 555.075 453.989 573.04 439.148 573.159C424.306 573.279 404.682 570.85 400.73 568.437C396.778 566.025 395.939 555.435 395.939 555.435Z" fill="#A8A8A8"/>
<path opacity="0.2" d="M439.404 571.594C424.571 571.714 404.939 569.284 400.987 566.872C397.975 565.041 396.778 558.463 396.376 555.426H395.939C395.939 555.426 396.795 566.025 400.721 568.429C404.648 570.832 424.306 573.27 439.139 573.151C443.416 573.151 444.905 571.594 444.819 569.335C444.229 570.738 442.595 571.594 439.404 571.594Z" fill="black"/>
<defs>
<linearGradient id="paint0_linear" x1="133.651" y1="553.733" x2="133.651" y2="48.0928" gradientUnits="userSpaceOnUse">
<stop stop-color="#808080" stop-opacity="0.25"/>
<stop offset="0.54" stop-color="#808080" stop-opacity="0.12"/>
<stop offset="1" stop-color="#808080" stop-opacity="0.1"/>
</linearGradient>
<linearGradient id="paint1_linear" x1="117546" y1="408638" x2="117546" y2="89486.4" gradientUnits="userSpaceOnUse">
<stop stop-color="#808080" stop-opacity="0.25"/>
<stop offset="0.54" stop-color="#808080" stop-opacity="0.12"/>
<stop offset="1" stop-color="#808080" stop-opacity="0.1"/>
</linearGradient>
</defs>
</svg>
