<svg width="548" height="473" viewBox="0 0 548 473" fill="none" xmlns="http://www.w3.org/2000/svg">
<ellipse cx="374.543" cy="228.054" rx="158.106" ry="158.179" fill="#00C2FF" fill-opacity="0.29"/>
<path d="M299.12 131.725C326.987 131.725 349.578 109.131 349.578 81.2591C349.578 53.3873 326.987 30.7928 299.12 30.7928C271.252 30.7928 248.661 53.3873 248.661 81.2591C248.661 109.131 271.252 131.725 299.12 131.725Z" fill="#A0616A"/>
<path d="M261.458 106.492C261.458 106.492 270.965 178.169 256.339 186.215C241.714 194.26 343.362 194.991 343.362 194.991C343.362 194.991 320.693 132.823 330.931 113.806L261.458 106.492Z" fill="#A0616A"/>
<path d="M417.587 195.354L409.134 233.854L391.259 315.309L390.723 319.77L384.555 371.412L380.451 405.719L377.7 428.765C360.971 437.364 348.846 443.3 348.846 443.3C348.846 443.3 347.803 438.071 346.122 431.379C334.381 434.9 312.657 440.74 294.247 441.907C300.951 449.381 304.032 456.401 299.853 461.583C287.241 477.202 235.174 444.481 216.963 432.278C216.539 435.2 216.378 438.154 216.482 441.104L202.546 430.384L203.925 405.719L206.251 363.987L209.175 311.651C208.253 309.41 207.48 307.111 206.862 304.768C202.594 289.587 197.413 259.274 193.44 233.854C190.243 213.396 187.841 196.109 187.333 192.43C187.265 191.95 187.231 191.703 187.231 191.703L264.378 157.608C269.86 170.325 295.461 174.148 295.461 174.148C316.671 172.686 333.297 161.5 333.297 161.5L417.587 195.354Z" fill="#D0CDE1"/>
<path d="M354.699 428.676C354.699 428.676 351.433 429.794 346.122 431.379C334.381 434.9 312.657 440.74 294.247 441.907C278.396 442.923 265.002 440.48 262.552 430.137C261.502 425.69 262.991 422.032 266.237 419.026C275.926 410.043 301.232 406.824 321.303 405.719C326.971 405.411 332.213 405.266 336.577 405.212C343.988 405.115 348.846 405.266 348.846 405.266L348.963 405.719L354.699 428.676Z" fill="#A0616A"/>
<path d="M257.142 33.5226L247.708 29.745C247.708 29.745 267.435 8.02366 294.881 9.91255L287.161 1.41282C287.161 1.41282 306.031 -6.14234 323.184 13.6901C332.202 24.1155 342.635 36.3702 349.139 50.1748H359.243L355.026 59.4614L369.785 68.748L354.636 67.0799C355.539 72.1654 355.677 77.3571 355.047 82.4835C354.397 87.6115 351.781 92.2863 347.75 95.5214C347.75 95.5214 336.05 71.2987 336.05 67.521V76.9651C336.05 76.9651 326.615 68.4655 326.615 62.7991L321.469 69.4099L318.896 59.0214L287.162 69.4099L292.308 60.9103L272.581 63.7435L280.3 53.355C280.3 53.355 258 65.6323 257.143 76.0208C256.285 86.4092 249.758 96.2528 249.758 96.2528C249.758 96.2528 232.27 47.6886 257.142 33.5226Z" fill="#2F2E41"/>
<path d="M472.433 372.352C467.294 377.925 454.558 386.318 439.119 395.405C433.376 398.781 427.262 402.261 421.025 405.719C406.142 413.975 390.559 422.156 377.7 428.765C360.971 437.364 348.846 443.3 348.846 443.3C348.846 443.3 347.803 438.071 346.122 431.379C343.871 422.423 340.481 410.846 336.948 405.719C336.824 405.541 336.701 405.376 336.577 405.212C335.548 403.86 334.512 403.07 333.489 403.07L384.555 371.412L406.622 357.728L390.723 319.77L370.783 272.156L382.819 233.854L394.916 195.354H417.587C417.587 195.354 425.094 211.742 434.694 234.595C436.128 238.013 437.61 241.575 439.119 245.253C458.868 293.293 483.488 360.377 472.433 372.352Z" fill="#D0CDE1"/>
<path d="M299.853 461.583C287.241 477.202 235.174 444.481 216.963 432.278C212.997 429.623 210.636 427.941 210.636 427.941L227.296 405.719L232.573 398.685C232.573 398.685 237.294 401.19 244.272 405.266C244.526 405.417 244.78 405.568 245.041 405.719C251.059 409.254 258.614 413.872 266.237 419.026C276.756 426.143 287.392 434.262 294.247 441.907C300.951 449.381 304.032 456.401 299.853 461.583Z" fill="#A0616A"/>
<path d="M244.273 405.267C242.41 405.259 240.551 405.411 238.714 405.719C222.939 408.43 218.287 422.712 216.963 432.279C216.539 435.2 216.378 438.154 216.482 441.104L202.546 430.384L197.468 426.479C185.248 422.218 174.358 414.648 164.916 405.719C156.725 397.837 149.378 389.122 142.993 379.716C136.633 370.446 130.964 360.72 126.03 350.618C124.654 347.799 123.914 344.712 123.863 341.575C123.812 338.438 124.451 335.328 125.735 332.466L142.993 294L168.217 237.78C168.402 236.442 168.605 235.133 168.827 233.854C173.829 205.168 187.231 192.43 187.231 192.43H197.468L204.316 233.854L212.825 285.318L206.862 304.768L193.084 349.685L206.251 363.987L244.273 405.267Z" fill="#D0CDE1"/>
<path d="M255.86 285.359L264.612 295.572C267.863 294.952 271.259 294.223 274.756 293.405L272.243 285.359L278.389 292.531C315.441 283.417 361.366 265.697 361.366 265.697C361.366 265.697 311.785 269.333 274.765 261.244C258.385 257.665 241.533 265.786 234.811 281.148C230.905 290.077 231.518 297.812 245.374 297.812C250.056 297.732 254.725 297.293 259.34 296.499L255.86 285.359Z" fill="#054DA1"/>
<path d="M455.382 453.21V457.376C455.384 458.519 455.172 459.653 454.757 460.718C454.573 461.193 454.351 461.652 454.092 462.091C453.274 463.463 452.114 464.6 450.724 465.389C449.335 466.179 447.764 466.593 446.167 466.593H139.754C138.156 466.593 136.586 466.179 135.196 465.389C133.807 464.6 132.646 463.463 131.829 462.091C131.57 461.652 131.347 461.193 131.163 460.718C130.748 459.653 130.536 458.519 130.539 457.376V453.21C130.538 452 130.776 450.801 131.239 449.683C131.702 448.564 132.381 447.548 133.237 446.692C134.093 445.836 135.109 445.157 136.227 444.694C137.345 444.231 138.544 443.993 139.754 443.993H157.416V442.051C157.416 442.001 157.426 441.951 157.445 441.904C157.465 441.857 157.493 441.815 157.529 441.779C157.564 441.744 157.607 441.715 157.653 441.696C157.7 441.677 157.75 441.667 157.8 441.667H167.016C167.066 441.667 167.116 441.677 167.163 441.696C167.21 441.715 167.252 441.744 167.288 441.779C167.323 441.815 167.352 441.857 167.371 441.904C167.39 441.951 167.4 442.001 167.4 442.051V443.993H173.157V442.051C173.157 442.001 173.167 441.951 173.186 441.904C173.205 441.857 173.234 441.815 173.269 441.779C173.305 441.744 173.347 441.715 173.394 441.696C173.441 441.677 173.491 441.667 173.541 441.667H182.757C182.807 441.667 182.857 441.677 182.904 441.696C182.95 441.715 182.993 441.744 183.029 441.779C183.064 441.815 183.093 441.857 183.112 441.904C183.131 441.951 183.141 442.001 183.141 442.051V443.993H188.905V442.051C188.905 442.001 188.915 441.951 188.934 441.904C188.953 441.857 188.981 441.815 189.017 441.779C189.053 441.744 189.095 441.715 189.142 441.696C189.189 441.677 189.239 441.667 189.289 441.667H198.504C198.555 441.667 198.605 441.677 198.652 441.696C198.698 441.715 198.741 441.744 198.776 441.779C198.812 441.815 198.84 441.857 198.86 441.904C198.879 441.951 198.889 442.001 198.889 442.051V443.993H204.646V442.051C204.646 442.001 204.656 441.951 204.675 441.904C204.694 441.857 204.722 441.815 204.758 441.779C204.794 441.744 204.836 441.715 204.883 441.696C204.929 441.677 204.979 441.667 205.03 441.667H214.245C214.296 441.667 214.346 441.677 214.393 441.696C214.439 441.715 214.482 441.744 214.517 441.779C214.553 441.815 214.581 441.857 214.601 441.904C214.62 441.951 214.63 442.001 214.63 442.051V443.993H220.387V442.051C220.387 442.001 220.396 441.951 220.416 441.904C220.435 441.857 220.463 441.815 220.499 441.779C220.535 441.744 220.577 441.715 220.624 441.696C220.67 441.677 220.72 441.667 220.771 441.667H229.986C230.037 441.667 230.087 441.677 230.133 441.696C230.18 441.715 230.222 441.744 230.258 441.779C230.294 441.815 230.322 441.857 230.341 441.904C230.361 441.951 230.371 442.001 230.371 442.051V443.993H236.134V442.051C236.134 442.001 236.144 441.951 236.163 441.904C236.183 441.857 236.211 441.815 236.247 441.779C236.282 441.744 236.325 441.715 236.372 441.696C236.418 441.677 236.468 441.667 236.519 441.667H245.734C245.785 441.667 245.835 441.677 245.881 441.696C245.928 441.715 245.97 441.744 246.006 441.779C246.042 441.815 246.07 441.857 246.089 441.904C246.109 441.951 246.118 442.001 246.118 442.051V443.993H251.875V442.051C251.875 442.001 251.885 441.951 251.904 441.904C251.924 441.857 251.952 441.815 251.988 441.779C252.023 441.744 252.066 441.715 252.112 441.696C252.159 441.677 252.209 441.667 252.26 441.667H324.445C324.496 441.667 324.546 441.677 324.593 441.696C324.639 441.715 324.682 441.744 324.717 441.779C324.753 441.815 324.781 441.857 324.801 441.904C324.82 441.951 324.83 442.001 324.83 442.051V443.993H330.594V442.051C330.594 442.001 330.603 441.951 330.623 441.904C330.642 441.857 330.67 441.815 330.706 441.779C330.742 441.744 330.784 441.715 330.831 441.696C330.877 441.677 330.927 441.667 330.978 441.667H340.193C340.295 441.668 340.392 441.709 340.464 441.78C340.536 441.852 340.577 441.95 340.578 442.051V443.993H346.335V442.051C346.334 442.001 346.344 441.951 346.364 441.904C346.383 441.857 346.411 441.815 346.447 441.779C346.483 441.744 346.525 441.715 346.572 441.696C346.618 441.677 346.668 441.667 346.719 441.667H355.934C355.985 441.667 356.035 441.677 356.081 441.696C356.128 441.715 356.17 441.743 356.206 441.779C356.242 441.815 356.27 441.857 356.289 441.904C356.309 441.951 356.319 442.001 356.318 442.051V443.993H362.076V442.051C362.075 442.001 362.085 441.951 362.105 441.904C362.124 441.857 362.152 441.815 362.188 441.779C362.224 441.744 362.266 441.715 362.313 441.696C362.359 441.677 362.409 441.667 362.46 441.667H371.675C371.726 441.667 371.776 441.677 371.822 441.696C371.869 441.715 371.911 441.744 371.947 441.779C371.983 441.815 372.011 441.857 372.03 441.904C372.05 441.951 372.059 442.001 372.059 442.051V443.993H377.823V442.051C377.823 442.001 377.833 441.951 377.852 441.904C377.872 441.857 377.9 441.815 377.936 441.779C377.971 441.744 378.014 441.715 378.06 441.696C378.107 441.677 378.157 441.667 378.208 441.667H387.423C387.524 441.668 387.62 441.709 387.691 441.781C387.761 441.853 387.801 441.95 387.8 442.051V443.993H393.564V442.051C393.564 442.001 393.574 441.951 393.593 441.904C393.613 441.857 393.641 441.815 393.677 441.779C393.712 441.744 393.755 441.715 393.801 441.696C393.848 441.677 393.898 441.667 393.948 441.667H403.164C403.214 441.667 403.264 441.677 403.311 441.696C403.358 441.715 403.4 441.744 403.436 441.779C403.471 441.815 403.5 441.857 403.519 441.904C403.538 441.951 403.548 442.001 403.548 442.051V443.993H409.305V442.051C409.305 442.001 409.315 441.951 409.334 441.904C409.353 441.857 409.382 441.815 409.417 441.779C409.453 441.744 409.496 441.715 409.542 441.696C409.589 441.677 409.639 441.667 409.689 441.667H418.905C418.955 441.667 419.005 441.677 419.052 441.696C419.099 441.715 419.141 441.744 419.177 441.779C419.212 441.815 419.241 441.857 419.26 441.904C419.279 441.951 419.289 442.001 419.289 442.051V443.993H446.167C447.377 443.993 448.575 444.231 449.693 444.694C450.812 445.157 451.828 445.836 452.683 446.692C453.539 447.548 454.218 448.564 454.681 449.683C455.144 450.801 455.382 452 455.382 453.21Z" fill="#3F3D56"/>
<path d="M544.482 460.718H41.5139V462.091H544.482V460.718Z" fill="#3F3D56"/>
<path d="M430.71 277.777H316.5V275.422H264.713V277.777H150.033C147.984 277.777 146.019 278.591 144.571 280.04C143.122 281.489 142.308 283.454 142.308 285.503V441.914C142.308 443.964 143.122 445.929 144.571 447.378C146.019 448.827 147.984 449.641 150.033 449.641H430.71C432.759 449.641 434.724 448.827 436.173 447.378C437.621 445.929 438.435 443.964 438.435 441.914V285.503C438.435 284.488 438.235 283.484 437.847 282.546C437.459 281.609 436.89 280.757 436.173 280.04C435.455 279.322 434.603 278.753 433.666 278.365C432.729 277.976 431.724 277.777 430.71 277.777Z" fill="#3F3D56"/>
<path d="M290.596 349.541C300.07 349.541 307.751 341.859 307.751 332.384C307.751 322.908 300.07 315.227 290.596 315.227C281.122 315.227 273.442 322.908 273.442 332.384C273.442 341.859 281.122 349.541 290.596 349.541Z" stroke="#00C2FF" stroke-width="2" stroke-miterlimit="10"/>
<path d="M285.107 355.717C294.581 355.717 302.261 348.036 302.261 338.56C302.261 329.084 294.581 321.403 285.107 321.403C275.633 321.403 267.952 329.084 267.952 338.56C267.952 348.036 275.633 355.717 285.107 355.717Z" fill="#00C2FF"/>
<path d="M74.4132 453.784H55.2003V473H74.4132V453.784Z" fill="#D0CDE1"/>
<path d="M122.115 405.026C136.85 421.27 132.338 435.707 120.428 446.52C120.152 446.771 119.873 447.018 119.594 447.261C119.031 447.75 118.462 448.221 117.887 448.673C106.447 457.671 92.687 459.291 78.9836 444.184C64.8024 428.55 66.8845 390.682 67.0595 387.863L67.061 387.859C67.0675 387.752 67.0714 387.698 67.0714 387.698C67.0714 387.698 107.381 388.783 122.115 405.026Z" fill="#D0CDE1"/>
<path d="M117.389 444.748L115.279 426.565L118.467 445.976L119.594 447.261C119.031 447.75 118.462 448.221 117.887 448.673L103.996 431.651L103.875 431.531L103.868 431.494L102.556 429.885L83.5058 424.819L101.536 428.713L101.851 429.021L91.356 416.16L73.076 409.649L89.4821 413.926L67.0595 387.863L66.9853 387.776L67.0609 387.859L85.1596 408.035L84.6949 393.944L86.6987 409.791L96.4926 420.947L93.232 404.668L97.9336 422.586L103.38 428.789L99.2148 405.79L105.278 430.954L117.389 444.748Z" fill="#3F3D56"/>
<path d="M503.292 442.658C489.826 459.97 474.835 458.003 462.143 448.121C461.848 447.892 461.557 447.66 461.271 447.426C460.692 446.955 460.131 446.475 459.587 445.986C448.762 436.256 444.804 422.972 457.327 406.872C470.286 390.211 507.932 385.76 510.738 385.449L510.742 385.449C510.849 385.437 510.903 385.432 510.903 385.432C510.903 385.432 516.756 425.347 503.292 442.658Z" fill="#D0CDE1"/>
<path d="M463.366 444.822L480.908 439.62L462.342 446.095L461.271 447.426C460.692 446.955 460.131 446.475 459.587 445.986L473.963 429.372L474.06 429.232L474.096 429.219L475.455 427.65L477.171 408.004L476.434 426.443L476.185 426.807L487.047 414.254L490.318 395.119L488.924 412.024L510.738 385.449L510.811 385.36L510.742 385.449L493.983 406.752L507.778 403.874L492.519 408.57L483.215 420.139L498.685 414.13L481.848 421.841L476.675 428.273L498.607 420.219L474.869 430.516L463.366 444.822Z" fill="#3F3D56"/>
</svg>
