<svg width="250" height="305" viewBox="0 0 250 305" fill="none" xmlns="http://www.w3.org/2000/svg">
<rect width="10" height="10" fill="#4AD4FF"/>
<rect x="60" width="10" height="10" fill="#4AD4FF"/>
<rect x="120" width="10" height="10" fill="#4AD4FF"/>
<rect x="180" width="10" height="10" fill="#4AD4FF"/>
<rect x="240" width="10" height="10" fill="#4AD4FF"/>
<rect y="59" width="10" height="10" fill="#4AD4FF"/>
<rect x="60" y="59" width="10" height="10" fill="#4AD4FF"/>
<rect x="120" y="59" width="10" height="10" fill="#4AD4FF"/>
<rect x="180" y="59" width="10" height="10" fill="#4AD4FF"/>
<rect x="240" y="59" width="10" height="10" fill="#4AD4FF"/>
<rect y="118" width="10" height="10" fill="#4AD4FF"/>
<rect x="60" y="118" width="10" height="10" fill="#4AD4FF"/>
<rect x="120" y="118" width="10" height="10" fill="#4AD4FF"/>
<rect x="180" y="118" width="10" height="10" fill="#4AD4FF"/>
<rect x="240" y="118" width="10" height="10" fill="#4AD4FF"/>
<rect y="177" width="10" height="10" fill="#4AD4FF"/>
<rect y="236" width="10" height="10" fill="#4AD4FF"/>
<rect y="295" width="10" height="10" fill="#4AD4FF"/>
<rect x="60" y="177" width="10" height="10" fill="#4AD4FF"/>
<rect x="60" y="236" width="10" height="10" fill="#4AD4FF"/>
<rect x="60" y="295" width="10" height="10" fill="#4AD4FF"/>
<rect x="120" y="177" width="10" height="10" fill="#4AD4FF"/>
<rect x="120" y="236" width="10" height="10" fill="#4AD4FF"/>
<rect x="120" y="295" width="10" height="10" fill="#4AD4FF"/>
<rect x="180" y="177" width="10" height="10" fill="#4AD4FF"/>
<rect x="180" y="236" width="10" height="10" fill="#4AD4FF"/>
<rect x="180" y="295" width="10" height="10" fill="#4AD4FF"/>
<rect x="240" y="177" width="10" height="10" fill="#4AD4FF"/>
<rect x="240" y="236" width="10" height="10" fill="#4AD4FF"/>
<rect x="240" y="295" width="10" height="10" fill="#4AD4FF"/>
</svg>
