<svg width="688" height="388" viewBox="0 0 688 388" fill="none" xmlns="http://www.w3.org/2000/svg">
<g clip-path="url(#clip0)">
<path opacity="0.1" d="M383.041 52.9186C343.348 52.6903 305.301 42.5353 268.927 31.2894C232.553 20.0435 196.503 7.51632 157.627 2.01071C132.623 -1.51593 104.13 -1.40811 84.3467 10.6243C65.3109 22.2064 59.5336 41.5395 56.6133 59.4201C54.4088 72.8733 53.2686 87.0052 60.4901 99.3801C65.5009 107.968 74.1985 115.079 80.2988 123.274C101.514 151.785 87.9004 187.908 66.3624 216.774C56.2269 230.316 44.4697 243.287 36.7667 257.622C29.0637 271.957 25.7379 288.265 33.1242 302.517C40.4471 316.649 57.3355 326.988 75.5287 334.111C112.485 348.566 155.701 351.909 197.789 353.374C290.978 356.622 384.472 351.966 477.713 347.317C512.224 345.591 546.882 343.854 580.734 338.437C599.536 335.418 618.914 330.87 632.369 320.715C649.472 307.813 653.273 286.59 641.237 271.24C621.067 245.482 566.88 240.274 552.551 212.455C544.658 197.137 551.956 179.687 562.535 165.048C585.226 133.644 623.848 105.634 625.065 70.3425C625.901 46.1 606.428 22.3142 576.953 11.5694C546.014 0.266415 503.635 2.80357 481.514 23.2276C458.76 44.2542 418.116 53.1216 383.041 52.9186Z" fill="#6C63FF"/>
<path d="M360.47 154.728C360.47 154.728 343.062 123.845 316.837 114.946C305.815 111.281 296.277 104.137 289.655 94.5849C286.546 90.0264 283.861 85.1919 281.635 80.1422" stroke="#535461" stroke-width="2" stroke-miterlimit="10"/>
<path d="M265.152 74.4336C268.136 77.3387 282.053 80.3388 282.053 80.3388C282.053 80.3388 278.638 66.505 275.655 63.6C274.22 62.2054 272.291 61.4387 270.291 61.4684C268.292 61.4981 266.386 62.3219 264.994 63.7586C263.601 65.1952 262.835 67.127 262.865 69.1289C262.894 71.1309 263.717 73.0391 265.152 74.4336Z" fill="#054DA1"/>
<path d="M273.051 99.488C277.137 100.3 290.453 95.2446 290.453 95.2446C290.453 95.2446 280.019 85.4766 275.959 84.6647C273.996 84.2786 271.96 84.6892 270.299 85.8062C268.638 86.9231 267.489 88.6549 267.103 90.6206C266.717 92.5863 267.128 94.6249 268.243 96.2878C269.359 97.9508 271.088 99.1019 273.051 99.488Z" fill="#054DA1"/>
<path d="M301.684 126.566C305.618 125.202 314.563 114.115 314.563 114.115C314.563 114.115 300.69 110.943 296.756 112.301C295.807 112.614 294.931 113.114 294.177 113.769C293.423 114.425 292.806 115.225 292.363 116.121C291.92 117.018 291.66 117.993 291.597 118.991C291.534 119.99 291.669 120.99 291.996 121.935C292.323 122.881 292.833 123.751 293.499 124.497C294.165 125.243 294.971 125.849 295.873 126.28C296.774 126.71 297.752 126.958 298.75 127.007C299.748 127.056 300.745 126.906 301.684 126.566Z" fill="#054DA1"/>
<path d="M327.986 142.182C332.091 141.503 342.777 132.084 342.777 132.084C342.777 132.084 329.639 126.604 325.528 127.282C323.555 127.609 321.792 128.707 320.627 130.335C319.462 131.962 318.991 133.987 319.317 135.963C319.643 137.938 320.739 139.704 322.365 140.87C323.991 142.036 326.013 142.508 327.986 142.182Z" fill="#054DA1"/>
<path d="M302.02 84.4173C302.02 88.5909 294.488 100.68 294.488 100.68C294.488 100.68 286.943 88.5973 286.943 84.4237C286.943 82.4218 287.738 80.5019 289.151 79.0864C290.565 77.6709 292.482 76.8756 294.482 76.8756C296.481 76.8756 298.398 77.6709 299.812 79.0864C301.226 80.5019 302.02 82.4218 302.02 84.4237V84.4173Z" fill="#054DA1"/>
<path d="M332.547 103.065C331.28 107.049 320.511 116.328 320.511 116.328C320.511 116.328 316.925 102.533 318.167 98.5683C318.764 96.6573 320.095 95.0621 321.867 94.1337C323.639 93.2052 325.707 93.0196 327.615 93.6177C329.524 94.2157 331.117 95.5484 332.044 97.3226C332.971 99.0967 333.157 101.167 332.559 103.078L332.547 103.065Z" fill="#054DA1"/>
<path d="M359.729 125.265C359.178 129.401 350.094 140.38 350.094 140.38C350.094 140.38 344.234 127.39 344.785 123.255C345.052 121.271 346.094 119.474 347.684 118.259C349.273 117.045 351.28 116.512 353.261 116.779C355.243 117.045 357.038 118.089 358.251 119.681C359.463 121.272 359.995 123.281 359.729 125.265Z" fill="#054DA1"/>
<path opacity="0.25" d="M265.152 74.4336C268.136 77.3387 282.053 80.3388 282.053 80.3388C282.053 80.3388 278.638 66.505 275.655 63.6C274.22 62.2054 272.291 61.4387 270.291 61.4684C268.292 61.4981 266.386 62.3219 264.994 63.7586C263.601 65.1952 262.835 67.127 262.865 69.1289C262.894 71.1309 263.717 73.0391 265.152 74.4336Z" fill="#054DA2"/>
<path opacity="0.25" d="M273.051 99.488C277.137 100.3 290.453 95.2446 290.453 95.2446C290.453 95.2446 280.019 85.4766 275.959 84.6647C273.996 84.2786 271.96 84.6892 270.299 85.8062C268.638 86.9231 267.489 88.6549 267.103 90.6206C266.717 92.5863 267.128 94.6249 268.243 96.2878C269.359 97.9508 271.088 99.1019 273.051 99.488Z" fill="#054DA2"/>
<path opacity="0.25" d="M301.684 126.566C305.618 125.202 314.563 114.115 314.563 114.115C314.563 114.115 300.69 110.943 296.756 112.301C295.807 112.614 294.931 113.114 294.177 113.769C293.423 114.425 292.806 115.225 292.363 116.121C291.92 117.018 291.66 117.993 291.597 118.991C291.534 119.99 291.669 120.99 291.996 121.935C292.323 122.881 292.833 123.751 293.499 124.497C294.165 125.243 294.971 125.849 295.873 126.28C296.774 126.71 297.752 126.958 298.75 127.007C299.748 127.056 300.745 126.906 301.684 126.566Z" fill="#054DA2"/>
<path opacity="0.25" d="M327.986 142.182C332.091 141.503 342.777 132.084 342.777 132.084C342.777 132.084 329.639 126.604 325.528 127.282C323.555 127.609 321.792 128.707 320.627 130.335C319.462 131.962 318.991 133.987 319.317 135.963C319.643 137.938 320.739 139.704 322.365 140.87C323.991 142.036 326.013 142.508 327.986 142.182Z" fill="#054DA2"/>
<path opacity="0.25" d="M302.02 84.4173C302.02 88.5909 294.488 100.68 294.488 100.68C294.488 100.68 286.943 88.5973 286.943 84.4237C286.943 82.4218 287.738 80.5019 289.151 79.0864C290.565 77.6709 292.482 76.8756 294.482 76.8756C296.481 76.8756 298.398 77.6709 299.812 79.0864C301.226 80.5019 302.02 82.4218 302.02 84.4237V84.4173Z" fill="#054DA2"/>
<path opacity="0.25" d="M332.547 103.065C331.28 107.049 320.511 116.328 320.511 116.328C320.511 116.328 316.925 102.533 318.167 98.5683C318.764 96.6573 320.095 95.0621 321.867 94.1337C323.639 93.2052 325.707 93.0196 327.615 93.6177C329.524 94.2157 331.117 95.5484 332.044 97.3226C332.971 99.0967 333.157 101.167 332.559 103.078L332.547 103.065Z" fill="#054DA2"/>
<path opacity="0.25" d="M359.729 125.265C359.178 129.401 350.094 140.38 350.094 140.38C350.094 140.38 344.234 127.39 344.785 123.255C345.052 121.271 346.094 119.474 347.684 118.259C349.273 117.045 351.28 116.512 353.261 116.779C355.243 117.045 357.038 118.089 358.251 119.681C359.463 121.272 359.995 123.281 359.729 125.265Z" fill="#054DA2"/>
<path d="M359.476 154.119C359.476 154.119 356.055 118.815 335.689 100.04C327.093 92.2201 321.263 81.8195 319.073 70.3996C318.077 64.9699 317.581 59.4602 317.591 53.9398" stroke="#535461" stroke-width="2" stroke-miterlimit="10"/>
<path d="M304.826 42.0279C306.378 45.897 317.888 54.2886 317.888 54.2886C317.888 54.2886 320.365 40.2519 318.807 36.3827C318.448 35.4481 317.906 34.5944 317.215 33.8714C316.523 33.1483 315.694 32.5703 314.777 32.1711C313.86 31.7718 312.872 31.5593 311.872 31.5459C310.872 31.5325 309.88 31.7185 308.952 32.093C308.025 32.4675 307.181 33.0231 306.47 33.7274C305.759 34.4316 305.195 35.2705 304.811 36.1951C304.427 37.1198 304.231 38.1117 304.233 39.113C304.236 40.1144 304.437 41.1053 304.826 42.0279Z" fill="#054DA1"/>
<path d="M301.887 68.1161C305.295 70.5137 319.504 71.2876 319.504 71.2876C319.504 71.2876 313.967 58.1578 310.565 55.7602C308.93 54.6079 306.904 54.1533 304.934 54.4965C302.964 54.8396 301.21 55.9525 300.059 57.5901C298.908 59.2278 298.454 61.2561 298.797 63.2289C299.14 65.2018 300.251 66.9575 301.887 68.1098V68.1161Z" fill="#054DA1"/>
<path d="M317.128 104.518C321.277 104.867 333.94 98.3526 333.94 98.3526C333.94 98.3526 322.538 89.8214 318.389 89.4726C316.396 89.3044 314.419 89.9356 312.891 91.2274C311.363 92.5192 310.41 94.3658 310.242 96.3609C310.074 98.3561 310.705 100.336 311.995 101.866C313.285 103.396 315.129 104.35 317.122 104.518H317.128Z" fill="#054DA1"/>
<path d="M334.853 129.458C338.882 130.505 352.463 126.23 352.463 126.23C352.463 126.23 342.663 115.891 338.635 114.812C337.66 114.504 336.633 114.398 335.616 114.5C334.599 114.602 333.614 114.91 332.719 115.405C331.825 115.9 331.04 116.572 330.413 117.38C329.786 118.188 329.33 119.115 329.072 120.105C328.814 121.095 328.76 122.128 328.913 123.14C329.066 124.151 329.422 125.121 329.961 125.991C330.5 126.86 331.21 127.611 332.048 128.197C332.885 128.783 333.833 129.193 334.834 129.401L334.853 129.458Z" fill="#054DA1"/>
<path d="M334.498 66.1181C332.813 69.9238 321.03 77.9286 321.03 77.9286C321.03 77.9286 319.022 63.822 320.707 60.0099C321.516 58.1788 323.019 56.7445 324.884 56.0224C326.749 55.3004 328.824 55.3498 330.653 56.1598C332.482 56.9698 333.914 58.474 334.635 60.3416C335.356 62.2091 335.307 64.287 334.498 66.1181Z" fill="#054DA1"/>
<path d="M354.851 95.5554C352.102 98.6824 338.47 102.786 338.47 102.786C338.47 102.786 340.769 88.7241 343.538 85.5908C344.191 84.8457 344.985 84.2368 345.873 83.7988C346.762 83.3608 347.728 83.1024 348.716 83.0382C349.704 82.974 350.695 83.1053 351.633 83.4246C352.57 83.744 353.436 84.2451 354.18 84.8994C354.924 85.5537 355.532 86.3483 355.97 87.2379C356.407 88.1276 356.665 89.0947 356.729 90.0842C356.793 91.0737 356.662 92.0662 356.343 93.0049C356.024 93.9437 355.524 94.8103 354.87 95.5554H354.851Z" fill="#054DA1"/>
<path d="M370.72 126.877C368.541 130.429 355.795 136.784 355.795 136.784C355.795 136.784 355.688 122.532 357.867 118.973C358.941 117.327 360.615 116.166 362.531 115.736C364.447 115.306 366.456 115.641 368.129 116.67C369.803 117.699 371.01 119.341 371.493 121.247C371.977 123.153 371.7 125.172 370.72 126.877Z" fill="#054DA1"/>
<path opacity="0.1" d="M523.57 378.606C525.439 382.412 512.218 386.503 495.843 387.683C481.172 388.742 469.111 387.017 467.584 383.921C466.057 380.826 475.401 377.071 489.755 375.378C505.776 373.5 521.701 374.838 523.57 378.606Z" fill="#6C63FF"/>
<path d="M138.572 177.315L340.383 105.748V352.987L138.572 348.776V177.315Z" fill="white"/>
<path opacity="0.2" d="M138.572 177.315L340.383 105.748V352.987L138.572 348.776V177.315Z" fill="#0597C6"/>
<path d="M0 218.144L115.133 177.315V348.776H0V218.144Z" fill="white"/>
<path opacity="0.2" d="M0 218.144L115.133 177.315V348.776H0V218.144Z" fill="#0597C6"/>
<path d="M340.383 105.748L542.188 177.315V348.776L340.383 352.987V105.748Z" fill="white"/>
<path opacity="0.5" d="M340.383 105.748L542.188 177.315V348.776L340.383 352.987V105.748Z" fill="#0597C6"/>
<path d="M682.844 218.658L566.26 177.315V348.776H682.844V218.658Z" fill="white"/>
<path opacity="0.5" d="M682.844 218.658L566.26 177.315V348.776H682.844V218.658Z" fill="#0597C6"/>
<path d="M67.0908 247.911C66.2737 247.911 65.6085 249.028 65.6085 250.404V281.433C65.6517 284.495 64.931 287.519 63.5117 290.231C62.1878 292.559 60.1607 294.037 58.2222 294.037H56.9553C55.0549 294.037 53.1925 292.616 51.7355 290.11C50.2165 287.406 49.4241 284.353 49.436 281.249V241.213C49.3963 239 49.9662 236.819 51.083 234.908C52.1409 233.234 53.5282 232.308 54.9852 232.308C56.4422 232.308 57.7788 233.234 58.786 234.896C59.8543 236.836 60.3919 239.024 60.3444 241.239V278.623C60.3444 281.351 59.0774 283.761 57.5824 283.761C56.3155 283.761 54.8965 281.706 54.8965 278.623V257.273C54.8965 255.903 54.2314 254.781 53.4142 254.781C52.597 254.781 51.9255 255.903 51.9255 257.273V278.598C51.9255 284.269 54.3581 288.544 57.5824 288.544C59.1535 288.544 60.6041 287.567 61.6493 285.785C62.8183 283.575 63.3925 281.098 63.3154 278.598V241.213C63.3806 237.763 62.5256 234.359 60.8385 231.35C59.2675 228.718 57.1707 227.278 54.9345 227.278C52.6984 227.278 50.6016 228.718 49.0116 231.35C47.3203 234.364 46.4671 237.776 46.541 241.232V281.262C46.541 285.848 47.7066 290.504 49.6451 293.713C51.5835 296.923 54.2061 298.787 56.892 298.787H58.1906C60.8195 298.787 63.4547 296.923 65.4185 293.662C66.4352 291.941 67.201 290.083 67.6926 288.144C68.2603 285.948 68.5455 283.689 68.5415 281.421V250.341C68.5415 248.964 67.908 247.848 67.0655 247.848L67.0908 247.911Z" fill="white"/>
<path d="M350.696 316.998C350.696 316.998 354.452 321.92 348.96 329.347C343.468 336.775 338.932 343.054 340.769 347.672C340.769 347.672 349.055 333.876 355.795 333.718C362.535 333.559 358.107 325.294 350.696 316.998Z" fill="#054DA1"/>
<path opacity="0.1" d="M350.696 316.998C351.022 317.476 351.28 317.996 351.462 318.545C358.038 326.284 361.541 333.502 355.219 333.686C349.328 333.857 342.264 344.399 340.573 347.063C340.625 347.278 340.691 347.49 340.769 347.697C340.769 347.697 349.055 333.902 355.795 333.743C362.535 333.584 358.107 325.294 350.696 316.998Z" fill="#054DA1"/>
<path d="M357.677 323.271C357.677 325.003 357.48 326.404 357.24 326.404C356.999 326.404 356.809 325.003 356.809 323.271C356.809 321.539 357.05 322.351 357.29 322.351C357.531 322.351 357.677 321.539 357.677 323.271Z" fill="#FFD037"/>
<path d="M360.071 325.339C358.557 326.163 357.233 326.664 357.119 326.455C357.005 326.246 358.139 325.402 359.653 324.552C361.167 323.702 360.572 324.33 360.686 324.552C360.8 324.774 361.591 324.508 360.071 325.339Z" fill="#FFD037"/>
<path d="M330.849 316.998C330.849 316.998 327.093 321.92 332.585 329.347C338.077 336.775 342.6 343.054 340.769 347.672C340.769 347.672 332.49 333.876 325.743 333.718C318.997 333.559 323.431 325.294 330.849 316.998Z" fill="#6C63FF"/>
<path opacity="0.1" d="M330.849 316.998C330.523 317.476 330.265 317.996 330.083 318.545C323.501 326.284 319.998 333.502 326.326 333.686C332.211 333.857 339.281 344.399 340.972 347.063C340.918 347.279 340.85 347.49 340.769 347.697C340.769 347.697 332.49 333.902 325.743 333.743C318.997 333.584 323.431 325.294 330.849 316.998Z" fill="black"/>
<path d="M323.868 323.271C323.868 325.003 324.058 326.404 324.299 326.404C324.54 326.404 324.736 325.003 324.736 323.271C324.736 321.539 324.489 322.351 324.255 322.351C324.02 322.351 323.868 321.539 323.868 323.271Z" fill="#FFD037"/>
<path d="M321.467 325.339C322.988 326.163 324.312 326.664 324.426 326.455C324.54 326.246 323.406 325.402 321.892 324.552C320.378 323.702 320.973 324.33 320.859 324.552C320.745 324.774 319.928 324.508 321.467 325.339Z" fill="#FFD037"/>
<path opacity="0.1" d="M340.769 385.298C362.46 385.298 380.044 382.597 380.044 379.266C380.044 375.934 362.46 373.234 340.769 373.234C319.078 373.234 301.494 375.934 301.494 379.266C301.494 382.597 319.078 385.298 340.769 385.298Z" fill="#6C63FF"/>
<path d="M360.99 341.044L360.8 342.579L360.534 344.748L360.426 345.649L360.16 347.824L360.046 348.725L359.786 350.894L356.777 375.568C356.511 377.769 352.919 379.488 348.58 379.488H332.965C328.626 379.488 325.04 377.769 324.768 375.568L321.759 350.894L321.493 348.725L321.385 347.824L321.119 345.649L321.005 344.748L320.745 342.579L320.555 341.044C320.403 339.775 322.348 338.741 324.806 338.741H356.745C359.203 338.741 361.142 339.794 360.99 341.044Z" fill="#444053"/>
<path d="M360.8 342.579L360.534 344.748H321.005L320.745 342.579H360.8Z" fill="#9D9CB5"/>
<path d="M360.426 345.655L360.16 347.824H321.385L321.119 345.655H360.426Z" fill="#9D9CB5"/>
<path d="M360.046 348.731L359.786 350.9H321.759L321.493 348.731H360.046Z" fill="#9D9CB5"/>
<path d="M264.411 207.063L258.361 215.112C258.311 215.187 258.239 215.246 258.156 215.281C258.073 215.316 257.981 215.326 257.892 215.309L251.64 213.812C251.522 213.767 251.419 213.69 251.342 213.589C251.266 213.488 251.22 213.367 251.209 213.241L250.094 204.951C250.061 204.729 250.113 204.502 250.24 204.317L256.277 196.28C256.503 195.958 256.612 195.568 256.587 195.174C256.562 194.781 256.403 194.408 256.138 194.117C254.994 192.975 253.469 192.297 251.855 192.214C251.767 192.205 251.678 192.205 251.589 192.214C249.904 192.341 246.293 193.591 243.506 197.517C240.801 201.323 237.97 208.338 240.478 216.178C240.776 217.123 241.112 218.373 240.111 219.698C239.11 221.024 213.22 253.315 213.22 253.315C210.794 256.087 210.971 261.212 213.22 264.193C213.698 264.874 214.327 265.435 215.058 265.831C215.789 266.227 216.602 266.448 217.433 266.477C218.241 266.462 219.033 266.239 219.731 265.829C220.429 265.419 221.009 264.836 221.417 264.136C221.417 264.136 245.578 230.012 246.756 228.458C246.914 228.198 247.133 227.98 247.393 227.822C247.653 227.664 247.947 227.571 248.251 227.551C248.669 227.572 249.071 227.72 249.404 227.976C250.689 228.854 252.212 229.317 253.768 229.301C257.379 229.301 261.174 227.081 263.492 224.011C265.883 220.925 267.273 217.18 267.477 213.279C267.557 211.15 267.06 209.04 266.039 207.171C265.971 207.018 265.864 206.886 265.728 206.788C265.592 206.691 265.433 206.632 265.266 206.618C265.1 206.604 264.932 206.635 264.782 206.707C264.631 206.78 264.503 206.892 264.411 207.031V207.063ZM218.801 260.312C218.655 260.534 218.456 260.717 218.222 260.843C217.988 260.97 217.727 261.036 217.461 261.036C217.195 261.036 216.934 260.97 216.7 260.843C216.466 260.717 216.267 260.534 216.121 260.312C215.767 259.787 215.578 259.169 215.578 258.536C215.578 257.903 215.767 257.284 216.121 256.76C216.267 256.537 216.466 256.354 216.7 256.228C216.934 256.102 217.195 256.036 217.461 256.036C217.727 256.036 217.988 256.102 218.222 256.228C218.456 256.354 218.655 256.537 218.801 256.76C219.156 257.283 219.346 257.902 219.347 258.535C219.348 259.168 219.16 259.787 218.807 260.312H218.801Z" fill="white"/>
<path d="M478.594 222.622C476.921 203.264 463.815 188.18 447.87 188.18C437.317 188.18 428.024 194.771 422.443 204.837C420.73 203.947 418.829 203.48 416.9 203.473C408.842 203.473 402.33 212.353 402.184 222.362C393.949 225.635 388.527 235.682 388.527 246.224C388.527 259.145 396.914 270.549 407.252 270.549H475.312C485.657 270.549 494.044 259.132 494.044 246.224C494.044 234.718 487.367 224.576 478.594 222.622ZM463.219 218.182L435.67 252.751C435.315 253.189 434.403 254.165 433.275 254.165C432.792 254.109 432.327 253.949 431.912 253.696C431.496 253.443 431.14 253.103 430.868 252.7L419.307 238.27C419.147 238.059 419.061 237.802 419.061 237.538C419.061 237.273 419.147 237.016 419.307 236.805L422.975 232.225C423.041 232.133 423.127 232.057 423.227 232.003C423.327 231.949 423.438 231.919 423.551 231.915C423.665 231.918 423.776 231.948 423.876 232.002C423.976 232.056 424.062 232.132 424.128 232.225L433.281 243.643L458.417 212.011C458.484 211.919 458.571 211.844 458.671 211.79C458.77 211.736 458.881 211.705 458.994 211.7C459.108 211.7 459.22 211.729 459.321 211.783C459.421 211.837 459.507 211.915 459.57 212.011L463.175 216.673C463.351 216.878 463.452 217.139 463.46 217.41C463.468 217.681 463.383 217.947 463.219 218.163V218.182Z" fill="white"/>
<path d="M645.431 253.277C648.891 253.277 651.696 249.532 651.696 244.911C651.696 240.291 648.891 236.545 645.431 236.545C641.971 236.545 639.166 240.291 639.166 244.911C639.166 249.532 641.971 253.277 645.431 253.277Z" fill="white"/>
<path d="M645.431 256.506C644.74 256.503 644.054 256.391 643.397 256.176L637.215 264.593C637.163 264.664 637.134 264.749 637.134 264.837C637.134 264.925 637.163 265.011 637.215 265.081L647.04 279.036C647.364 279.508 647.538 280.067 647.538 280.641C647.538 281.214 647.364 281.773 647.04 282.245C646.901 282.436 646.72 282.592 646.511 282.702C646.303 282.812 646.072 282.873 645.836 282.88C645.601 282.873 645.371 282.813 645.163 282.703C644.956 282.593 644.776 282.436 644.639 282.245L634.852 268.291C634.831 268.26 634.803 268.234 634.77 268.216C634.736 268.198 634.699 268.189 634.662 268.189C634.624 268.189 634.587 268.198 634.554 268.216C634.521 268.234 634.492 268.26 634.472 268.291L632.083 271.538C630.088 274.241 627.44 273.835 624.589 273.854C621.739 273.873 618.971 272.249 616.943 269.509L614.65 266.388C614.629 266.357 614.601 266.331 614.568 266.313C614.535 266.295 614.498 266.286 614.46 266.286C614.423 266.286 614.386 266.295 614.352 266.313C614.319 266.331 614.291 266.357 614.27 266.388L604.483 280.342C604.344 280.533 604.163 280.689 603.955 280.799C603.746 280.909 603.515 280.97 603.279 280.977C603.045 280.97 602.814 280.91 602.607 280.8C602.399 280.69 602.22 280.533 602.082 280.342C601.758 279.87 601.584 279.311 601.584 278.738C601.584 278.165 601.758 277.605 602.082 277.133L611.907 263.179C611.951 263.105 611.974 263.02 611.974 262.934C611.974 262.849 611.951 262.764 611.907 262.69L597.851 243.585C597.68 243.357 597.407 243.516 597.407 243.826V282.061C597.407 285.131 599.308 287.643 601.582 287.643L647.521 289.546C649.821 289.546 651.696 287.009 651.696 283.964V252.928C650.118 255.129 647.901 256.506 645.431 256.506Z" fill="white"/>
<path d="M636.752 244.911C636.745 242.999 637.108 241.103 637.823 239.329L601.569 237.426C601.077 237.439 600.593 237.554 600.148 237.765C599.702 237.976 599.306 238.277 598.985 238.651L619.465 266.496C620.024 267.347 620.779 268.05 621.666 268.547C622.554 269.044 623.548 269.319 624.564 269.35C626.465 269.35 628.314 270.245 629.67 268.399L640.173 254.115C638.089 251.99 636.752 248.66 636.752 244.911Z" fill="white"/>
<path d="M687.861 345.198C687.861 345.198 680.455 344.754 681.33 349.943C681.282 350.204 681.317 350.474 681.431 350.714C681.545 350.954 681.731 351.152 681.963 351.281C681.963 351.281 681.963 350.894 682.723 351.027C682.989 351.07 683.259 351.083 683.528 351.065C683.89 351.037 684.233 350.895 684.51 350.659C684.51 350.659 686.587 349.797 687.398 346.391C687.398 346.391 688 345.649 687.975 345.458L686.708 345.991C686.946 346.512 686.978 347.104 686.796 347.647C686.796 347.647 686.758 346.023 686.518 346.061C686.467 346.061 685.884 346.378 685.884 346.378C685.884 346.378 686.619 347.945 686.068 349.086C686.068 349.086 686.277 347.184 685.656 346.492L684.776 347.006C684.776 347.006 685.637 348.623 685.054 349.949C685.054 349.949 685.206 347.919 684.592 347.126L683.794 347.761C683.794 347.761 684.605 349.366 684.11 350.463C684.11 350.463 684.047 348.097 683.623 347.926C683.32 348.182 683.05 348.473 682.818 348.795C682.818 348.795 683.369 349.955 683.027 350.564C683.027 350.564 682.818 348.991 682.647 348.985C682.284 349.517 682.024 350.113 681.881 350.742C681.916 350.081 682.124 349.44 682.482 348.883C682.081 348.959 681.711 349.151 681.418 349.435C681.418 349.435 681.526 348.7 682.685 348.63C682.894 348.324 683.136 348.044 683.407 347.792C682.8 347.74 682.188 347.811 681.608 348.002C681.608 348.002 682.242 347.304 683.616 347.621L684.402 346.987C683.705 346.873 682.995 346.873 682.299 346.987C682.299 346.987 683.021 346.353 684.611 346.822L685.472 346.308C684.813 346.163 684.139 346.103 683.464 346.131C684.194 345.857 685 345.871 685.719 346.169L686.353 345.896C686.353 345.896 685.428 345.712 685.162 345.687C684.896 345.661 684.877 345.579 684.877 345.579C685.46 345.483 686.059 345.551 686.606 345.775C687.04 345.62 687.46 345.427 687.861 345.198Z" fill="#054DA1"/>
<path opacity="0.1" d="M682.761 352.619C685.655 352.619 688 352.222 688 351.731C688 351.241 685.655 350.843 682.761 350.843C679.868 350.843 677.522 351.241 677.522 351.731C677.522 352.222 679.868 352.619 682.761 352.619Z" fill="#054DA1"/>
<path d="M573.811 345.414C573.811 345.414 564.879 344.875 565.93 351.122C565.876 351.44 565.923 351.767 566.065 352.057C566.207 352.346 566.437 352.583 566.722 352.734C566.722 352.734 566.722 352.271 567.641 352.429C567.961 352.484 568.286 352.498 568.61 352.474C569.049 352.445 569.468 352.274 569.801 351.985C569.801 351.985 572.335 350.945 573.285 346.835C573.285 346.835 574.013 345.94 573.982 345.706L572.474 346.34C572.762 346.966 572.8 347.678 572.582 348.332C572.582 348.332 572.537 346.378 572.246 346.429C572.189 346.429 571.46 346.803 571.46 346.803C571.46 346.803 572.347 348.706 571.682 350.082C571.682 350.082 571.936 347.742 571.182 346.911L570.124 347.545C570.124 347.545 571.156 349.505 570.46 351.11C570.46 351.11 570.637 348.655 569.902 347.697L568.939 348.452C568.939 348.452 569.915 350.355 569.319 351.706C569.319 351.706 569.243 348.852 568.73 348.636C568.365 348.944 568.04 349.295 567.761 349.683C567.761 349.683 568.394 351.084 568.014 351.827C568.014 351.827 567.761 349.924 567.552 349.924C567.116 350.569 566.802 351.289 566.627 352.049C566.669 351.25 566.918 350.476 567.349 349.803C566.875 349.89 566.436 350.11 566.082 350.437C566.082 350.437 566.215 349.543 567.577 349.467C567.829 349.096 568.122 348.756 568.451 348.452C567.718 348.389 566.978 348.475 566.279 348.706C566.279 348.706 567.001 347.862 568.699 348.243L569.649 347.469C568.81 347.333 567.954 347.333 567.115 347.469C567.115 347.469 567.983 346.727 569.908 347.266L570.941 346.632C570.145 346.456 569.329 346.385 568.515 346.422C568.515 346.422 569.471 345.902 571.245 346.46L571.98 346.131C571.98 346.131 570.871 345.915 570.542 345.877C570.212 345.839 570.2 345.75 570.2 345.75C570.905 345.634 571.628 345.715 572.29 345.985C572.813 345.841 573.322 345.65 573.811 345.414Z" fill="#054DA2"/>
<path opacity="0.1" d="M567.66 354.376C571.151 354.376 573.982 353.896 573.982 353.304C573.982 352.712 571.151 352.233 567.66 352.233C564.168 352.233 561.338 352.712 561.338 353.304C561.338 353.896 564.168 354.376 567.66 354.376Z" fill="#054DA1"/>
<path d="M517.774 282.886C517.774 282.886 518.502 282.182 518.262 281.706C518.191 281.559 518.155 281.397 518.155 281.234C518.155 281.07 518.191 280.909 518.262 280.761C518.262 280.761 516.627 274.329 516.019 273.682C515.62 273.211 515.313 272.669 515.113 272.084C515.177 271.958 515.207 271.819 515.202 271.678C515.175 271.03 514.954 270.404 514.568 269.883C514.093 269.18 513.831 268.353 513.815 267.504C513.808 267.399 513.808 267.293 513.815 267.187C513.633 266.71 513.339 266.284 512.957 265.945C512.575 265.606 512.118 265.364 511.623 265.24C511.832 263.876 512.117 262.513 512.206 261.142C512.491 256.848 510.894 252.681 509.323 248.66C508.98 247.663 508.519 246.711 507.949 245.824C507.246 244.898 506.356 244.131 505.336 243.573C504.316 243.016 503.19 242.68 502.032 242.59C501.18 242.483 500.314 242.567 499.498 242.837C498.693 243.199 497.954 243.694 497.313 244.302C496.635 244.873 495.957 245.457 495.33 246.078L495.254 246.154L495.032 246.389L494.944 246.478L494.734 246.712L494.658 246.795C494.57 246.903 494.475 247.011 494.386 247.125C494.304 247.233 494.221 247.334 494.145 247.442L494.069 247.55L493.905 247.784L493.829 247.905C493.772 247.987 493.727 248.07 493.677 248.152L493.607 248.266C493.544 248.387 493.474 248.507 493.41 248.634L493.182 249.142V249.212L493.049 249.548C492.878 249.954 492.714 250.36 492.505 250.746L492.467 250.81L492.011 251.362C491.802 251.636 491.628 251.934 491.491 252.25L491.447 252.351C491.447 252.396 491.415 252.446 491.396 252.491L491.352 252.605C491.34 252.654 491.325 252.703 491.307 252.751C491.307 252.789 491.307 252.827 491.307 252.871L491.269 253.011C491.269 253.055 491.269 253.093 491.269 253.138C491.269 253.182 491.269 253.233 491.238 253.277V253.411V253.55C491.238 253.601 491.238 253.652 491.238 253.709C491.238 253.766 491.238 253.785 491.238 253.816C491.238 253.848 491.238 253.994 491.238 254.083C491.238 254.172 491.238 254.153 491.238 254.191C491.235 254.248 491.235 254.305 491.238 254.362C491.235 254.4 491.235 254.438 491.238 254.476C491.235 254.529 491.235 254.582 491.238 254.635V254.749C491.238 254.806 491.238 254.857 491.238 254.907C491.235 254.945 491.235 254.984 491.238 255.022L491.276 255.187C491.276 255.187 491.276 255.256 491.276 255.288L491.333 255.466C491.333 255.466 491.333 255.523 491.364 255.548C491.396 255.573 491.428 255.726 491.466 255.808C491.66 256.233 491.898 256.637 492.175 257.013C492.359 257.267 492.549 257.514 492.739 257.768L493.011 258.149C493.196 258.401 493.363 258.666 493.512 258.942C493.957 259.791 494.172 260.743 494.138 261.701C494.104 262.66 493.82 263.593 493.315 264.409L493.087 264.758C492.962 264.951 492.874 265.166 492.828 265.392C492.805 265.588 492.826 265.787 492.889 265.974C492.951 266.162 493.053 266.333 493.189 266.477L492.625 266.623C492.163 266.75 491.846 266.851 491.846 266.851C491.462 266.817 491.076 266.817 490.693 266.851C490.16 267.019 489.682 267.326 489.306 267.739C489.306 267.739 486.886 268.031 486.094 267.327C485.302 266.623 482.527 266.382 482.527 266.382C482.527 266.382 481.742 264.847 480.893 264.371C480.044 263.895 477.992 263.014 477.928 262.544C477.752 262.047 477.486 261.587 477.143 261.187C476.726 261.097 476.302 261.046 475.876 261.035L475.743 260.806L474.052 257.882C474.052 257.882 471.93 255.402 470.783 255.167C469.636 254.933 472.398 257.8 472.531 257.933C472.14 257.653 471.653 257.539 471.178 257.618C470.703 257.696 470.278 257.96 469.997 258.352C469.098 259.354 471.486 261.707 472.968 263.007L473.209 263.217C473.22 263.347 473.239 263.476 473.266 263.604C473.931 267.086 477.618 270.099 477.618 270.099C477.618 270.099 478.043 272.046 479.436 272.522C480.545 272.896 486.499 275.598 489.603 276.137C489.344 276.809 489.04 278.37 490.325 280.666C490.325 280.666 490.63 284.738 489.964 285.271C489.299 285.804 489.331 291.702 489.331 291.702C489.331 291.702 486.797 301.972 489.331 304.153C489.492 304.292 489.673 304.403 489.869 304.483C489.869 304.642 489.914 304.807 489.933 304.978C490.047 306.006 490.085 307.071 489.812 307.515C489.179 308.517 490.021 311.232 490.021 311.232C490.021 311.232 487.576 325.104 488.666 330.001C489.354 333.66 489.676 337.378 489.629 341.101C489.629 341.101 489.268 345.408 491.143 348.008C491.349 348.623 491.47 349.263 491.504 349.911C491.627 351.155 491.954 352.37 492.473 353.507C492.897 354.332 493.74 357.821 493.018 358.759C492.296 359.698 493.803 369.98 493.803 369.98C493.803 369.98 492.593 373.151 493.803 374.819L493.841 374.864C493.124 374.855 492.41 374.753 491.719 374.559C490.364 374.103 491.377 375.828 492.986 377.008C492.283 378.606 491.32 380.75 490.997 381.448C489.597 381.689 486.822 382.082 485.194 381.695C482.958 381.169 486.164 384.765 489.185 385.418C491.319 385.817 493.491 385.975 495.659 385.888L497.61 383.731C499.187 383.943 500.78 384.003 502.368 383.909L502.197 385.913H503.343V383.833C504.065 383.763 504.813 383.668 505.586 383.528C505.586 383.528 505.63 381.334 505.491 379.259L506.194 379.323L506.302 378.175L508.791 378.625L511.027 360.231C511.027 360.231 511.274 353.387 511.819 349.549C512.364 345.712 510.666 332.842 510.666 332.842C510.666 332.842 510.546 332.208 510.425 331.016C510.305 329.823 510.425 322.865 510.425 322.865C510.425 322.865 511.331 319.059 511.154 318.736C510.977 318.412 511.211 316.789 511.211 316.789C515.012 309.031 510.337 302.022 508.709 299.942C508.803 299.854 508.859 299.734 508.867 299.606C508.877 299.562 508.877 299.516 508.867 299.472C508.611 298.816 508.306 298.18 507.955 297.57L508.905 296.358C509.235 296.834 509.469 297.189 509.469 297.189C509.469 297.189 510.495 294.887 511.528 294.018C512.56 293.149 517.514 284.871 517.514 284.871C517.514 284.871 518.667 284.097 518.059 283.45C517.451 282.803 517.774 282.886 517.774 282.886ZM502.532 348.167C502.451 347.899 502.303 347.657 502.102 347.463C502.102 347.463 501.924 346.194 501.861 344.564C502.222 345.833 502.589 346.752 502.589 346.752L502.532 348.167ZM505.383 378.34C505.383 378.226 505.383 378.111 505.383 378.004H505.472L505.383 378.34ZM506.131 294.373V294.297C506.117 294.134 506.146 293.971 506.215 293.823C506.284 293.675 506.39 293.547 506.523 293.453C506.593 293.41 506.649 293.349 506.686 293.276C506.723 293.204 506.739 293.122 506.732 293.041C506.703 292.774 506.602 292.52 506.441 292.305C506.561 292.394 506.935 292.597 507.188 291.861C507.226 291.746 507.246 291.626 507.245 291.506C507.185 290.891 506.935 290.31 506.53 289.844L509.266 284.072C509.566 284.161 509.87 284.231 510.178 284.281C509.463 286.501 508.874 289.146 508.874 289.146L506.758 293.808C506.901 293.864 507.028 293.956 507.125 294.075L506.131 294.373Z" fill="url(#paint0_linear)"/>
<path d="M497.027 374.718C497.027 374.718 493.474 375.156 491.744 374.559C490.015 373.963 492.276 377.097 494.614 377.864C496.264 378.349 497.965 378.638 499.682 378.727L502.425 376.139L505.339 376.367L504.832 379.228L505.738 379.31L506.086 375.568L497.027 374.718Z" fill="#444053"/>
<path opacity="0.1" d="M497.027 374.718C497.027 374.718 493.474 375.156 491.744 374.559C490.015 373.963 492.276 377.097 494.614 377.864C496.264 378.349 497.965 378.638 499.682 378.727L502.425 376.139L505.339 376.367L504.832 379.228L505.738 379.31L506.086 375.568L497.027 374.718Z" fill="black"/>
<path d="M491.896 381.257C491.896 381.257 487.627 382.19 485.467 381.663C483.307 381.137 486.404 384.708 489.325 385.349C491.383 385.748 493.482 385.905 495.577 385.818L498.618 382.367L502.178 382.31L501.886 385.843H503.001V381.257H491.896Z" fill="#444053"/>
<path opacity="0.1" d="M491.896 381.257C491.896 381.257 487.627 382.19 485.467 381.663C483.307 381.137 486.404 384.708 489.325 385.349C491.383 385.748 493.482 385.905 495.577 385.818L498.618 382.367L502.178 382.31L501.886 385.843H503.001V381.257H491.896Z" fill="black"/>
<path d="M507.67 299.986C507.67 299.986 514.974 308.118 510.597 317.302C510.597 317.302 510.362 318.945 510.533 319.237C510.704 319.529 509.836 323.334 509.836 323.334C509.836 323.334 509.716 330.235 509.836 331.409C509.957 332.582 510.071 333.217 510.071 333.217C510.071 333.217 511.705 345.972 511.179 349.778C510.654 353.584 510.419 360.37 510.419 360.37L508.259 378.625L497.04 376.519L502.108 351.471L502.285 347.031C502.285 347.031 500.182 341.596 501.113 338.843C502.045 336.09 500.879 301.046 500.879 301.046L507.67 299.986Z" fill="#444053"/>
<path opacity="0.02" d="M507.67 299.986C507.67 299.986 514.974 308.118 510.597 317.302C510.597 317.302 510.362 318.945 510.533 319.237C510.704 319.529 509.836 323.334 509.836 323.334C509.836 323.334 509.716 330.235 509.836 331.409C509.957 332.582 510.071 333.217 510.071 333.217C510.071 333.217 511.705 345.972 511.179 349.778C510.654 353.584 510.419 360.37 510.419 360.37L508.259 378.625L497.04 376.519L502.108 351.471L502.285 347.031C502.285 347.031 500.182 341.596 501.113 338.843C502.045 336.09 500.879 301.046 500.879 301.046L507.67 299.986Z" fill="black"/>
<path d="M502.298 339.306C501.031 341.76 501.829 347.729 501.829 347.729C503.521 349.194 502.589 361.95 502.589 361.95C502.589 361.95 503.755 374.528 504.49 375.993C505.225 377.458 505.123 383.477 505.123 383.477C496.533 385.057 490.921 381.663 490.921 381.663C490.921 381.663 493.67 375.403 493.727 375.111C493.759 374.946 494.126 375.39 494.234 375.524L493.727 374.819C492.555 373.183 493.727 370.024 493.727 370.024C493.727 370.024 492.264 359.876 492.967 358.905C493.67 357.935 492.853 354.516 492.441 353.698C491.938 352.566 491.621 351.36 491.504 350.127C491.47 349.49 491.353 348.861 491.155 348.256C489.344 345.68 489.692 341.412 489.692 341.412C489.74 337.724 489.429 334.04 488.761 330.413C487.709 325.554 490.072 311.803 490.072 311.803C490.072 311.803 489.287 309.114 489.869 308.118C490.135 307.674 490.097 306.621 489.983 305.581C489.844 304.312 489.578 303.132 489.578 303.132L505.535 300.316C505.871 300.874 506.169 301.413 506.46 301.933C511.737 311.695 508.177 315.317 508.177 315.317L504.788 325.732C504.788 325.732 503.584 336.845 502.298 339.306Z" fill="#444053"/>
<path d="M477.029 262.95L474.748 264.853C474.748 264.853 474.299 264.498 473.703 263.959C472.272 262.69 469.966 260.337 470.834 259.347C470.964 259.156 471.132 258.994 471.327 258.869C471.522 258.744 471.741 258.66 471.969 258.621C472.197 258.583 472.431 258.591 472.656 258.645C472.881 258.699 473.093 258.797 473.279 258.935C473.152 258.796 470.504 255.96 471.594 256.189C472.683 256.417 474.761 258.878 474.761 258.878L476.395 261.777L477.029 262.95Z" fill="#88550A"/>
<path d="M507.556 294.55L504.87 295.369L506.91 298.933L509.247 295.895L507.556 294.55Z" fill="#EFB7B9"/>
<path d="M501.246 261.022C505.473 261.022 508.899 257.592 508.899 253.36C508.899 249.128 505.473 245.698 501.246 245.698C497.02 245.698 493.594 249.128 493.594 253.36C493.594 257.592 497.02 261.022 501.246 261.022Z" fill="#EFB7B9"/>
<path d="M496.742 256.157C496.742 256.157 503.711 267.213 497.097 268.151C490.484 269.09 505.966 275.814 505.966 275.814L511.749 269.965C511.749 269.965 505.731 259.55 506.682 255.573C507.632 251.596 496.742 256.157 496.742 256.157Z" fill="#EFB7B9"/>
<path opacity="0.1" d="M506.479 301.934C504.937 302.405 503.364 302.772 501.772 303.031C501.772 303.031 493.157 306.837 490.021 305.568C489.882 304.299 489.616 303.12 489.616 303.12L505.535 300.316C505.89 300.874 506.2 301.413 506.479 301.934Z" fill="black"/>
<path d="M514.404 273.01L512.845 276.239L511.091 279.867L510.837 280.387L508.753 284.897L506.105 290.605C506.105 290.605 507.043 291.715 506.739 292.597C506.435 293.478 506.036 293.06 505.985 293.009C506.029 293.079 506.618 293.84 506.093 294.176C505.938 294.311 505.823 294.486 505.761 294.682C505.7 294.878 505.694 295.087 505.744 295.286C505.744 295.286 507.904 298.857 508.316 300.145C508.728 301.432 501.772 302.542 501.772 302.542C501.772 302.542 491.896 306.932 489.439 304.762C486.981 302.593 489.439 292.419 489.439 292.419C489.439 292.419 489.439 286.571 490.072 286.045C490.706 285.518 490.42 281.478 490.42 281.478C488.729 278.376 489.895 276.619 489.895 276.619L489.426 268.665C489.426 268.665 490.186 267.847 490.769 267.79C491.14 267.752 491.513 267.752 491.884 267.79C491.884 267.79 492.188 267.682 492.638 267.561C493.575 267.295 495.127 266.927 495.678 267.2C496.495 267.612 501.76 266.566 501.76 266.566C504.025 266.233 506.307 266.022 508.595 265.931C509.376 265.885 510.16 265.971 510.913 266.185C511.421 266.3 511.892 266.54 512.283 266.885C512.674 267.23 512.972 267.667 513.149 268.158C513.062 269.109 513.311 270.061 513.853 270.847C514.803 272.369 514.404 273.01 514.404 273.01Z" fill="#FF6484"/>
<path opacity="0.1" d="M477.029 262.95L474.748 264.853C474.748 264.853 474.299 264.498 473.703 263.959C473.519 261.986 475.198 261.726 476.383 261.777L477.029 262.95Z" fill="black"/>
<path d="M490.433 268.627L489.439 268.684C489.439 268.684 487.101 268.976 486.341 268.272C485.581 267.568 482.895 267.339 482.895 267.339C482.895 267.339 482.135 265.817 481.318 265.348C480.5 264.878 478.511 264.003 478.454 263.534C478.286 263.043 478.028 262.587 477.694 262.189C477.694 262.189 473.31 261.136 473.957 264.587C474.603 268.037 478.163 271.025 478.163 271.025C478.163 271.025 478.575 272.928 479.918 273.422C481.261 273.917 489.964 277.989 491.371 276.936C492.777 275.883 490.433 268.627 490.433 268.627Z" fill="#FF6484"/>
<path opacity="0.1" d="M513.865 270.828C513.324 270.042 513.075 269.09 513.162 268.139C512.985 267.648 512.687 267.211 512.296 266.866C511.905 266.521 511.434 266.281 510.926 266.166C510.556 266.056 510.176 265.981 509.792 265.944C510.293 266.062 510.757 266.303 511.141 266.645C511.526 266.987 511.82 267.42 511.996 267.904C511.905 268.856 512.154 269.809 512.7 270.593C513.631 272.116 513.225 272.763 513.225 272.763L511.667 275.985L509.906 279.626L509.659 280.146L507.575 284.656L504.927 290.364C504.927 290.364 505.858 291.474 505.56 292.356C505.263 293.237 504.864 292.819 504.807 292.768C504.857 292.838 505.44 293.599 504.921 293.935C504.766 294.07 504.651 294.245 504.588 294.44C504.526 294.636 504.518 294.845 504.566 295.045C504.566 295.045 506.732 298.616 507.138 299.904C507.543 301.191 500.594 302.301 500.594 302.301C500.594 302.301 493.733 305.346 490.028 305.111C493.195 306.348 501.766 302.536 501.766 302.536C501.766 302.536 508.734 301.426 508.31 300.139C507.885 298.851 505.738 295.28 505.738 295.28C505.688 295.081 505.694 294.871 505.755 294.675C505.817 294.48 505.931 294.304 506.086 294.17C506.593 293.834 506.023 293.073 505.978 293.003C506.029 293.054 506.46 293.409 506.732 292.59C507.005 291.772 506.099 290.599 506.099 290.599L508.747 284.89L510.831 280.38L511.084 279.86L512.839 276.232L514.397 273.004C514.397 273.004 514.803 272.35 513.865 270.828Z" fill="black"/>
<path d="M513.339 272.135L514.391 273.01C514.582 273.59 514.881 274.128 515.271 274.596C515.854 275.23 517.432 281.611 517.432 281.611C517.365 281.758 517.33 281.918 517.33 282.08C517.33 282.242 517.365 282.402 517.432 282.55C517.666 283.019 516.963 283.723 516.963 283.723C516.963 283.723 516.614 283.603 517.197 284.25C517.78 284.897 516.671 285.651 516.671 285.651C516.671 285.651 511.882 293.84 510.888 294.722C509.893 295.603 508.899 297.893 508.899 297.893C508.899 297.893 506.821 294.62 506.327 294.557L508.373 289.933C508.373 289.933 509.773 283.501 510.825 282.321C511.876 281.142 510.299 277.114 510.299 277.114L513.339 272.135Z" fill="#FF6484"/>
<path opacity="0.1" d="M514.011 284.066C513.137 285.119 511.591 285.334 510.21 285.188C510.007 285.188 509.811 285.138 509.608 285.1C509.311 285.042 509.013 284.973 508.721 284.89C507.678 284.589 506.696 284.106 505.82 283.463C505.637 283.297 505.421 283.169 505.187 283.089C504.908 283.056 504.627 283.11 504.38 283.242C504.133 283.375 503.932 283.581 503.806 283.831C503.508 284.307 503.369 284.865 503.065 285.341C502.733 285.788 502.3 286.149 501.801 286.394C501.302 286.639 500.751 286.761 500.195 286.749C499.082 286.718 497.982 286.503 496.939 286.114C497.872 285.118 498.584 283.936 499.029 282.645C499.22 281.788 499.276 280.906 499.194 280.032C498.941 275.89 497.503 271.526 494.126 269.115C493.543 268.697 492.859 268.202 492.644 267.574C493.581 267.308 495.133 266.94 495.685 267.213C496.502 267.625 501.766 266.578 501.766 266.578C504.032 266.246 506.313 266.034 508.601 265.944C509.383 265.898 510.167 265.983 510.92 266.198C510.541 267.918 510.476 269.693 510.73 271.437C510.97 272.513 511.358 273.55 511.883 274.52C512.187 275.097 512.516 275.674 512.826 276.251C513.72 277.85 514.568 279.454 514.727 281.256C514.862 282.25 514.605 283.258 514.011 284.066Z" fill="black"/>
<path opacity="0.1" d="M502.456 292.311C502.902 292.193 503.365 292.152 503.825 292.191C504.209 292.306 504.561 292.51 504.851 292.787H501.848C501.075 292.787 499.91 292.832 499.314 292.286C499.834 291.76 501.696 292.4 502.456 292.311Z" fill="black"/>
<path d="M492.048 252.459C491.592 253.087 491.305 253.821 491.214 254.592C491.123 255.363 491.232 256.144 491.529 256.861C492.01 257.996 492.935 258.878 493.505 259.969C493.934 260.815 494.142 261.757 494.108 262.705C494.075 263.654 493.802 264.578 493.315 265.392C493.093 265.679 492.933 266.01 492.847 266.363C492.707 267.257 493.632 267.898 494.367 268.418C497.737 270.828 499.175 275.192 499.435 279.334C499.522 280.208 499.468 281.09 499.276 281.947C498.833 283.239 498.12 284.422 497.186 285.417C498.23 285.803 499.329 286.017 500.442 286.051C500.998 286.06 501.548 285.937 502.047 285.691C502.546 285.445 502.98 285.083 503.312 284.637C503.616 284.167 503.755 283.609 504.053 283.127C504.179 282.876 504.379 282.67 504.626 282.537C504.873 282.404 505.155 282.351 505.434 282.385C505.667 282.467 505.882 282.594 506.067 282.759C507.355 283.707 508.869 284.302 510.457 284.484C511.819 284.643 513.365 284.415 514.258 283.362C514.854 282.547 515.11 281.533 514.974 280.533C514.67 276.987 511.673 274.19 510.983 270.714C510.419 267.891 511.433 265.005 511.616 262.138C511.895 257.889 510.349 253.747 508.835 249.77C508.5 248.784 508.053 247.839 507.505 246.953C506.836 246.048 505.981 245.297 504.998 244.749C504.014 244.202 502.925 243.873 501.804 243.782C500.974 243.672 500.131 243.757 499.34 244.029C498.557 244.388 497.842 244.877 497.224 245.476C495.78 246.744 494.291 248.013 493.423 249.776C493.081 250.486 492.859 251.248 492.479 251.933" fill="#925978"/>
<g opacity="0.1">
<path opacity="0.1" d="M493.429 250.911C493.803 250.22 494.063 249.459 494.367 248.755C494.695 248.096 495.103 247.48 495.583 246.922C494.709 247.733 493.983 248.69 493.436 249.751C493.106 250.442 492.885 251.178 492.524 251.85L492.986 251.457C492.868 251.619 492.76 251.789 492.663 251.964C492.959 251.645 493.217 251.292 493.429 250.911Z" fill="black"/>
<path opacity="0.1" d="M511.401 283.495C509.812 283.309 508.299 282.712 507.011 281.763C506.823 281.603 506.609 281.476 506.377 281.389C506.099 281.359 505.818 281.415 505.571 281.549C505.325 281.682 505.124 281.888 504.996 282.137C504.935 282.238 504.88 282.341 504.832 282.448C505.031 282.358 505.254 282.338 505.465 282.391C505.699 282.473 505.914 282.601 506.099 282.765C507.387 283.714 508.9 284.308 510.489 284.491C511.851 284.649 513.396 284.421 514.29 283.368C514.402 283.233 514.499 283.086 514.581 282.93C513.616 283.474 512.494 283.673 511.401 283.495Z" fill="black"/>
<path opacity="0.1" d="M501.361 285.055C500.25 285.021 499.153 284.807 498.111 284.421C499.041 283.421 499.752 282.237 500.195 280.945C500.389 280.09 500.445 279.21 500.36 278.338C500.106 274.196 498.675 269.826 495.292 267.422C494.557 266.895 493.639 266.255 493.772 265.361C493.866 265.009 494.027 264.68 494.247 264.39C494.734 263.577 495.006 262.654 495.04 261.706C495.073 260.759 494.865 259.818 494.437 258.973C493.867 257.882 492.942 256.994 492.454 255.865C492.198 255.24 492.083 254.567 492.118 253.892C492.153 253.218 492.337 252.559 492.657 251.964C492.495 252.135 492.324 252.296 492.144 252.446C492.013 252.628 491.871 252.802 491.719 252.967C491.399 253.56 491.216 254.218 491.182 254.892C491.148 255.565 491.264 256.238 491.523 256.861C492.004 257.996 492.929 258.878 493.499 259.969C493.928 260.815 494.135 261.757 494.102 262.705C494.069 263.654 493.796 264.578 493.309 265.392C493.087 265.679 492.927 266.01 492.84 266.363C492.701 267.257 493.626 267.898 494.361 268.418C497.731 270.828 499.169 275.192 499.428 279.334C499.516 280.208 499.462 281.09 499.27 281.947C498.827 283.239 498.114 284.422 497.18 285.417C498.224 285.803 499.323 286.017 500.436 286.051C500.992 286.06 501.542 285.937 502.041 285.691C502.54 285.445 502.973 285.083 503.305 284.637C503.343 284.573 503.381 284.51 503.413 284.446C502.797 284.833 502.087 285.044 501.361 285.055Z" fill="black"/>
</g>
<path d="M45.0018 360.637C43.6881 360.466 42.4288 360.004 41.315 359.286L41.201 359.203C41.2924 359.071 41.357 358.923 41.3911 358.766C41.2346 358.464 41.1521 358.129 41.1503 357.789C41.1552 357.466 41.0903 357.146 40.9603 356.85V355.264C40.5854 354.734 40.3981 354.093 40.4282 353.444C40.3838 352.131 40.3332 345.687 40.3332 345.687C40.2598 345.349 40.2448 345.002 40.2888 344.659C40.3332 343.911 40.3332 343.632 40.3332 343.632C40.1768 343.197 40.1289 342.731 40.1938 342.274C40.2344 341.842 40.1124 341.41 39.8517 341.063L40.5739 337.511C40.5739 337.511 40.973 325.256 39.8074 321.558C39.8074 321.558 39.8074 321.558 39.8074 321.514C39.9024 319.135 38.4581 315.171 39.2753 312.406C40.0924 309.64 40.1938 309.044 40.1938 309.044C40.1938 309.044 36.583 299.98 35.6708 297.83C35.1461 296.436 34.5106 295.087 33.7704 293.796C33.7113 293.715 33.6543 293.639 33.5994 293.567L33.5043 293.453C33.7029 293.126 33.8222 292.757 33.8527 292.375C33.9034 291.741 33.8084 290.941 34.2962 290.472C34.482 290.321 34.6813 290.187 34.8916 290.072C35.263 289.829 35.5585 289.485 35.7444 289.082C35.9304 288.678 35.9992 288.23 35.9432 287.789C35.8017 287.093 35.4706 286.45 34.9867 285.93C35.0399 285.62 35.0674 285.306 35.069 284.992C35.0676 284.278 34.9201 283.572 34.6358 282.917C34.3514 282.263 33.9362 281.674 33.4157 281.186V280.894C33.423 280.247 33.2207 279.615 32.8392 279.093L32.9722 279.188L32.7442 278.991C32.6339 278.877 32.5081 278.779 32.3704 278.7C31.2985 277.967 30.0458 277.544 28.7496 277.477C27.4535 277.409 26.1639 277.701 25.0222 278.319C24.4502 278.621 23.9592 279.056 23.5905 279.588C22.8367 280.755 23.0267 282.258 22.634 283.584C22.2412 284.909 21.367 285.886 20.6259 286.99C19.8847 288.093 19.2702 289.4 19.549 290.688C19.7517 291.626 20.4105 292.464 20.3978 293.415C20.3668 293.92 20.1593 294.397 19.8118 294.763C19.4643 295.13 18.9989 295.362 18.4974 295.419H18.2123C19.1544 295.99 20.2181 296.329 21.3164 296.409C21.3164 296.498 21.2657 296.58 21.2467 296.669C20.3852 300.018 19.5933 304.28 19.5933 304.28C19.5933 304.28 20.1254 308.581 19.0169 311.943C17.9083 315.304 18.054 322.224 18.054 322.224C18.054 322.224 21.1326 320.632 21.329 321.66C21.5254 322.687 21.329 322.967 21.329 322.967C21.7738 323.202 22.2306 323.413 22.6973 323.601V324.013L22.558 325.853C22.5087 326.233 22.568 326.62 22.729 326.969C22.9951 327.483 22.729 328.872 22.729 328.872C22.729 328.872 22.5009 329.011 22.729 329.671C22.8302 330.205 22.7684 330.758 22.5516 331.257C22.5516 331.257 22.2792 334.758 22.2286 335.506C22.0052 336.486 21.6826 337.44 21.2657 338.354C21.2657 338.354 22.0892 339.382 21.2657 339.528C20.4422 339.674 20.3535 340.923 20.3535 340.923C20.3535 340.923 19.3906 341.722 19.3906 342.001C16.481 345.242 14.5923 349.272 13.9618 353.584C13.9618 353.584 12.9482 354.516 13.0939 355.404C13.1763 355.905 13.0116 356.076 12.8532 356.133C13.0306 356.133 13.2269 356.273 13.1382 356.711C12.9989 357.459 12.6125 359.045 12.6125 359.045H12.6821C11.8903 359.958 10.7437 361.487 10.5664 362.85V363.015L10.1229 363.986L13.9238 365.667L14.2595 365.153C14.2595 365.153 15.9445 367.056 17.8703 367.487C18.2012 367.56 18.5387 367.598 18.8775 367.601C19.95 367.578 21.0098 367.364 22.0068 366.967C22.0068 366.967 23.4005 365.242 19.7897 364.912C19.7897 364.912 17.6739 362.483 17.8893 361.455C17.9571 361.022 18.0015 360.586 18.0223 360.148C18.0223 360.053 18.0223 359.958 18.0223 359.869L18.2694 359.907L18.3137 359.121C18.368 359.056 18.4088 358.981 18.4338 358.901C18.4588 358.82 18.4675 358.736 18.4594 358.651C18.4594 358.328 18.168 358.277 18.4594 358.093C18.7508 357.909 18.7445 358.093 18.7445 357.63C18.7445 357.167 18.5544 357.3 18.9852 356.831C19.4159 356.362 18.9408 355.524 18.9408 355.524C19.2074 355.325 19.4292 355.072 19.5918 354.781C19.7544 354.491 19.8542 354.169 19.8847 353.837C19.8404 352.86 23.1091 346.644 23.7806 346.41C24.452 346.175 24.5027 344.957 24.5027 344.957C24.5027 344.957 25.4212 345.148 25.7063 344.957C26.1581 344.451 26.5611 343.903 26.9099 343.321C26.9099 343.321 30.565 334.073 30.6157 330.572L30.8564 329.779C30.8564 329.779 32.2501 331.599 32.0537 332.906C31.8573 334.212 33.1243 335.151 33.1243 335.151V339.122C33.2636 339.813 33.3399 340.516 33.3523 341.221C33.308 341.856 33.9224 342.528 33.688 343.092C33.5615 343.598 33.5615 344.128 33.688 344.634C33.688 344.634 33.6374 345.94 33.688 346.315C33.7387 346.689 33.498 350.983 34.7523 352.854C34.7523 352.854 35.2781 354.205 34.7523 355.093C34.2265 355.981 35.2274 356.869 35.2274 356.869C35.2274 356.869 34.5939 357.897 35.2274 358.645C35.5884 359.117 35.7499 359.711 35.6771 360.301C35.4238 361.252 35.24 362.495 35.6771 363.364L35.7912 364.703L39.478 364.417V363.675C41.0665 364.066 42.7119 364.169 44.3367 363.979C44.9646 363.923 45.5743 363.738 46.1278 363.435C46.6813 363.133 47.167 362.72 47.5547 362.223C47.5547 362.223 49.037 359.654 45.0018 360.637Z" fill="url(#paint1_linear)"/>
<path d="M46.8642 362.248C46.4918 362.739 46.0212 363.148 45.4824 363.447C44.9436 363.746 44.3484 363.93 43.7349 363.986C42.1645 364.175 40.5727 364.069 39.0408 363.675V364.424L35.4807 364.703L35.3731 363.371C34.9613 362.495 35.1513 361.227 35.4047 360.275C35.5196 359.826 35.6657 359.385 35.8418 358.956C35.8418 358.956 38.9078 356.349 39.9277 358.322C40.1494 358.726 40.4564 359.076 40.8272 359.349C41.8973 360.061 43.1145 360.521 44.3873 360.694C48.3022 359.692 46.8642 362.248 46.8642 362.248Z" fill="#FF6484"/>
<path opacity="0.1" d="M37.4001 359.692C37.4001 359.692 37.4001 362.108 39.1612 362.064C40.9222 362.02 41.163 361.1 40.6055 360.478C40.2254 360.038 39.898 359.555 39.63 359.038L37.4001 359.692Z" fill="black"/>
<path d="M22.1968 366.992C21.2389 367.387 20.2168 367.602 19.1814 367.627C18.8535 367.623 18.5268 367.587 18.2059 367.519C16.3498 367.1 14.7218 365.191 14.7218 365.191L14.3987 365.705L10.7246 364.03L11.1427 363.053V362.882C11.3137 361.55 12.4096 360.022 13.1825 359.115C13.6196 358.607 13.9616 358.277 13.9616 358.277L18.3959 358.912C18.3959 358.912 18.3959 359.482 18.3959 360.18C18.3804 360.618 18.3381 361.054 18.2692 361.487C18.0855 362.508 20.1253 364.925 20.1253 364.925C23.5461 365.254 22.1968 366.992 22.1968 366.992Z" fill="#FF6484"/>
<path d="M13.3735 356.184C13.2985 356.204 13.2195 356.204 13.1445 356.184C13.2202 356.17 13.2978 356.17 13.3735 356.184Z" fill="#444053"/>
<path opacity="0.1" d="M18.3453 358.95C18.3453 358.95 18.3453 359.52 18.3453 360.218L13.1572 359.387C13.1572 359.387 13.1572 359.286 13.2142 359.121C13.6197 358.607 13.9617 358.277 13.9617 358.277L18.3453 358.95Z" fill="black"/>
<path opacity="0.1" d="M40.8399 359.324C40.0544 361.144 35.3857 360.713 35.3857 360.713C35.412 360.567 35.4227 360.418 35.4174 360.269C35.5323 359.82 35.6784 359.379 35.8545 358.95C35.8545 358.95 38.9205 356.343 39.9404 358.315C40.1643 358.712 40.4712 359.056 40.8399 359.324Z" fill="black"/>
<path d="M40.9158 358.81C40.4534 360.897 35.3856 360.434 35.3856 360.434C35.4848 359.814 35.3345 359.18 34.9675 358.671C34.3341 357.922 34.9675 356.901 34.9675 356.901C34.9675 356.901 33.992 356.019 34.5051 355.131C35.0182 354.243 34.5051 352.899 34.5051 352.899C33.3015 351.04 33.5296 346.759 33.4789 346.391C33.4282 346.023 33.4789 344.716 33.4789 344.716C33.3559 344.212 33.3559 343.686 33.4789 343.181C33.7069 342.623 33.1115 341.97 33.1621 341.323C33.1559 340.627 33.0902 339.933 32.9658 339.249V335.297C32.6278 335.035 32.3581 334.695 32.1794 334.307C32.0007 333.918 31.9185 333.492 31.9395 333.064C32.1233 331.758 30.774 329.95 30.774 329.95L30.5459 330.737C30.4952 334.225 26.9668 343.422 26.9668 343.422C26.6307 343.998 26.2426 344.541 25.8076 345.046C25.5288 345.236 24.6483 345.046 24.6483 345.046C24.6483 345.046 24.5976 346.258 23.9515 346.486C23.3053 346.714 20.1507 352.905 20.1887 353.882C20.1637 354.219 20.0678 354.547 19.9073 354.844C19.7468 355.141 19.5254 355.401 19.2575 355.607C19.2575 355.607 19.7199 356.444 19.3018 356.907C18.8837 357.37 19.0738 357.231 19.0738 357.7C19.0738 358.169 19.0738 357.979 18.795 358.163C18.5163 358.347 18.795 358.398 18.795 358.721C18.8075 358.888 18.7579 359.053 18.6557 359.184L18.6113 359.964L13.1761 359.096C13.1761 359.096 13.5436 357.51 13.6829 356.768C13.7653 356.33 13.5752 356.216 13.4042 356.191C13.5562 356.133 13.7146 355.962 13.6386 355.467C13.4992 354.579 14.4748 353.653 14.4748 353.653C15.037 349.374 16.8284 345.35 19.6312 342.071C19.6312 341.792 20.5561 340.999 20.5561 340.999C20.5561 340.999 20.6511 339.731 21.4429 339.604C22.2348 339.477 21.4429 338.443 21.4429 338.443C21.8428 337.53 22.1526 336.581 22.3678 335.608C22.4185 334.866 22.6782 331.377 22.6782 331.377C22.8879 330.879 22.9474 330.33 22.8492 329.798C22.6339 329.163 22.8492 329.005 22.8492 329.005C22.8492 329.005 23.1153 327.609 22.8492 327.102C22.6958 326.751 22.641 326.365 22.6909 325.986L22.8176 324.159L23.0139 321.432C23.0139 321.432 37.4571 318.964 39.0344 320.962C39.2092 321.209 39.336 321.487 39.4082 321.78C40.5357 325.459 40.1493 337.638 40.1493 337.638L39.4525 341.171C39.7072 341.518 39.8245 341.947 39.7819 342.376C39.7209 342.831 39.7686 343.294 39.9213 343.727C39.9213 343.727 39.9213 344.006 39.8706 344.748C39.83 345.091 39.8471 345.438 39.9213 345.775C39.9213 345.775 39.9656 352.188 40.01 353.495C39.9814 354.139 40.1614 354.775 40.5231 355.309V356.888C40.6486 357.183 40.7112 357.5 40.7068 357.821C40.6983 358.162 40.7699 358.501 40.9158 358.81Z" fill="#444053"/>
<path opacity="0.1" d="M19.1814 367.614C18.8535 367.61 18.5268 367.574 18.2059 367.506C16.3498 367.088 14.7218 365.178 14.7218 365.178L14.3987 365.692L10.7246 364.018L11.1427 363.041V362.87L14.9435 364.772C14.9435 364.772 17.9842 366.25 19.1814 367.614Z" fill="black"/>
<path opacity="0.1" d="M43.7349 363.986C42.1645 364.175 40.5727 364.069 39.0408 363.675V364.423L35.4807 364.703L35.373 363.371C36.5006 363.371 38.3187 363.415 39.1042 363.371C40.6684 363.365 42.2262 363.572 43.7349 363.986Z" fill="black"/>
<path opacity="0.1" d="M15.1906 354.985C15.375 354.973 15.5599 354.997 15.7354 355.055C15.9175 355.167 16.0912 355.292 16.2548 355.429C16.377 355.496 16.4935 355.572 16.6032 355.658C16.7363 355.791 16.7933 355.987 16.9263 356.121C17.1797 356.368 17.5598 356.317 17.9145 356.432C17.9525 356.432 17.9905 356.431 17.9969 356.501C17.9972 356.52 17.9919 356.539 17.9818 356.554C17.9716 356.57 17.957 356.583 17.9398 356.59C17.8574 356.636 17.7648 356.659 17.6706 356.659C17.5765 356.659 17.4838 356.636 17.4014 356.59C17.2388 356.496 17.0897 356.381 16.958 356.248C16.7001 356.018 16.4043 355.836 16.0838 355.708C15.6467 355.531 14.8865 355.486 14.6078 355.074C14.7924 354.999 14.992 354.969 15.1906 354.985Z" fill="black"/>
<path opacity="0.1" d="M14.8169 355.962C14.9138 355.99 15.0073 356.028 15.0956 356.076L15.5708 356.317C15.2337 356.34 14.8971 356.265 14.6015 356.102C14.4941 356.062 14.3903 356.013 14.2911 355.956C14.4653 355.926 14.6435 355.928 14.8169 355.962Z" fill="black"/>
<path opacity="0.1" d="M15.4503 356.78C15.5513 356.768 15.6534 356.768 15.7544 356.78C15.9366 356.847 16.1044 356.948 16.2485 357.078C16.5973 357.357 17.0312 357.507 17.4774 357.503C17.3939 357.541 17.3024 357.556 17.2114 357.548H16.2105C16.1012 357.564 15.9903 357.564 15.8811 357.548C15.7375 357.516 15.599 357.465 15.4693 357.396C15.2983 357.319 14.5951 357.117 14.5888 356.882C14.5825 356.647 15.2793 356.78 15.4503 356.78Z" fill="black"/>
<path opacity="0.1" d="M38.1666 357.966C38.4723 357.992 38.7795 357.992 39.0852 357.966C39.4101 357.954 39.7255 357.853 39.9974 357.675C40.2634 357.472 40.2064 357.256 39.8707 357.243C39.5529 357.256 39.2407 357.331 38.9521 357.465C38.8029 357.528 38.6589 357.602 38.5214 357.687C38.458 357.751 38.23 357.973 38.1666 357.966Z" fill="black"/>
<path opacity="0.1" d="M39.3006 358.474C39.3006 358.588 39.1549 358.652 39.0472 358.69C38.7856 358.792 38.5101 358.854 38.23 358.874C38.1603 358.874 37.964 358.874 37.9893 358.766C38.0146 358.658 38.306 358.69 38.3757 358.677C38.6884 358.631 38.9975 358.563 39.3006 358.474Z" fill="black"/>
<path opacity="0.1" d="M23.7361 340.016C23.2709 339.69 22.72 339.509 22.1525 339.496C22.7272 339.461 23.2936 339.647 23.7361 340.016Z" fill="black"/>
<path opacity="0.1" d="M23.3055 338.139C23.7234 338.142 24.1327 338.258 24.49 338.475L24.0973 338.361C23.8377 338.278 23.5702 338.223 23.2991 338.196C23.1471 338.196 22.9887 338.196 22.8367 338.196C22.6847 338.196 22.4819 338.151 22.3046 338.145C22.615 338.145 22.9634 338.126 23.3055 338.139Z" fill="black"/>
<path opacity="0.1" d="M24.7307 339.033C24.8638 339.033 25.0221 339.115 25.0475 339.249C24.7159 339.09 24.3702 338.962 24.0149 338.868C23.8186 338.805 23.2168 338.538 23.0774 338.722C23.5778 338.868 24.1543 338.919 24.7307 339.033Z" fill="black"/>
<path opacity="0.1" d="M25.9976 334.904C26.6061 334.698 27.1544 334.345 27.594 333.876C27.5887 334.085 27.5322 334.289 27.4295 334.47C27.3267 334.652 27.1809 334.805 27.0048 334.916C26.649 335.138 26.2529 335.287 25.8392 335.354C25.4271 335.426 25.0252 335.548 24.642 335.716C24.4583 335.804 23.8882 336.35 23.7044 336.35C23.5207 336.35 23.8438 335.95 23.9262 335.887C24.5652 335.46 25.2631 335.129 25.9976 334.904Z" fill="black"/>
<path opacity="0.1" d="M37.4002 340.936C37.2038 340.866 34.8029 341.329 34.9486 340.866C35.0436 340.581 35.8228 340.689 36.0129 340.695C36.4845 340.708 36.9517 340.789 37.4002 340.936Z" fill="black"/>
<path d="M34.7839 285.334C34.7838 285.725 34.7413 286.114 34.6572 286.495C34.3624 287.822 33.5713 288.985 32.4464 289.746C31.3216 290.506 29.9484 290.806 28.6093 290.585C27.2701 290.363 26.0666 289.636 25.2462 288.553C24.4258 287.47 24.0508 286.114 24.1983 284.763C24.3458 283.412 25.0045 282.169 26.0391 281.289C27.0737 280.409 28.4056 279.96 29.761 280.033C31.1164 280.106 32.3923 280.696 33.3265 281.682C34.2607 282.668 34.7822 283.975 34.7839 285.334Z" fill="#FBBEBE"/>
<path d="M32.231 287.516C32.231 287.516 30.5143 292.54 31.4898 293.561C32.4654 294.582 24.4773 295.191 24.4773 295.191C24.4773 295.191 27.8157 289.191 27.4926 287.7C27.1695 286.21 32.231 287.516 32.231 287.516Z" stroke="#6C63FF" stroke-miterlimit="10"/>
<path opacity="0.1" d="M39.3829 321.768C39.3893 321.884 39.3893 322 39.3829 322.117C39.2878 324.489 35.0626 329.278 34.087 328.459C33.1115 327.641 26.4854 326.087 26.4854 326.087C26.4854 326.087 25.5099 324.552 24.49 324.552C23.9082 324.503 23.3387 324.358 22.8049 324.121L23.0013 321.393C23.0013 321.393 37.4444 318.926 39.0218 320.924C39.195 321.18 39.3176 321.466 39.3829 321.768Z" fill="black"/>
<path d="M39.3829 321.698C39.3386 322.884 38.2553 324.679 37.0581 326.075C35.8608 327.47 34.5749 328.459 34.0871 328.066C33.7293 327.833 33.3415 327.649 32.9342 327.521C30.736 326.715 26.4728 325.694 26.4728 325.694C26.4728 325.694 25.4972 324.159 24.4773 324.159C23.4574 324.159 21.5 323.138 21.5 323.138C21.5 323.138 21.6901 322.859 21.5 321.837C21.31 320.816 18.3327 322.396 18.3327 322.396C18.3327 322.396 18.1933 315.514 19.2575 312.165C20.3218 308.816 19.815 304.553 19.815 304.553C19.815 304.553 20.5815 300.341 21.4113 297.005C21.9118 295.007 22.4376 293.326 22.8366 293.066C23.9072 292.368 29.4754 293.066 29.4754 293.066C30.5493 293.08 31.6206 293.174 32.6808 293.345C32.9548 293.455 33.189 293.645 33.3523 293.891L33.517 294.125C34.247 295.409 34.8679 296.752 35.373 298.141C36.2599 300.278 39.744 309.298 39.744 309.298C39.744 309.298 39.649 309.932 38.8571 312.647C38.0653 315.361 39.4779 319.326 39.3829 321.698Z" fill="#65617D"/>
<path d="M35.3921 324.438L37.0581 326.074C37.0581 326.074 38.5911 331.371 36.5957 330.901C34.6002 330.432 32.9342 327.521 32.9342 327.521L35.3921 324.438Z" fill="#FBBEBE"/>
<path opacity="0.1" d="M39.6173 309.697C35.6644 309.653 34.6445 304.115 34.6445 304.115C34.6445 304.115 34.3658 298.629 33.8527 297.608C33.5472 296.609 33.3914 295.57 33.3903 294.525C34.1203 295.809 34.7412 297.152 35.2463 298.54C36.1332 300.678 39.6173 309.697 39.6173 309.697Z" fill="black"/>
<path d="M39.7566 309.279C35.8037 309.234 34.7838 303.697 34.7838 303.697C34.7838 303.697 34.5051 298.21 33.992 297.189C33.6865 296.19 33.5306 295.151 33.5295 294.106C34.2596 295.39 34.8804 296.733 35.3856 298.121C36.2725 300.259 39.7566 309.279 39.7566 309.279Z" fill="#65617D"/>
<path opacity="0.1" d="M32.6807 295.629C32.6807 295.629 31.5215 292.457 29.6211 295.629C28.4218 297.831 27.7536 300.283 27.67 302.79L27.3406 311.53C27.6452 312.094 27.8428 312.709 27.9234 313.344C27.9234 313.979 29.0636 315.881 29.0636 315.881C29.0636 315.881 29.3423 319.554 30.4066 320.163L31.4328 323.182C31.4328 323.182 31.4771 325.18 32.174 325.973C32.3771 326.261 32.5123 326.592 32.5693 326.94C32.6264 327.289 32.6038 327.645 32.5034 327.984L36.6336 326.538C36.6336 326.538 36.1648 326.709 36.6336 325.459C37.1024 324.21 36.3549 322.58 36.3549 322.58C36.3549 322.58 33.707 316.814 33.3776 315.977C33.0481 315.139 32.5921 314.163 32.7441 313.186C32.8961 312.209 32.7821 301.838 33.0228 300.259C33.2635 298.68 32.6807 295.629 32.6807 295.629Z" fill="black"/>
<path d="M33.1115 295.191C33.1115 295.191 31.9523 292.02 30.0455 295.191C28.8497 297.394 28.1818 299.846 28.0944 302.352L27.7714 311.093C28.0741 311.657 28.2716 312.272 28.3542 312.907C28.3542 313.541 29.4881 315.444 29.4881 315.444C29.4881 315.444 29.7668 319.116 30.8374 319.719L31.8572 322.744C31.8572 322.744 31.9079 324.742 32.6047 325.535C32.8079 325.824 32.9431 326.155 33.0001 326.503C33.0572 326.851 33.0346 327.208 32.9341 327.546L37.058 326.1C37.058 326.1 36.5956 326.271 37.058 325.015C37.5205 323.759 36.7666 322.123 36.7666 322.123C36.7666 322.123 34.1251 316.357 33.7957 315.52C33.4663 314.683 33.0102 313.706 33.1622 312.729C33.3142 311.752 33.2002 301.382 33.4346 299.796C33.669 298.21 33.1115 295.191 33.1115 295.191Z" fill="#FF6484"/>
<path opacity="0.1" d="M33.1939 322.535C33.37 322.558 33.5412 322.609 33.7007 322.687C33.8274 322.751 33.935 322.852 34.0617 322.922C34.2062 323.005 34.3701 323.049 34.5368 323.049C34.3511 323.058 34.1651 323.058 33.9794 323.049C33.8636 323.057 33.7473 323.042 33.6373 323.005C33.533 322.955 33.4352 322.894 33.3459 322.821C33.2322 322.736 33.1089 322.666 32.9785 322.611C32.8771 322.573 32.7695 322.561 32.7314 322.459C32.8874 322.472 33.0421 322.497 33.1939 322.535Z" fill="black"/>
<path opacity="0.1" d="M34.7649 323.785C34.9422 323.785 35.1133 323.747 35.2906 323.734C35.5468 323.724 35.8032 323.737 36.0571 323.772C35.6843 323.963 35.263 324.038 34.8472 323.988C34.7289 323.956 34.6044 323.956 34.4861 323.988C34.3594 324.038 33.9794 324.47 33.9477 324.089C33.916 323.709 34.5495 323.791 34.7649 323.785Z" fill="black"/>
<path opacity="0.1" d="M32.6301 279.753L31.9523 279.258C32.0252 279.282 32.0953 279.314 32.1613 279.353C32.3039 279.43 32.4324 279.531 32.5414 279.651L32.7568 279.848L32.6301 279.753Z" fill="black"/>
<path opacity="0.1" d="M33.3649 293.872C33.2417 294.15 33.0445 294.389 32.7948 294.563C32.6453 294.665 32.4738 294.73 32.2943 294.753C32.0426 294.778 31.7885 294.752 31.5468 294.677C31.2377 294.594 30.9332 294.495 30.6346 294.379C30.0497 294.134 29.4511 293.922 28.8419 293.745C28.3862 293.606 27.903 293.583 27.4362 293.678C26.9694 293.774 26.5338 293.984 26.1687 294.29C25.5795 294.887 25.4402 295.813 24.8574 296.409C24.0719 297.208 22.7923 297.157 21.69 296.999L21.4303 296.961C21.9307 294.963 22.4565 293.282 22.8556 293.022C23.9262 292.324 29.4944 293.022 29.4944 293.022C30.5682 293.036 31.6396 293.129 32.6997 293.301C32.9749 293.418 33.2072 293.617 33.3649 293.872Z" fill="black"/>
<path opacity="0.1" d="M24.1986 285.334C24.1946 284.29 24.4991 283.268 25.0737 282.396C25.6483 281.524 26.4674 280.842 27.4281 280.436C28.3888 280.029 29.4481 279.916 30.4729 280.11C31.4976 280.305 32.4421 280.798 33.1876 281.528C33.1876 282.448 33.0039 283.431 33.2636 284.288C33.5843 285.098 34.0574 285.838 34.6573 286.47C34.3684 287.737 33.6248 288.853 32.5678 289.608C31.5107 290.362 30.2139 290.701 28.9235 290.561C27.633 290.421 26.4389 289.811 25.5679 288.848C24.6969 287.884 24.2096 286.634 24.1986 285.334Z" fill="black"/>
<path d="M32.7568 279.569C31.7298 278.635 30.4353 278.05 29.0572 277.895C27.679 277.74 26.2871 278.024 25.0791 278.706C24.5236 279.011 24.0499 279.447 23.6982 279.974C22.9697 281.135 23.1534 282.639 22.7733 283.951C22.3932 285.264 21.5507 286.248 20.8349 287.345C20.119 288.442 19.5236 289.742 19.796 291.024C19.9924 291.956 20.6322 292.793 20.6195 293.745C20.5942 294.275 20.37 294.776 19.9918 295.147C19.6137 295.519 19.1093 295.734 18.5797 295.749C19.5189 296.328 20.5836 296.672 21.6837 296.751C22.7923 296.91 24.0719 296.961 24.8511 296.161C25.4339 295.565 25.5732 294.639 26.1624 294.043C26.5275 293.737 26.9631 293.526 27.4299 293.431C27.8967 293.336 28.3799 293.359 28.8356 293.497C29.7605 293.713 30.6157 294.132 31.5405 294.405C31.7822 294.479 32.0363 294.505 32.288 294.481C33.0799 294.373 33.555 293.491 33.6056 292.692C33.6563 292.058 33.5613 291.265 34.0301 290.789C34.2092 290.638 34.4023 290.504 34.6065 290.389C34.9689 290.14 35.2558 289.796 35.4357 289.394C35.6156 288.993 35.6816 288.549 35.6264 288.112C35.4047 286.539 33.726 285.575 33.2572 284.028C32.9975 283.14 33.1939 282.188 33.1812 281.268C33.1685 280.349 32.8138 279.289 31.9459 278.979" fill="#444053"/>
<path opacity="0.1" d="M35.544 288.112C35.3286 286.539 33.6436 285.575 33.1748 284.028C32.9151 283.14 33.1178 282.188 33.0988 281.268C33.1107 280.626 32.9152 279.996 32.5414 279.473L32.6744 279.569C32.6047 279.499 32.5287 279.435 32.4527 279.372C32.3456 279.259 32.2242 279.161 32.0916 279.08L31.8509 278.915L31.9776 279.036L31.8445 278.941C32.2193 279.463 32.4148 280.093 32.402 280.736C32.402 281.655 32.2183 282.639 32.478 283.488C32.9278 285.017 34.6318 286.026 34.8472 287.58C34.9016 288.016 34.8353 288.46 34.6555 288.861C34.4756 289.263 34.1892 289.607 33.8273 289.857C33.623 289.971 33.43 290.105 33.2508 290.256C32.7821 290.726 32.8771 291.525 32.8264 292.159C32.7631 292.958 32.307 293.84 31.5151 293.948C31.2613 293.97 31.0056 293.944 30.7613 293.872C29.8428 293.631 28.9813 293.18 28.0564 292.965C27.6008 292.825 27.1174 292.801 26.6504 292.896C26.1834 292.992 25.7477 293.203 25.3831 293.51C24.8003 294.1 24.6546 295.032 24.0719 295.629C23.2864 296.422 22.0067 296.377 20.9045 296.219C20.1789 296.136 19.4649 295.973 18.776 295.73C18.6834 295.74 18.59 295.74 18.4973 295.73C19.4372 296.308 20.5016 296.651 21.6013 296.732C22.7099 296.891 23.9895 296.942 24.7687 296.142C25.3515 295.546 25.4972 294.62 26.08 294.024C26.4451 293.718 26.8807 293.507 27.3475 293.412C27.8143 293.317 28.2975 293.34 28.7532 293.478C29.6781 293.694 30.5396 294.113 31.4581 294.385C31.7018 294.461 31.9581 294.487 32.212 294.462C33.0038 294.354 33.4789 293.472 33.5232 292.673C33.5739 292.039 33.4789 291.246 33.9477 290.77C34.1268 290.619 34.3199 290.485 34.5241 290.37C34.8834 290.123 35.1683 289.782 35.348 289.384C35.5278 288.986 35.5955 288.546 35.544 288.112Z" fill="black"/>
<path opacity="0.1" d="M55.9291 363.865C56.9427 367.246 43.3167 369.434 27.2709 368.813C12.8848 368.261 1.60266 365.61 0.772813 362.838C-0.0570334 360.066 9.74909 357.808 23.9642 357.763C39.82 357.763 54.9156 360.485 55.9291 363.865Z" fill="#6C63FF"/>
</g>
<defs>
<linearGradient id="paint0_linear" x1="494.044" y1="385.913" x2="494.044" y2="242.532" gradientUnits="userSpaceOnUse">
<stop stop-color="#808080" stop-opacity="0.25"/>
<stop offset="0.54" stop-color="#808080" stop-opacity="0.12"/>
<stop offset="1" stop-color="#808080" stop-opacity="0.1"/>
</linearGradient>
<linearGradient id="paint1_linear" x1="3881.3" y1="65509.3" x2="3881.3" y2="52696.8" gradientUnits="userSpaceOnUse">
<stop stop-color="#808080" stop-opacity="0.25"/>
<stop offset="0.54" stop-color="#808080" stop-opacity="0.12"/>
<stop offset="1" stop-color="#808080" stop-opacity="0.1"/>
</linearGradient>
<clipPath id="clip0">
<rect width="688" height="388" fill="white"/>
</clipPath>
</defs>
</svg>
