<svg width="573" height="439" viewBox="0 0 573 439" fill="none" xmlns="http://www.w3.org/2000/svg">
<g clip-path="url(#clip0)">
<path opacity="0.2" d="M473.448 386.764H432.354V363.604H473.448V386.764ZM434.091 385.027H471.712V365.341H434.091V385.027Z" fill="#054DA1"/>
<path opacity="0.2" d="M514.542 385.606H473.448V362.446H514.542V385.606ZM475.185 383.869H512.806V364.183H475.185V383.869Z" fill="#054DA1"/>
<path opacity="0.2" d="M555.636 385.606H514.542V362.446H555.636V385.606ZM516.279 383.869H553.9V364.183H516.279V383.869Z" fill="#054DA1"/>
<path opacity="0.2" d="M555.636 362.446H514.542V339.287H555.636V362.446ZM516.279 360.709H553.9V341.024H516.279V360.709Z" fill="#054DA1"/>
<path opacity="0.2" d="M514.542 362.446H473.448V339.287H514.542V362.446ZM475.185 360.709H512.806V341.024H475.185V360.709Z" fill="#054DA1"/>
<path opacity="0.2" d="M51.5121 385.606H10.4182V362.446H51.5121V385.606ZM12.1546 383.869H49.7758V364.183H12.1546V383.869Z" fill="#054DA1"/>
<path opacity="0.2" d="M92.6061 385.606H51.5122V362.446H92.6061V385.606ZM53.2486 383.869H90.8698V364.183H53.2486V383.869Z" fill="#054DA1"/>
<path opacity="0.2" d="M133.7 385.606H92.606V362.446H133.7V385.606ZM94.3423 383.869H131.964V364.183H94.3423V383.869Z" fill="#054DA1"/>
<path opacity="0.2" d="M174.794 386.764H133.7V363.604H174.794V386.764ZM135.436 385.027H173.058V365.341H135.436V385.027Z" fill="#054DA1"/>
<path opacity="0.2" d="M133.7 362.446H92.606V339.287H133.7V362.446ZM94.3423 360.709H131.964V341.024H94.3423V360.709Z" fill="#054DA1"/>
<path opacity="0.2" d="M92.6061 362.446H51.5122V339.287H92.6061V362.446ZM53.2486 360.709H90.8698V341.024H53.2486V360.709Z" fill="#054DA1"/>
<path d="M515.283 314.02C515.283 314.02 507.678 288.18 516.707 269.16C520.547 261.207 521.705 252.224 520.006 243.557C519.168 239.448 517.955 235.425 516.383 231.537" stroke="#535461" stroke-width="2" stroke-miterlimit="10"/>
<path d="M522.009 219.5C522.009 222.667 516.279 231.85 516.279 231.85C516.279 231.85 510.549 222.667 510.549 219.5C510.549 217.979 511.153 216.52 512.228 215.445C513.303 214.369 514.761 213.765 516.282 213.765C517.802 213.765 519.26 214.369 520.336 215.445C521.411 216.52 522.015 217.979 522.015 219.5H522.009Z" fill="#054DA1"/>
<path d="M531.484 237.061C529.747 239.718 519.96 244.31 519.96 244.31C519.96 244.31 520.139 233.483 521.858 230.825C522.267 230.193 522.797 229.647 523.416 229.22C524.036 228.792 524.734 228.491 525.47 228.333C526.206 228.175 526.966 228.164 527.706 228.3C528.447 228.436 529.153 228.717 529.785 229.126C530.417 229.535 530.962 230.064 531.39 230.684C531.817 231.304 532.118 232.002 532.276 232.738C532.434 233.475 532.445 234.235 532.309 234.975C532.173 235.716 531.893 236.423 531.484 237.055V237.061Z" fill="#054DA1"/>
<path d="M531.067 267.041C528.242 268.465 517.465 267.481 517.465 267.481C517.465 267.481 523.08 258.217 525.91 256.798C527.268 256.114 528.842 255.996 530.286 256.472C531.73 256.949 532.926 257.979 533.611 259.337C534.295 260.695 534.413 262.27 533.937 263.715C533.461 265.159 532.43 266.356 531.073 267.041H531.067Z" fill="#054DA1"/>
<path d="M525.65 289.65C523.103 291.532 512.337 292.383 512.337 292.383C512.337 292.383 516.308 282.314 518.855 280.427C519.46 279.979 520.147 279.655 520.877 279.473C521.607 279.291 522.366 279.254 523.111 279.365C523.855 279.477 524.57 279.733 525.215 280.121C525.861 280.509 526.423 281.02 526.871 281.625C527.318 282.231 527.643 282.918 527.825 283.649C528.007 284.379 528.043 285.138 527.932 285.883C527.821 286.628 527.564 287.343 527.176 287.988C526.789 288.634 526.278 289.197 525.673 289.644L525.65 289.65Z" fill="#054DA1"/>
<path d="M507.927 244.929C510.196 247.135 520.776 249.422 520.776 249.422C520.776 249.422 518.183 238.908 515.914 236.684C515.374 236.16 514.736 235.747 514.037 235.469C513.337 235.191 512.589 235.053 511.837 235.064C511.084 235.075 510.341 235.235 509.65 235.533C508.958 235.831 508.333 236.263 507.808 236.803C507.284 237.343 506.871 237.982 506.593 238.681C506.315 239.381 506.178 240.129 506.189 240.882C506.2 241.635 506.359 242.378 506.657 243.07C506.955 243.761 507.387 244.387 507.927 244.912V244.929Z" fill="#054DA1"/>
<path d="M501.925 271.447C504.749 272.871 515.526 271.887 515.526 271.887C515.526 271.887 509.912 262.623 507.082 261.205C505.724 260.52 504.15 260.402 502.706 260.878C501.262 261.355 500.066 262.385 499.381 263.743C498.696 265.102 498.579 266.676 499.055 268.121C499.531 269.566 500.561 270.762 501.919 271.447H501.925Z" fill="#054DA1"/>
<path d="M499.627 298.028C502.174 299.91 512.939 300.761 512.939 300.761C512.939 300.761 508.992 290.716 506.439 288.811C505.834 288.363 505.147 288.039 504.417 287.856C503.687 287.674 502.928 287.638 502.183 287.749C501.439 287.86 500.724 288.117 500.078 288.505C499.433 288.893 498.871 289.404 498.423 290.009C497.976 290.614 497.651 291.302 497.469 292.032C497.287 292.763 497.251 293.522 497.362 294.267C497.473 295.011 497.73 295.727 498.118 296.372C498.505 297.018 499.016 297.58 499.621 298.028H499.627Z" fill="#054DA1"/>
<path opacity="0.25" d="M522.009 219.5C522.009 222.667 516.279 231.85 516.279 231.85C516.279 231.85 510.549 222.667 510.549 219.5C510.549 217.979 511.153 216.52 512.228 215.445C513.303 214.369 514.761 213.765 516.282 213.765C517.802 213.765 519.26 214.369 520.336 215.445C521.411 216.52 522.015 217.979 522.015 219.5H522.009Z" fill="black"/>
<path opacity="0.25" d="M531.484 237.061C529.747 239.718 519.96 244.31 519.96 244.31C519.96 244.31 520.139 233.483 521.858 230.825C522.267 230.193 522.797 229.647 523.416 229.22C524.036 228.792 524.734 228.491 525.47 228.333C526.206 228.175 526.966 228.164 527.706 228.3C528.447 228.436 529.153 228.717 529.785 229.126C530.417 229.535 530.962 230.064 531.39 230.684C531.817 231.304 532.118 232.002 532.276 232.738C532.434 233.475 532.445 234.235 532.309 234.975C532.173 235.716 531.893 236.423 531.484 237.055V237.061Z" fill="black"/>
<path opacity="0.25" d="M531.067 267.041C528.242 268.465 517.465 267.481 517.465 267.481C517.465 267.481 523.08 258.217 525.91 256.798C527.268 256.114 528.842 255.996 530.286 256.472C531.73 256.949 532.926 257.979 533.611 259.337C534.295 260.695 534.413 262.27 533.937 263.715C533.461 265.159 532.43 266.356 531.073 267.041H531.067Z" fill="black"/>
<path opacity="0.25" d="M525.65 289.65C523.103 291.532 512.337 292.383 512.337 292.383C512.337 292.383 516.308 282.314 518.855 280.427C519.46 279.979 520.147 279.655 520.877 279.473C521.607 279.291 522.366 279.254 523.111 279.365C523.855 279.477 524.57 279.733 525.215 280.121C525.861 280.509 526.423 281.02 526.871 281.625C527.318 282.231 527.643 282.918 527.825 283.649C528.007 284.379 528.043 285.138 527.932 285.883C527.821 286.628 527.564 287.343 527.176 287.988C526.789 288.634 526.278 289.197 525.673 289.644L525.65 289.65Z" fill="black"/>
<path opacity="0.25" d="M507.927 244.929C510.196 247.135 520.776 249.422 520.776 249.422C520.776 249.422 518.183 238.908 515.914 236.684C515.374 236.16 514.736 235.747 514.037 235.469C513.337 235.191 512.589 235.053 511.837 235.064C511.084 235.075 510.341 235.235 509.65 235.533C508.958 235.831 508.333 236.263 507.808 236.803C507.284 237.343 506.871 237.982 506.593 238.681C506.315 239.381 506.178 240.129 506.189 240.882C506.2 241.635 506.359 242.378 506.657 243.07C506.955 243.761 507.387 244.387 507.927 244.912V244.929Z" fill="black"/>
<path opacity="0.25" d="M501.925 271.447C504.749 272.871 515.526 271.887 515.526 271.887C515.526 271.887 509.912 262.623 507.082 261.205C505.724 260.52 504.15 260.402 502.706 260.878C501.262 261.355 500.066 262.385 499.381 263.743C498.696 265.102 498.579 266.676 499.055 268.121C499.531 269.566 500.561 270.762 501.919 271.447H501.925Z" fill="black"/>
<path opacity="0.25" d="M499.627 298.028C502.174 299.91 512.939 300.761 512.939 300.761C512.939 300.761 508.992 290.716 506.439 288.811C505.834 288.363 505.147 288.039 504.417 287.856C503.687 287.674 502.928 287.638 502.183 287.749C501.439 287.86 500.724 288.117 500.078 288.505C499.433 288.893 498.871 289.404 498.423 290.009C497.976 290.614 497.651 291.302 497.469 292.032C497.287 292.763 497.251 293.522 497.362 294.267C497.473 295.011 497.73 295.727 498.118 296.372C498.505 297.018 499.016 297.58 499.621 298.028H499.627Z" fill="black"/>
<path d="M97.6993 314.217C97.6993 314.217 89.9783 287.994 99.1463 268.714C103.045 260.643 104.22 251.525 102.497 242.729C101.647 238.549 100.415 234.455 98.8164 230.501" stroke="#535461" stroke-width="2" stroke-miterlimit="10"/>
<path d="M104.523 218.342C104.523 221.555 98.7064 230.877 98.7064 230.877C98.7064 230.877 92.8838 221.526 92.8838 218.342C92.8838 216.799 93.4966 215.319 94.5875 214.227C95.6784 213.136 97.1579 212.523 98.7006 212.523C100.243 212.523 101.723 213.136 102.814 214.227C103.905 215.319 104.517 216.799 104.517 218.342H104.523Z" fill="#054DA1"/>
<path d="M114.137 236.117C112.401 238.815 102.446 243.476 102.446 243.476C102.446 243.476 102.625 232.475 104.373 229.794C104.78 229.136 105.315 228.566 105.945 228.117C106.575 227.668 107.289 227.349 108.044 227.179C108.799 227.009 109.58 226.992 110.342 227.128C111.103 227.264 111.83 227.551 112.48 227.972C113.13 228.392 113.689 228.938 114.125 229.578C114.561 230.217 114.865 230.938 115.019 231.696C115.173 232.455 115.175 233.236 115.023 233.995C114.872 234.755 114.571 235.476 114.137 236.117Z" fill="#054DA1"/>
<path d="M113.714 266.537C110.821 267.984 99.9104 266.983 99.9104 266.983C99.9104 266.983 105.611 257.592 108.476 256.144C109.854 255.449 111.451 255.33 112.917 255.814C114.382 256.297 115.595 257.342 116.29 258.721C116.985 260.099 117.104 261.697 116.621 263.162C116.138 264.628 115.092 265.842 113.714 266.537Z" fill="#054DA1"/>
<path d="M108.233 289.482C105.652 291.393 94.7012 292.256 94.7012 292.256C94.7012 292.256 98.7527 282.036 101.317 280.097C101.931 279.641 102.629 279.31 103.371 279.124C104.113 278.937 104.884 278.899 105.641 279.011C106.397 279.122 107.125 279.382 107.781 279.775C108.437 280.168 109.01 280.687 109.466 281.301C109.922 281.916 110.253 282.614 110.439 283.356C110.625 284.098 110.664 284.87 110.552 285.627C110.44 286.384 110.18 287.111 109.787 287.768C109.395 288.424 108.876 288.997 108.262 289.453L108.233 289.482Z" fill="#054DA1"/>
<path d="M90.2272 244.095C92.5424 246.336 103.267 248.652 103.267 248.652C103.267 248.652 100.64 237.987 98.336 235.746C97.7905 235.202 97.1424 234.772 96.4292 234.48C95.716 234.188 94.952 234.041 94.1815 234.048C93.411 234.054 92.6495 234.213 91.9411 234.516C91.2326 234.819 90.5915 235.26 90.0547 235.813C89.518 236.366 89.0965 237.02 88.8146 237.737C88.5328 238.455 88.3961 239.221 88.4127 239.991C88.4293 240.762 88.5988 241.522 88.9113 242.226C89.2237 242.931 89.673 243.566 90.233 244.095H90.2272Z" fill="#054DA1"/>
<path d="M84.1384 271.03C87.0324 272.477 97.9425 271.476 97.9425 271.476C97.9425 271.476 92.2415 262.085 89.3765 260.637C87.9988 259.942 86.4016 259.823 84.9362 260.307C83.4709 260.79 82.2574 261.835 81.5628 263.214C80.8682 264.592 80.7494 266.189 81.2324 267.655C81.7154 269.121 82.7607 270.335 84.1384 271.03Z" fill="#054DA1"/>
<path d="M81.8058 297.988C84.3872 299.898 95.3378 300.761 95.3378 300.761C95.3378 300.761 91.2863 290.542 88.7223 288.602C87.482 287.681 85.9266 287.29 84.3983 287.516C82.87 287.742 81.494 288.566 80.573 289.806C79.6519 291.047 79.2614 292.603 79.4871 294.132C79.7129 295.661 80.5365 297.037 81.7768 297.959L81.8058 297.988Z" fill="#054DA1"/>
<path opacity="0.5" d="M104.523 218.342C104.523 221.555 98.7064 230.877 98.7064 230.877C98.7064 230.877 92.8838 221.526 92.8838 218.342C92.8838 216.799 93.4966 215.319 94.5875 214.227C95.6784 213.136 97.1579 212.523 98.7006 212.523C100.243 212.523 101.723 213.136 102.814 214.227C103.905 215.319 104.517 216.799 104.517 218.342H104.523Z" fill="white"/>
<path opacity="0.5" d="M114.137 236.117C112.401 238.815 102.446 243.476 102.446 243.476C102.446 243.476 102.625 232.475 104.373 229.794C104.78 229.136 105.315 228.566 105.945 228.117C106.575 227.668 107.289 227.349 108.044 227.179C108.799 227.009 109.58 226.992 110.342 227.128C111.103 227.264 111.83 227.551 112.48 227.972C113.13 228.392 113.689 228.938 114.125 229.578C114.561 230.217 114.865 230.938 115.019 231.696C115.173 232.455 115.175 233.236 115.023 233.995C114.872 234.755 114.571 235.476 114.137 236.117Z" fill="white"/>
<path opacity="0.5" d="M113.714 266.537C110.821 267.984 99.9104 266.983 99.9104 266.983C99.9104 266.983 105.611 257.592 108.476 256.144C109.854 255.449 111.451 255.33 112.917 255.814C114.382 256.297 115.595 257.342 116.29 258.721C116.985 260.099 117.104 261.697 116.621 263.162C116.138 264.628 115.092 265.842 113.714 266.537Z" fill="white"/>
<path opacity="0.5" d="M108.233 289.482C105.652 291.393 94.7012 292.256 94.7012 292.256C94.7012 292.256 98.7527 282.036 101.317 280.097C101.931 279.641 102.629 279.31 103.371 279.124C104.113 278.937 104.884 278.899 105.641 279.011C106.397 279.122 107.125 279.382 107.781 279.775C108.437 280.168 109.01 280.687 109.466 281.301C109.922 281.916 110.253 282.614 110.439 283.356C110.625 284.098 110.664 284.87 110.552 285.627C110.44 286.384 110.18 287.111 109.787 287.768C109.395 288.424 108.876 288.997 108.262 289.453L108.233 289.482Z" fill="white"/>
<path opacity="0.5" d="M90.2272 244.095C92.5424 246.336 103.267 248.652 103.267 248.652C103.267 248.652 100.64 237.987 98.336 235.746C97.7905 235.202 97.1424 234.772 96.4292 234.48C95.716 234.188 94.952 234.041 94.1815 234.048C93.411 234.054 92.6495 234.213 91.9411 234.516C91.2326 234.819 90.5915 235.26 90.0547 235.813C89.518 236.366 89.0965 237.02 88.8146 237.737C88.5328 238.455 88.3961 239.221 88.4127 239.991C88.4293 240.762 88.5988 241.522 88.9113 242.226C89.2237 242.931 89.673 243.566 90.233 244.095H90.2272Z" fill="white"/>
<path opacity="0.5" d="M84.1384 271.03C87.0324 272.477 97.9425 271.476 97.9425 271.476C97.9425 271.476 92.2415 262.085 89.3765 260.637C87.9988 259.942 86.4016 259.823 84.9362 260.307C83.4709 260.79 82.2574 261.835 81.5628 263.214C80.8682 264.592 80.7494 266.189 81.2324 267.655C81.7154 269.121 82.7607 270.335 84.1384 271.03Z" fill="white"/>
<path opacity="0.5" d="M81.8058 297.988C84.3872 299.898 95.3378 300.761 95.3378 300.761C95.3378 300.761 91.2863 290.542 88.7223 288.602C87.482 287.681 85.9266 287.29 84.3983 287.516C82.87 287.742 81.494 288.566 80.573 289.806C79.6519 291.047 79.2614 292.603 79.4871 294.132C79.7129 295.661 80.5365 297.037 81.7768 297.959L81.8058 297.988Z" fill="white"/>
<path d="M53.6479 313.568C53.6479 313.568 47.7674 293.61 54.7534 278.875C57.7234 272.725 58.619 265.777 57.3058 259.074C56.6577 255.897 55.72 252.787 54.5045 249.781" stroke="#535461" stroke-width="2" stroke-miterlimit="10"/>
<path d="M58.8512 240.483C58.8512 242.932 54.4176 250.036 54.4176 250.036C54.4176 250.036 49.9841 242.932 49.9841 240.483C49.9841 239.306 50.4512 238.178 51.2827 237.346C52.1141 236.515 53.2418 236.047 54.4176 236.047C55.5935 236.047 56.7212 236.515 57.5526 237.346C58.3841 238.178 58.8512 239.306 58.8512 240.483Z" fill="#054DA1"/>
<path d="M66.1787 254.048C64.8475 256.104 57.2654 259.659 57.2654 259.659C57.2654 259.659 57.4043 251.286 58.7355 249.237C59.0521 248.748 59.4618 248.326 59.9413 247.996C60.4208 247.665 60.9607 247.432 61.5301 247.311C62.0996 247.189 62.6874 247.18 63.2601 247.286C63.8327 247.391 64.379 247.609 64.8678 247.925C65.3565 248.242 65.7781 248.652 66.1085 249.132C66.4388 249.611 66.6715 250.151 66.7933 250.721C66.915 251.291 66.9234 251.879 66.818 252.452C66.7125 253.024 66.4953 253.571 66.1787 254.06V254.048Z" fill="#054DA1"/>
<path d="M65.8603 277.231C63.6724 278.331 55.3379 277.572 55.3379 277.572C55.3379 277.572 59.6788 270.416 61.8666 269.31C62.9166 268.781 64.1339 268.69 65.2508 269.058C66.3678 269.426 67.2928 270.223 67.8223 271.273C68.3519 272.323 68.4427 273.541 68.0748 274.658C67.7068 275.776 66.9102 276.701 65.8603 277.231Z" fill="#054DA1"/>
<path d="M61.67 294.722C59.7021 296.181 51.356 296.835 51.356 296.835C51.356 296.835 54.4293 289.048 56.3972 287.572C57.3428 286.872 58.5274 286.577 59.6905 286.751C60.8535 286.926 61.8997 287.555 62.5989 288.501C63.2981 289.447 63.5931 290.632 63.4189 291.795C63.2446 292.959 62.6155 294.005 61.67 294.705V294.722Z" fill="#054DA1"/>
<path d="M47.9584 260.133C49.6948 261.841 57.8962 263.607 57.8962 263.607C57.8962 263.607 55.8936 255.501 54.1341 253.764C53.716 253.359 53.2222 253.04 52.6808 252.825C52.1394 252.61 51.561 252.504 50.9787 252.513C50.3964 252.522 49.8215 252.645 49.2869 252.877C48.7523 253.108 48.2684 253.442 47.8629 253.86C47.4574 254.278 47.1382 254.772 46.9236 255.314C46.7089 255.855 46.603 256.434 46.6118 257.016C46.6207 257.599 46.7442 258.174 46.9752 258.709C47.2063 259.244 47.5404 259.728 47.9584 260.133Z" fill="#054DA1"/>
<path d="M43.3166 280.647C45.5044 281.747 53.8389 280.988 53.8389 280.988C53.8389 280.988 49.498 273.832 47.3102 272.726C46.2602 272.197 45.0429 272.106 43.926 272.474C42.8091 272.842 41.8841 273.639 41.3545 274.689C40.8249 275.739 40.7341 276.957 41.1021 278.075C41.47 279.192 42.2666 280.117 43.3166 280.647Z" fill="#054DA1"/>
<path d="M41.5395 301.201C43.5074 302.66 51.8535 303.314 51.8535 303.314C51.8535 303.314 48.7802 295.527 46.8123 294.05C46.3441 293.704 45.8122 293.453 45.2472 293.313C44.6821 293.172 44.0949 293.144 43.519 293.23C42.9431 293.317 42.3899 293.515 41.8909 293.816C41.3918 294.116 40.9568 294.511 40.6106 294.98C40.2643 295.448 40.0137 295.98 39.8731 296.545C39.7324 297.111 39.7044 297.698 39.7906 298.274C39.8769 298.85 40.0757 299.404 40.3758 299.903C40.6759 300.402 41.0713 300.837 41.5395 301.184V301.201Z" fill="#054DA1"/>
<path opacity="0.25" d="M58.8512 240.483C58.8512 242.932 54.4176 250.036 54.4176 250.036C54.4176 250.036 49.9841 242.932 49.9841 240.483C49.9841 239.306 50.4512 238.178 51.2827 237.346C52.1141 236.515 53.2418 236.047 54.4176 236.047C55.5935 236.047 56.7212 236.515 57.5526 237.346C58.3841 238.178 58.8512 239.306 58.8512 240.483Z" fill="black"/>
<path opacity="0.25" d="M66.1787 254.048C64.8475 256.104 57.2654 259.659 57.2654 259.659C57.2654 259.659 57.4043 251.286 58.7355 249.237C59.0521 248.748 59.4618 248.326 59.9413 247.996C60.4208 247.665 60.9607 247.432 61.5301 247.311C62.0996 247.189 62.6874 247.18 63.2601 247.286C63.8327 247.391 64.379 247.609 64.8678 247.925C65.3565 248.242 65.7781 248.652 66.1085 249.132C66.4388 249.611 66.6715 250.151 66.7933 250.721C66.915 251.291 66.9234 251.879 66.818 252.452C66.7125 253.024 66.4953 253.571 66.1787 254.06V254.048Z" fill="black"/>
<path opacity="0.25" d="M65.8603 277.231C63.6724 278.331 55.3379 277.572 55.3379 277.572C55.3379 277.572 59.6788 270.416 61.8666 269.31C62.9166 268.781 64.1339 268.69 65.2508 269.058C66.3678 269.426 67.2928 270.223 67.8223 271.273C68.3519 272.323 68.4427 273.541 68.0748 274.658C67.7068 275.776 66.9102 276.701 65.8603 277.231Z" fill="black"/>
<path opacity="0.25" d="M61.67 294.722C59.7021 296.181 51.356 296.835 51.356 296.835C51.356 296.835 54.4293 289.048 56.3972 287.572C57.3428 286.872 58.5274 286.577 59.6905 286.751C60.8535 286.926 61.8997 287.555 62.5989 288.501C63.2981 289.447 63.5931 290.632 63.4189 291.795C63.2446 292.959 62.6155 294.005 61.67 294.705V294.722Z" fill="black"/>
<path opacity="0.25" d="M47.9584 260.133C49.6948 261.841 57.8962 263.607 57.8962 263.607C57.8962 263.607 55.8936 255.501 54.1341 253.764C53.716 253.359 53.2222 253.04 52.6808 252.825C52.1394 252.61 51.561 252.504 50.9787 252.513C50.3964 252.522 49.8215 252.645 49.2869 252.877C48.7523 253.108 48.2684 253.442 47.8629 253.86C47.4574 254.278 47.1382 254.772 46.9236 255.314C46.7089 255.855 46.603 256.434 46.6118 257.016C46.6207 257.599 46.7442 258.174 46.9752 258.709C47.2063 259.244 47.5404 259.728 47.9584 260.133Z" fill="black"/>
<path opacity="0.25" d="M43.3166 280.647C45.5044 281.747 53.8389 280.988 53.8389 280.988C53.8389 280.988 49.498 273.832 47.3102 272.726C46.2602 272.197 45.0429 272.106 43.926 272.474C42.8091 272.842 41.8841 273.639 41.3545 274.689C40.8249 275.739 40.7341 276.957 41.1021 278.075C41.47 279.192 42.2666 280.117 43.3166 280.647Z" fill="black"/>
<path opacity="0.25" d="M41.5395 301.201C43.5074 302.66 51.8535 303.314 51.8535 303.314C51.8535 303.314 48.7802 295.527 46.8123 294.05C46.3441 293.704 45.8122 293.453 45.2472 293.313C44.6821 293.172 44.0949 293.144 43.519 293.23C42.9431 293.317 42.3899 293.515 41.8909 293.816C41.3918 294.116 40.9568 294.511 40.6106 294.98C40.2643 295.448 40.0137 295.98 39.8731 296.545C39.7324 297.111 39.7044 297.698 39.7906 298.274C39.8769 298.85 40.0757 299.404 40.3758 299.903C40.6759 300.402 41.0713 300.837 41.5395 301.184V301.201Z" fill="black"/>
<g opacity="0.7">
<path opacity="0.6" d="M573 46.319H0V338.708H573V46.319Z" fill="#4AD4FF"/>
<path opacity="0.25" d="M0 46.319V339.287H573V46.319H0ZM25.4667 71.7945H273.767V180.065H25.4667V71.7945ZM25.4667 205.541H273.767V313.811H25.4667V205.541ZM547.533 313.811H299.233V205.541H547.533V313.811ZM547.533 180.065H299.233V71.7945H547.533V180.065Z" fill="black"/>
</g>
<g opacity="0.7">
<path opacity="0.7" d="M210.164 351.376C210.164 351.376 160.017 333.034 153.153 358.851L172.386 407.758L174.447 439.023H216.345V412.511C216.345 412.511 210.164 386.017 225.965 369.718L210.164 351.376Z" fill="url(#paint0_linear)"/>
<g opacity="0.1">
<path opacity="0.1" d="M218.562 205.83C216.432 205.124 213.868 204.493 212.132 205.9C211.124 206.716 210.69 208.03 209.909 209.061C207.31 212.471 202.072 211.834 197.934 213.056C191.851 214.851 188.094 220.878 185.941 226.784C176.415 252.838 187.035 282.639 178.741 309.098C176.299 316.886 172.305 325.53 176.252 332.692C177.566 335.083 179.725 337.075 180.362 339.715C181.253 343.299 179.534 348.001 182.538 350.183C183.476 350.861 184.662 351.075 185.785 351.341C192.545 353.125 197.668 358.388 202.819 363.066C207.97 367.744 214.163 372.272 221.149 371.965C223.407 371.778 225.636 371.336 227.794 370.645L262.463 360.987C265.936 360.02 269.709 358.851 271.724 355.886C272.956 354.074 273.344 351.833 273.657 349.68C274.853 341.449 275.42 333.14 275.353 324.824C275.353 322.079 275.225 319.271 274.195 316.718C273.037 313.771 270.722 311.414 269.038 308.722C265.785 303.511 264.911 297.252 264.107 291.19C262.828 281.539 261.548 271.696 263.32 262.119C264.078 258.008 265.386 254.013 266.254 249.932C267.661 243.281 267.884 236.435 266.914 229.708C266.103 224.12 264.367 218.452 260.547 214.249C258.047 211.448 254.65 209.605 250.939 209.038C246.251 208.459 243.919 211.157 239.74 212.164C233.558 213.71 224.506 207.793 218.562 205.83Z" fill="url(#paint1_linear)"/>
</g>
<path opacity="0.7" d="M218.562 204.446C216.432 203.74 213.868 203.109 212.132 204.516C211.124 205.332 210.69 206.646 209.909 207.677C207.31 211.087 202.072 210.45 197.934 211.672C191.851 213.467 188.094 219.494 185.941 225.4C176.415 251.454 187.035 281.255 178.741 307.715C176.299 315.502 172.305 324.146 176.252 331.308C177.566 333.7 179.725 335.691 180.362 338.331C181.253 341.915 179.534 346.617 182.538 348.8C183.476 349.477 184.662 349.691 185.785 349.958C192.545 351.741 197.668 357.004 202.819 361.682C207.97 366.36 214.151 370.94 221.149 370.616C223.407 370.429 225.636 369.987 227.794 369.296L262.463 359.638C265.936 358.671 269.709 357.502 271.724 354.537C272.956 352.725 273.344 350.484 273.657 348.331C274.853 340.1 275.42 331.791 275.353 323.475C275.353 320.73 275.225 317.922 274.195 315.369C273.037 312.422 270.722 310.065 269.038 307.373C265.785 302.162 264.911 295.903 264.107 289.841C262.828 280.189 261.548 270.347 263.32 260.77C264.078 256.659 265.386 252.664 266.254 248.583C267.661 241.932 267.884 235.086 266.914 228.359C266.103 222.771 264.367 217.103 260.547 212.9C258.047 210.099 254.65 208.256 250.939 207.689C246.251 207.11 243.919 209.808 239.74 210.815C233.558 212.321 224.506 206.438 218.562 204.446Z" fill="url(#paint2_linear)"/>
<path opacity="0.7" d="M208.792 153.026C208.792 153.026 209.481 178.838 201.239 178.16C192.997 177.483 224.57 220.953 224.57 220.953L251.356 206.687C251.356 206.687 235.567 181.559 246.563 165.932C257.56 150.305 208.792 153.026 208.792 153.026Z" fill="url(#paint3_linear)"/>
<g opacity="0.1">
<path opacity="0.1" d="M162.767 372.434C162.767 372.434 157.274 409.796 143.534 399.606C129.793 389.415 131.854 372.434 131.854 372.434C131.854 372.434 158.646 300.431 157.274 289.557C155.902 278.684 202.998 194.198 202.998 194.198L220.443 333.034C220.443 333.034 168.259 352.053 162.767 372.434Z" fill="url(#paint4_linear)"/>
</g>
<path opacity="0.7" d="M161.395 372.434C161.395 372.434 155.902 409.796 142.162 399.606C128.421 389.415 130.482 372.434 130.482 372.434C130.482 372.434 157.274 300.431 155.896 289.557C154.519 278.684 201.621 194.198 201.621 194.198L219.065 333.034C219.065 333.034 166.888 352.053 161.395 372.434Z" fill="url(#paint5_linear)"/>
<path opacity="0.7" d="M210.164 169.331C210.164 169.331 183.372 187.656 173.058 186.99L165.053 189.167C157.138 191.29 149.974 195.586 144.371 201.568C138.769 207.55 134.95 214.981 133.347 223.02L133.22 223.669C129.11 245.41 127.733 305.19 127.733 305.19C127.733 305.19 128.421 320.823 135.286 324.876L179.274 354.763C179.274 354.763 177.902 322.16 194.386 318.762C210.87 315.363 190.265 317.401 190.265 317.401L160.041 299.742C160.041 299.742 160.729 273.247 168.971 264.424C177.213 255.6 206.066 209.42 206.066 209.42L197.824 180.893L210.164 169.331Z" fill="url(#paint6_linear)"/>
<g opacity="0.1">
<path opacity="0.1" d="M239.699 186.99C239.699 186.99 256.571 191.408 268.384 193.567C270.224 193.896 271.962 194.655 273.454 195.782C274.946 196.908 276.152 198.371 276.973 200.052C280.538 207.411 285.973 220.722 285.036 231.821L295.338 271.898L324.856 307.217L298.076 319.451L267.863 286.165L292.589 349.338L246.564 351.376C246.564 351.376 232.823 249.474 236.261 232.504L239.699 186.99Z" fill="url(#paint7_linear)"/>
</g>
<path opacity="0.7" d="M241.071 186.99C241.071 186.99 257.942 191.408 269.756 193.567C271.596 193.896 273.333 194.655 274.826 195.782C276.318 196.908 277.524 198.371 278.345 200.052C281.91 207.411 287.345 220.722 286.407 231.821L296.71 271.898L326.228 307.217L299.442 319.445L269.217 286.159L293.966 349.338L247.941 351.376C247.941 351.376 234.201 249.474 237.639 232.504L241.071 186.99Z" fill="url(#paint8_linear)"/>
<path opacity="0.7" d="M207.906 167.165L217.375 213.143L201.922 220.953L193.454 179.538L207.906 167.165Z" fill="url(#paint9_linear)"/>
<path opacity="0.7" d="M233.859 216.541L241.071 186.99L250.349 204.313L245.539 218.579L233.859 216.541Z" fill="url(#paint10_linear)"/>
<path opacity="0.1" d="M259.963 225.371C259.963 225.371 259.963 271.563 266.144 274.955L259.963 225.371Z" fill="url(#paint11_linear)"/>
<path opacity="0.1" d="M171.35 236.916C171.35 236.916 157.095 282.407 161.129 287.172L171.35 236.916Z" fill="url(#paint12_linear)"/>
<path opacity="0.1" d="M168.607 299.4C168.607 299.4 196.088 317.169 199.861 317.453L168.607 299.4Z" fill="url(#paint13_linear)"/>
<g opacity="0.1">
<path opacity="0.1" d="M209.475 155.742C209.475 155.742 209.579 159.72 209.208 164.508C211.658 170.194 215.723 175.035 220.898 178.432C226.074 181.828 232.132 183.63 238.322 183.614C240.018 183.613 241.711 183.478 243.386 183.209C243.207 178.126 244.185 173.025 247.252 168.671C258.243 153.026 209.475 155.742 209.475 155.742Z" fill="url(#paint14_linear)"/>
</g>
<path opacity="0.7" d="M237.639 180.882C255.089 180.882 269.235 166.891 269.235 149.634C269.235 132.376 255.089 118.386 237.639 118.386C220.189 118.386 206.043 132.376 206.043 149.634C206.043 166.891 220.189 180.882 237.639 180.882Z" fill="url(#paint15_linear)"/>
<g opacity="0.1">
<path opacity="0.1" d="M257.688 136.496C261.514 137.006 266.37 135.744 267.128 131.992C268.06 127.256 261.653 124.175 260.663 119.445C260.292 117.673 260.732 115.821 260.518 114.02C260.09 110.396 257.126 107.605 254.111 105.497C244.536 98.8661 232.938 95.8088 221.34 96.8588C219.905 96.992 218.394 97.2236 217.289 98.1326C216.027 99.1574 215.552 100.825 214.678 102.186C211.715 106.922 205.059 107.477 200.284 110.43C194.698 113.904 191.932 120.661 191.683 127.169C191.434 133.677 193.309 140.063 195.156 146.316C196.736 151.631 198.391 157.091 201.858 161.445C205.325 165.799 211.078 168.839 216.525 167.53C214.03 165.753 215.842 161.624 218.545 160.177C221.247 158.729 224.604 158.48 226.914 156.483C229.223 154.485 229.918 151.214 230.67 148.238C231.619 144.486 232.985 140.677 235.763 137.938C241.21 132.577 251.02 135.61 257.688 136.496Z" fill="url(#paint16_linear)"/>
</g>
<path opacity="0.7" d="M256.982 135.819C260.807 136.328 265.664 135.066 266.422 131.314C267.354 126.578 260.946 123.498 259.957 118.768C259.586 116.996 260.026 115.143 259.812 113.343C259.384 109.718 256.42 106.927 253.405 104.82C243.837 98.192 232.248 95.1328 220.657 96.1756C219.222 96.3088 217.711 96.5404 216.605 97.4494C215.344 98.4742 214.869 100.142 213.995 101.502C211.032 106.238 204.376 106.794 199.601 109.747C194.015 113.221 191.249 119.978 191 126.486C190.751 132.993 192.626 139.38 194.473 145.633C196.053 150.948 197.708 156.408 201.175 160.762C204.642 165.116 210.395 168.155 215.841 166.847C213.347 165.069 215.158 160.941 217.861 159.494C220.564 158.046 223.921 157.797 226.231 155.8C228.54 153.802 229.235 150.531 229.987 147.555C230.936 143.803 232.302 139.993 235.08 137.255C240.521 131.899 250.331 134.927 256.982 135.819Z" fill="url(#paint17_linear)"/>
<g opacity="0.1">
<path opacity="0.1" d="M232.175 153.849C231.712 157.079 230.682 162.672 228.743 166.204C226.179 170.8 223.986 175.594 222.185 180.54C222.185 180.54 234.837 190.226 241.285 196.844C243.27 198.923 245.81 200.387 248.603 201.064C251.396 201.74 254.324 201.6 257.04 200.66C260.391 199.455 263.325 197.128 264.107 192.762C265.334 185.878 263.875 180.685 262.498 177.61C261.834 176.158 261.486 174.581 261.478 172.983C261.47 171.386 261.802 169.806 262.451 168.346C262.926 167.304 263.482 166.488 264.101 166.285C264.101 166.285 251.738 163.57 251.049 166.963C250.36 170.356 240.747 173.754 238.686 167.64L238.108 154.161C238.072 153.397 237.742 152.677 237.188 152.15C236.633 151.624 235.897 151.332 235.133 151.336C234.42 151.329 233.729 151.579 233.185 152.041C232.642 152.502 232.283 153.144 232.175 153.849Z" fill="url(#paint18_linear)"/>
</g>
<path opacity="0.7" d="M232.175 154.532C231.712 157.763 230.682 163.356 228.743 166.887C226.179 171.484 223.986 176.277 222.185 181.223C222.185 181.223 234.837 190.91 241.285 197.527C243.27 199.606 245.81 201.071 248.603 201.747C251.396 202.423 254.324 202.283 257.04 201.343C260.391 200.139 263.325 197.811 264.107 193.446C265.334 186.561 263.875 181.368 262.498 178.293C261.834 176.841 261.486 175.264 261.478 173.667C261.47 172.069 261.802 170.489 262.451 169.03C262.926 167.987 263.482 167.171 264.101 166.968C264.101 166.968 251.738 164.253 251.049 167.646C250.36 171.039 240.747 174.437 238.686 168.323L238.108 154.844C238.072 154.081 237.742 153.36 237.188 152.834C236.633 152.307 235.897 152.015 235.133 152.019C234.42 152.012 233.729 152.262 233.185 152.724C232.642 153.185 232.283 153.827 232.175 154.532Z" fill="url(#paint19_linear)"/>
</g>
<path d="M210.835 350.93C210.835 350.93 162.697 333.121 156.105 358.185L174.568 405.662L176.53 436.041H216.756V410.305C216.756 410.305 210.824 384.581 226.017 368.746L210.835 350.93Z" fill="#535461"/>
<path opacity="0.1" d="M218.898 209.594C216.854 208.91 214.389 208.297 212.728 209.663C211.761 210.456 211.344 211.73 210.592 212.732C208.097 216.043 203.068 215.424 199.097 216.611C193.257 218.348 189.657 224.207 187.585 229.928C178.44 255.224 188.633 284.173 180.674 309.863C178.359 317.424 174.499 325.82 178.284 332.773C179.546 335.089 181.6 337.029 182.231 339.594C183.088 343.068 181.438 347.642 184.321 349.761C185.218 350.421 186.358 350.623 187.435 350.919C193.923 352.656 198.843 357.762 203.785 362.307C208.728 366.852 214.678 371.247 221.381 370.952C223.545 370.77 225.681 370.341 227.747 369.672L261.028 360.292C264.367 359.349 267.973 358.214 269.923 355.336C271.081 353.599 271.48 351.411 271.781 349.309C272.929 341.315 273.473 333.247 273.408 325.171C273.408 322.508 273.286 319.781 272.308 317.303C271.15 314.442 268.974 312.155 267.354 309.533C264.234 304.484 263.389 298.393 262.619 292.505C261.392 283.131 260.165 273.572 261.861 264.273C262.59 260.284 263.846 256.405 264.68 252.439C266.031 245.979 266.247 239.333 265.316 232.799C264.541 227.374 262.868 221.868 259.21 217.786C256.821 215.072 253.556 213.282 249.984 212.726C245.481 212.147 243.241 214.787 239.23 215.766C233.298 217.219 224.604 211.504 218.898 209.594Z" fill="black"/>
<path d="M218.898 208.273C216.854 207.59 214.389 206.976 212.728 208.343C211.761 209.136 211.344 210.41 210.592 211.412C208.097 214.723 203.068 214.104 199.097 215.291C193.257 217.028 189.657 222.887 187.585 228.607C178.44 253.903 188.633 282.853 180.674 308.543C178.359 316.104 174.499 324.499 178.284 331.453C179.546 333.769 181.6 335.709 182.231 338.274C183.088 341.747 181.438 346.321 184.321 348.441C185.218 349.101 186.358 349.303 187.435 349.599C193.923 351.336 198.843 356.442 203.785 360.987C208.728 365.532 214.678 369.927 221.381 369.632C223.545 369.45 225.681 369.021 227.747 368.352L261.033 358.978C264.373 358.034 267.979 356.9 269.929 354.022C271.087 352.285 271.486 350.096 271.787 347.995C272.935 340.001 273.479 331.932 273.414 323.857C273.414 321.193 273.292 318.466 272.314 315.988C271.156 313.128 268.98 310.841 267.359 308.218C264.24 303.17 263.395 297.079 262.625 291.19C261.398 281.816 260.171 272.257 261.867 262.959C262.596 258.97 263.852 255.09 264.685 251.124C266.037 244.665 266.252 238.019 265.322 231.485C264.547 226.06 262.874 220.554 259.216 216.472C256.834 213.755 253.576 211.958 250.007 211.394C245.504 210.815 243.265 213.455 239.254 214.434C233.298 215.904 224.604 210.184 218.898 208.273Z" fill="#E0E0E0"/>
<path d="M209.521 158.318C209.521 158.318 210.181 183.383 202.269 182.723C194.357 182.063 224.691 224.282 224.691 224.282L250.407 210.427C250.407 210.427 235.242 186.023 245.776 170.848C256.31 155.672 209.521 158.318 209.521 158.318Z" fill="#A0616A"/>
<path opacity="0.1" d="M165.337 371.386C165.337 371.386 160.064 407.665 146.873 397.77C133.683 387.875 135.662 371.386 135.662 371.386C135.662 371.386 161.378 301.461 160.058 290.907C158.738 280.352 203.976 198.297 203.976 198.297L220.721 333.121C220.721 333.121 170.609 351.596 165.337 371.386Z" fill="black"/>
<path d="M164.017 371.386C164.017 371.386 158.744 407.665 145.554 397.77C132.363 387.875 134.343 371.386 134.343 371.386C134.343 371.386 160.058 301.461 158.738 290.907C157.419 280.352 202.657 198.297 202.657 198.297L219.401 333.121C219.401 333.121 169.29 351.596 164.017 371.386Z" fill="#4D8AF0"/>
<path d="M210.835 174.148C210.835 174.148 185.12 191.958 175.228 191.298L167.542 193.411C159.91 195.509 153.016 199.699 147.638 205.508C142.259 211.317 138.611 218.513 137.103 226.286L136.982 226.917C133.023 248.027 131.709 306.076 131.709 306.076C131.709 306.076 132.369 321.246 138.961 325.183L181.161 354.236C181.161 354.236 179.841 322.571 195.671 319.277C211.501 315.983 191.712 317.957 191.712 317.957L162.697 300.801C162.697 300.801 163.357 275.077 171.269 266.502C179.181 257.927 206.876 213.073 206.876 213.073L198.964 185.34L210.835 174.148Z" fill="#4D8AF0"/>
<path opacity="0.1" d="M239.19 191.303C239.19 191.303 255.396 195.594 266.729 197.672C268.502 197.997 270.173 198.738 271.605 199.832C273.038 200.927 274.191 202.346 274.971 203.972C278.391 211.122 283.606 224.039 282.709 234.82L292.6 273.74L320.961 308.039L295.24 319.931L266.242 287.612L289.973 348.985L245.788 350.93C245.788 350.93 232.598 251.981 235.897 235.492L239.19 191.303Z" fill="black"/>
<path d="M240.509 191.303C240.509 191.303 256.715 195.594 268.048 197.672C269.821 197.997 271.492 198.738 272.925 199.832C274.357 200.927 275.51 202.346 276.29 203.972C279.711 211.122 284.926 224.039 284.028 234.82L293.92 273.74L322.281 308.039L296.565 319.914L267.55 287.589L291.281 348.962L247.102 350.93C247.102 350.93 233.911 251.981 237.21 235.492L240.509 191.303Z" fill="#4D8AF0"/>
<path d="M208.67 172.052L217.763 216.698L202.923 224.282L194.797 184.066L208.67 172.052Z" fill="#E0E0E0"/>
<path d="M233.587 219.998L240.509 191.303L249.411 208.123L244.798 221.978L233.587 219.998Z" fill="#E0E0E0"/>
<path opacity="0.1" d="M170.939 300.471C170.939 300.471 197.32 317.725 200.944 318.003L170.939 300.471Z" fill="black"/>
<path opacity="0.1" d="M258.643 228.573C258.643 228.573 258.643 273.427 264.575 276.727L258.643 228.573Z" fill="black"/>
<path opacity="0.1" d="M173.578 239.765C173.578 239.765 159.89 283.941 163.739 288.567L173.578 239.765Z" fill="black"/>
<path opacity="0.1" d="M210.175 160.959C210.175 160.959 210.28 164.82 209.921 169.47C212.568 175.733 217.241 180.926 223.191 184.216C229.14 187.505 236.022 188.7 242.732 187.609C242.559 182.671 243.502 177.72 246.442 173.488C256.982 158.318 210.175 160.959 210.175 160.959Z" fill="black"/>
<path d="M237.21 185.369C253.964 185.369 267.545 171.783 267.545 155.024C267.545 138.265 253.964 124.679 237.21 124.679C220.457 124.679 206.876 138.265 206.876 155.024C206.876 171.783 220.457 185.369 237.21 185.369Z" fill="#A0616A"/>
<path opacity="0.1" d="M256.455 142.269C260.13 142.761 264.813 141.534 265.519 137.897C266.416 133.295 260.264 130.307 259.314 125.739C258.956 124.002 259.384 122.219 259.175 120.476C258.765 116.956 255.917 114.246 253.023 112.202C243.859 105.772 232.713 102.802 221.566 103.818C220.188 103.951 218.736 104.171 217.671 105.052C216.461 106.047 215.992 107.663 215.164 109C212.317 113.597 205.904 114.142 201.349 117.008C195.983 120.36 193.333 126.943 193.089 133.266C192.846 139.588 194.652 145.789 196.435 151.857C197.951 157.021 199.543 162.319 202.871 166.546C206.199 170.772 211.726 173.725 216.947 172.451C214.551 170.715 216.293 166.714 218.886 165.313C221.479 163.911 224.674 163.668 226.925 161.723C229.177 159.777 229.819 156.605 230.531 153.715C231.446 150.068 232.765 146.374 235.422 143.711C240.643 138.442 250.036 141.406 256.455 142.269Z" fill="black"/>
<path d="M255.824 141.609C259.5 142.101 264.182 140.873 264.888 137.237C265.785 132.635 259.633 129.647 258.683 125.079C258.325 123.342 258.753 121.558 258.545 119.816C258.105 116.267 255.245 113.545 252.352 111.513C243.193 105.085 232.054 102.113 220.912 103.124C219.534 103.257 218.082 103.477 217.017 104.357C215.807 105.353 215.338 106.968 214.51 108.305C211.663 112.903 205.25 113.447 200.695 116.313C195.329 119.665 192.679 126.248 192.435 132.571C192.192 138.893 193.998 145.094 195.781 151.162C197.297 156.327 198.889 161.624 202.217 165.851C205.545 170.078 211.072 173.03 216.293 171.757C213.897 170.02 215.639 166.019 218.232 164.618C220.825 163.217 224.02 162.973 226.271 161.028C228.523 159.083 229.165 155.91 229.877 153.021C230.792 149.373 232.111 145.679 234.768 143.016C239.983 137.799 249.4 140.758 255.824 141.609Z" fill="#535461"/>
<path opacity="0.1" d="M231.967 159.117C231.521 162.255 230.531 167.686 228.668 171.114C226.205 175.572 224.1 180.219 222.37 185.01C222.37 185.01 234.525 194.418 240.689 200.845C242.581 202.86 245.017 204.283 247.702 204.94C250.386 205.598 253.204 205.463 255.813 204.551C259.031 203.393 261.849 201.117 262.596 196.885C263.754 190.197 262.376 185.154 261.057 182.167C260.424 180.754 260.095 179.224 260.091 177.676C260.087 176.128 260.408 174.597 261.033 173.181C261.491 172.168 262.023 171.38 262.619 171.178C262.619 171.178 250.748 168.538 250.089 171.838C249.429 175.138 240.197 178.432 238.218 172.498L237.674 159.407C237.644 158.669 237.329 157.97 236.796 157.459C236.263 156.947 235.553 156.662 234.814 156.662C234.123 156.657 233.453 156.903 232.929 157.355C232.405 157.806 232.063 158.433 231.967 159.117Z" fill="black"/>
<path d="M231.967 159.777C231.521 162.916 230.531 168.346 228.668 171.774C226.205 176.232 224.1 180.879 222.37 185.67C222.37 185.67 234.525 195.078 240.689 201.505C242.581 203.52 245.017 204.943 247.702 205.6C250.386 206.258 253.204 206.123 255.813 205.211C259.031 204.053 261.849 201.777 262.596 197.545C263.754 190.857 262.376 185.814 261.057 182.827C260.418 181.412 260.084 179.879 260.077 178.327C260.07 176.774 260.39 175.238 261.016 173.818C261.473 172.805 262.006 172.017 262.602 171.815C262.602 171.815 250.731 169.174 250.071 172.475C249.411 175.775 240.197 179.098 238.2 173.181L237.656 160.09C237.626 159.352 237.312 158.654 236.779 158.142C236.246 157.63 235.536 157.345 234.797 157.346C234.112 157.344 233.449 157.588 232.929 158.035C232.41 158.481 232.068 159.1 231.967 159.777Z" fill="#535461"/>
<path d="M467.661 347.456C467.661 347.456 455.743 335.523 451.362 319.665H452.386L451.895 318.287H452.386L450.835 313.875C455.228 309.556 458.475 305.37 459.002 302.99C459.893 298.983 460.779 277.306 461.317 262.241L461.792 262.357C462.949 260.377 463.192 257.881 463.111 255.617C463.155 253.074 462.828 250.539 462.139 248.09L459.992 226.581C459.785 224.602 459.178 222.686 458.208 220.949C457.238 219.212 455.925 217.691 454.349 216.478L432.586 199.589C433.731 198.043 435.186 196.754 436.858 195.802C438.102 195.142 439.549 194.69 440.388 193.561C441.905 191.518 440.614 188.472 441.65 186.145C442.426 184.408 444.336 183.435 445.453 181.877C447.739 178.687 446.083 174.281 444.376 170.749L434.456 150.236C431.706 144.556 428.934 138.83 425.091 133.827C413.324 118.496 390.682 110.87 372.224 117.517C366.963 119.41 362.119 123.046 359.873 128.165C359.092 129.948 358.623 131.893 357.488 133.474C354.959 137 350.022 137.666 346.491 140.202C341.983 143.462 340.31 149.599 340.941 155.128C341.572 160.658 344.107 165.764 346.607 170.761C349.235 175.972 351.949 181.339 356.261 185.288C358.276 187.135 360.741 188.848 361.384 191.506C361.933 193.787 360.961 196.138 361.164 198.5C361.248 199.483 361.536 200.437 362.009 201.302C352.268 202.524 345.357 210.618 342.261 222.661C342.07 223.408 341.994 223.819 341.994 223.819L340.623 236.291C340.594 236.829 340.623 237.35 340.623 237.866C340.498 240.672 341.096 243.463 342.359 245.971V289.76L300.686 316.15C294.435 318.93 295.824 341.157 308.326 345.32C320.828 349.483 331.947 323.139 331.947 323.139C339.558 322.629 352.36 312.474 359.242 304.611C360.172 306.113 361.409 307.401 362.871 308.392C357.905 319.59 348.083 342.755 349.652 347.456C350.595 350.293 374.985 350.554 401.349 349.998C402.023 350.373 402.73 350.685 403.462 350.93C406.274 351.868 409.018 351.255 411.565 349.743C440.087 348.927 467.661 347.456 467.661 347.456ZM432.465 262.548C433.043 260.944 434.942 260.07 437.483 259.653V276.542L432.465 262.548ZM430.039 203.202L430.121 203.08L430.039 203.202Z" fill="url(#paint20_linear)"/>
<path d="M367.449 241.438C367.449 241.438 366.13 288.272 364.81 294.213C363.49 300.153 344.379 317.928 334.476 318.617C334.476 318.617 323.924 343.681 312.054 339.727C300.183 335.772 298.863 314.662 304.801 312.022L344.379 286.952V236.818L367.449 241.438Z" fill="#FDB797"/>
<path d="M366.46 298.821C366.46 298.821 349.316 335.761 351.295 341.701C353.275 347.642 463.395 341.701 463.395 341.701C463.395 341.701 442.952 321.251 446.911 298.821H366.46Z" fill="#3AD29F"/>
<path d="M379.65 189.323C379.65 189.323 382.29 215.048 377.671 220.988C373.052 226.928 396.134 230.252 398.114 230.252C400.093 230.252 421.196 222.997 425.149 220.988C429.102 218.979 432.401 204.498 432.401 204.498C432.401 204.498 412.618 208.459 406.685 185.392L379.65 189.323Z" fill="#FDB797"/>
<path d="M372.739 123.33C367.744 125.131 363.137 128.582 361.007 133.445C360.266 135.136 359.821 136.983 358.744 138.488C356.342 141.835 351.654 142.466 348.326 144.857C344.043 147.954 342.457 153.779 343.053 159.036C343.649 164.294 346.057 169.14 348.43 173.864C350.925 178.826 353.506 183.91 357.598 187.661C359.508 189.398 361.852 191.043 362.46 193.567C362.981 195.733 362.061 197.996 362.252 200.214C362.726 205.697 369.278 208.25 374.748 208.858C377.126 209.125 379.847 209.136 381.525 207.428C382.382 206.548 382.816 205.355 383.354 204.255C384.599 201.736 386.517 199.61 388.896 198.115C391.274 196.62 394.021 195.813 396.83 195.784C399.639 195.755 402.401 196.506 404.81 197.952C407.219 199.398 409.18 201.484 410.476 203.977C411.761 206.444 412.508 209.443 414.84 210.925C418.411 213.241 423.192 210.526 425.837 207.179C428.482 203.833 430.381 199.652 434.137 197.643C435.295 197.012 436.695 196.589 437.494 195.513C438.935 193.573 437.708 190.678 438.692 188.472C439.433 186.81 441.245 185.901 442.304 184.419C444.474 181.391 442.883 177.205 441.279 173.853L431.857 154.37C429.246 148.974 426.613 143.537 422.966 138.783C411.767 124.262 390.265 117.019 372.739 123.33Z" fill="#054DA1"/>
<path opacity="0.1" d="M396.794 225.603C396.794 225.603 422.509 225.603 429.107 201.864L450.754 218.655C452.249 219.814 453.492 221.265 454.407 222.921C455.323 224.576 455.891 226.401 456.079 228.283L458.122 248.71C458.122 248.71 460.437 256.295 457.792 260.915C457.792 260.915 430.427 253.967 429.767 261.905L448.867 315.334C448.867 315.334 419.193 315.994 411.281 310.702C411.281 310.702 378.967 317.297 371.055 310.042C363.143 302.787 355.231 303.447 361.794 286.952C361.794 286.952 348.604 273.757 354.542 255.287C360.481 236.818 354.872 255.617 354.872 255.617C354.872 255.617 342.064 249.353 342.723 237.449L344.043 225.574C344.043 225.574 344.112 225.18 344.298 224.473C348.32 208.841 359.12 200.156 374.308 205.691C378.747 207.301 383.285 205.454 383.285 205.454C383.285 205.454 378.33 226.923 396.794 225.603Z" fill="black"/>
<path d="M396.794 224.282C396.794 224.282 422.509 224.282 429.107 200.544L450.754 217.335C452.249 218.494 453.492 219.945 454.407 221.601C455.323 223.256 455.891 225.081 456.079 226.963L458.122 247.39C458.122 247.39 460.437 254.975 457.792 259.595C457.792 259.595 430.427 252.647 429.767 260.585L448.867 314.014C448.867 314.014 419.193 314.674 411.281 309.382C411.281 309.382 378.967 315.977 371.055 308.722C363.143 301.467 355.231 302.127 361.794 285.632C361.794 285.632 348.604 272.437 354.542 253.967C360.481 235.497 354.872 254.297 354.872 254.297C354.872 254.297 342.064 248.032 342.723 236.157L344.043 224.282C344.043 224.282 344.112 223.889 344.298 223.182C348.32 207.55 359.12 198.865 374.308 204.4C378.747 206.01 383.285 204.163 383.285 204.163C383.285 204.163 378.33 225.603 396.794 224.282Z" fill="#252A62"/>
<path d="M457.792 246.712C457.792 246.712 456.473 293.547 455.153 299.487C453.833 305.428 434.71 323.226 424.819 323.891C424.819 323.891 414.267 348.956 402.397 345.001C390.526 341.047 389.206 319.937 395.144 317.297L434.71 292.232V242.081L457.792 246.712Z" fill="#FDB797"/>
<path opacity="0.1" d="M429.461 248.363C429.461 248.363 444.625 258.657 457.821 257.8C457.821 257.8 459.141 240.118 455.182 239.128C451.223 238.138 434.05 239.128 429.461 248.363Z" fill="black"/>
<path d="M429.461 247.702C429.461 247.702 444.625 257.997 457.821 257.14C457.821 257.14 459.141 239.458 455.182 238.468C451.223 237.478 434.05 238.468 429.461 247.702Z" fill="#252A62"/>
<path opacity="0.1" d="M408.005 186.683L380.97 190.643C380.97 190.643 381.577 196.595 381.699 203.433C386.955 205.651 392.73 206.341 398.36 205.426C403.99 204.51 409.249 202.026 413.532 198.257C411.252 195.472 409.301 191.709 408.005 186.683Z" fill="black"/>
<path d="M392.181 204.498C408.934 204.498 422.515 190.913 422.515 174.154C422.515 157.395 408.934 143.809 392.181 143.809C375.428 143.809 361.847 157.395 361.847 174.154C361.847 190.913 375.428 204.498 392.181 204.498Z" fill="#FDB797"/>
<path opacity="0.1" d="M400.174 168.317C398.882 168.803 397.499 169.001 396.122 168.896C390.759 168.862 385.397 168.669 380.038 168.317C375.986 168.045 371.645 167.565 368.514 164.965C364.301 161.491 363.635 154.908 365.811 149.883C367.987 144.857 372.427 141.151 377.115 138.303C379.763 136.632 382.63 135.338 385.635 134.458C394.317 132.096 403.948 134.997 410.852 140.787C417.757 146.577 422.162 154.937 424.495 163.645C425.299 166.656 426.335 170.246 429.316 171.172C427.331 174.472 422.486 174.999 419.013 173.343C413.885 170.906 411.258 161.572 406.656 160.102C401.522 158.452 404.509 166.326 400.174 168.317Z" fill="black"/>
<path d="M400.174 167.657C398.882 168.143 397.499 168.341 396.122 168.236C390.759 168.202 385.397 168.009 380.038 167.657C375.986 167.385 371.645 166.905 368.514 164.305C364.301 160.831 363.635 154.248 365.811 149.222C367.987 144.197 372.427 140.491 377.115 137.643C379.762 135.976 382.627 134.686 385.629 133.81C394.311 131.448 403.942 134.348 410.847 140.138C417.752 145.928 422.156 154.289 424.489 162.997C425.293 166.007 426.329 169.597 429.31 170.523C427.325 173.824 422.48 174.351 419.008 172.695C413.88 170.257 411.252 160.924 406.651 159.453C401.522 157.792 404.509 165.654 400.174 167.657Z" fill="#054DA1"/>
<path opacity="0.1" d="M361.517 285.302C371.407 282.658 381.602 281.327 391.839 281.342L361.517 285.302Z" fill="black"/>
<path opacity="0.1" d="M429.461 249.683C429.461 249.683 419.569 256.937 422.208 260.898L429.461 249.683Z" fill="black"/>
<g opacity="0.7">
<path opacity="0.7" d="M497.358 321.581H173.579V349.905H192.424V355.429V439H479.184V355.429V349.905H497.358V321.581Z" fill="url(#paint21_linear)"/>
</g>
<path d="M476.256 338.077H195.341V439.006H476.256V338.077Z" fill="#E0E0E0"/>
<path opacity="0.1" d="M476.256 343.351H195.341V359.181H476.256V343.351Z" fill="black"/>
<path d="M494.059 326.862H176.877V353.906H494.059V326.862Z" fill="#E0E0E0"/>
<path d="M279.242 320.203H226.098C224.02 320.203 222.335 321.888 222.335 323.967V325.015C222.335 327.093 224.02 328.778 226.098 328.778H279.242C281.32 328.778 283.004 327.093 283.004 325.015V323.967C283.004 321.888 281.32 320.203 279.242 320.203Z" fill="#535461"/>
<g opacity="0.7">
<path opacity="0.7" d="M393.715 224.595H275.596C266.575 224.595 259.262 231.91 259.262 240.934V312.549C259.262 321.573 266.575 328.888 275.596 328.888H393.715C402.735 328.888 410.048 321.573 410.048 312.549V240.934C410.048 231.91 402.735 224.595 393.715 224.595Z" fill="url(#paint22_linear)"/>
</g>
<path d="M389.252 226.517H277.482C268.903 226.517 261.948 233.475 261.948 242.057V313.342C261.948 321.925 268.903 328.882 277.482 328.882H389.252C397.832 328.882 404.787 321.925 404.787 313.342V242.057C404.787 233.475 397.832 226.517 389.252 226.517Z" fill="#3E3F49"/>
<path d="M391.232 226.517H279.462C270.882 226.517 263.927 233.475 263.927 242.057V313.342C263.927 321.925 270.882 328.882 279.462 328.882H391.232C399.811 328.882 406.766 321.925 406.766 313.342V242.057C406.766 233.475 399.811 226.517 391.232 226.517Z" fill="#535461"/>
<path d="M342.017 281.62C344.568 281.62 346.636 279.551 346.636 276.999C346.636 274.448 344.568 272.379 342.017 272.379C339.467 272.379 337.399 274.448 337.399 276.999C337.399 279.551 339.467 281.62 342.017 281.62Z" fill="#4AD4FF"/>
<path opacity="0.1" d="M153.136 340.051C153.136 340.051 157.037 345.777 168.607 347.532L153.136 340.051Z" fill="black"/>
<path opacity="0.2" d="M256.403 46.319H215.309V23.1595H256.403V46.319ZM217.045 44.5821H254.667V24.8965H217.045V44.5821Z" fill="#054DA1"/>
<path opacity="0.2" d="M297.497 46.319H256.403V23.1595H297.497V46.319ZM258.139 44.5821H295.761V24.8965H258.139V44.5821Z" fill="#054DA1"/>
<path opacity="0.2" d="M338.591 46.319H297.497V23.1595H338.591V46.319ZM299.233 44.5821H336.855V24.8965H299.233V44.5821Z" fill="#054DA1"/>
<path opacity="0.2" d="M379.685 46.319H338.591V23.1595H379.685V46.319ZM340.327 44.5821H377.948V24.8965H340.327V44.5821Z" fill="#054DA1"/>
<path opacity="0.2" d="M338.591 23.1595H297.497V0H338.591V23.1595ZM299.233 21.4225H336.855V1.73696H299.233V21.4225Z" fill="#054DA1"/>
<path opacity="0.2" d="M297.497 23.1595H256.403V0H297.497V23.1595ZM258.139 21.4225H295.761V1.73696H258.139V21.4225Z" fill="#054DA1"/>
<path opacity="0.2" d="M104.182 46.319H63.0879V23.1595H104.182V46.319ZM64.8243 44.5821H102.445V24.8965H64.8243V44.5821Z" fill="#054DA1"/>
<path opacity="0.2" d="M145.276 46.319H104.182V23.1595H145.276V46.319ZM105.918 44.5821H143.539V24.8965H105.918V44.5821Z" fill="#054DA1"/>
<path opacity="0.2" d="M145.276 23.1595H104.182V0H145.276V23.1595ZM105.918 21.4225H143.539V1.73696H105.918V21.4225Z" fill="#054DA1"/>
<path opacity="0.2" d="M463.03 46.319H421.936V23.1595H463.03V46.319ZM423.673 44.5821H461.294V24.8965H423.673V44.5821Z" fill="#054DA1"/>
<path opacity="0.2" d="M504.124 46.319H463.03V23.1595H504.124V46.319ZM464.767 44.5821H502.388V24.8965H464.767V44.5821Z" fill="#054DA1"/>
<path opacity="0.2" d="M504.124 23.1595H463.03V0H504.124V23.1595ZM464.767 21.4225H502.388V1.73696H464.767V21.4225Z" fill="#054DA1"/>
</g>
<defs>
<linearGradient id="paint0_linear" x1="153.147" y1="392.027" x2="225.965" y2="392.027" gradientUnits="userSpaceOnUse">
<stop stop-color="#808080" stop-opacity="0.25"/>
<stop offset="0.54" stop-color="#808080" stop-opacity="0.12"/>
<stop offset="1" stop-color="#808080" stop-opacity="0.1"/>
</linearGradient>
<linearGradient id="paint1_linear" x1="41152.9" y1="95221.3" x2="58699.1" y2="95221.3" gradientUnits="userSpaceOnUse">
<stop stop-color="#808080" stop-opacity="0.25"/>
<stop offset="0.54" stop-color="#808080" stop-opacity="0.12"/>
<stop offset="1" stop-color="#808080" stop-opacity="0.1"/>
</linearGradient>
<linearGradient id="paint2_linear" x1="41152.9" y1="94848.2" x2="58699.1" y2="94848.2" gradientUnits="userSpaceOnUse">
<stop stop-color="#808080" stop-opacity="0.25"/>
<stop offset="0.54" stop-color="#808080" stop-opacity="0.12"/>
<stop offset="1" stop-color="#808080" stop-opacity="0.1"/>
</linearGradient>
<linearGradient id="paint3_linear" x1="23386.2" y1="26966.5" x2="27969.3" y2="26966.5" gradientUnits="userSpaceOnUse">
<stop stop-color="#808080" stop-opacity="0.25"/>
<stop offset="0.54" stop-color="#808080" stop-opacity="0.12"/>
<stop offset="1" stop-color="#808080" stop-opacity="0.1"/>
</linearGradient>
<linearGradient id="paint4_linear" x1="29634.8" y1="121429" x2="43231.5" y2="121429" gradientUnits="userSpaceOnUse">
<stop stop-color="#808080" stop-opacity="0.25"/>
<stop offset="0.54" stop-color="#808080" stop-opacity="0.12"/>
<stop offset="1" stop-color="#808080" stop-opacity="0.1"/>
</linearGradient>
<linearGradient id="paint5_linear" x1="29421.3" y1="121429" x2="43017.1" y2="121429" gradientUnits="userSpaceOnUse">
<stop stop-color="#808080" stop-opacity="0.25"/>
<stop offset="0.54" stop-color="#808080" stop-opacity="0.12"/>
<stop offset="1" stop-color="#808080" stop-opacity="0.1"/>
</linearGradient>
<linearGradient id="paint6_linear" x1="26974.7" y1="97241.3" x2="38714.5" y2="97241.3" gradientUnits="userSpaceOnUse">
<stop stop-color="#808080" stop-opacity="0.25"/>
<stop offset="0.54" stop-color="#808080" stop-opacity="0.12"/>
<stop offset="1" stop-color="#808080" stop-opacity="0.1"/>
</linearGradient>
<linearGradient id="paint7_linear" x1="45901.4" y1="88266.7" x2="59634.5" y2="88266.7" gradientUnits="userSpaceOnUse">
<stop stop-color="#808080" stop-opacity="0.25"/>
<stop offset="0.54" stop-color="#808080" stop-opacity="0.12"/>
<stop offset="1" stop-color="#808080" stop-opacity="0.1"/>
</linearGradient>
<linearGradient id="paint8_linear" x1="46112" y1="88266.7" x2="59844.2" y2="88266.7" gradientUnits="userSpaceOnUse">
<stop stop-color="#808080" stop-opacity="0.25"/>
<stop offset="0.54" stop-color="#808080" stop-opacity="0.12"/>
<stop offset="1" stop-color="#808080" stop-opacity="0.1"/>
</linearGradient>
<linearGradient id="paint9_linear" x1="8188.92" y1="18195.3" x2="9177.59" y2="18195.3" gradientUnits="userSpaceOnUse">
<stop stop-color="#808080" stop-opacity="0.25"/>
<stop offset="0.54" stop-color="#808080" stop-opacity="0.12"/>
<stop offset="1" stop-color="#808080" stop-opacity="0.1"/>
</linearGradient>
<linearGradient id="paint10_linear" x1="6896.51" y1="11250.9" x2="7366.3" y2="11250.9" gradientUnits="userSpaceOnUse">
<stop stop-color="#808080" stop-opacity="0.25"/>
<stop offset="0.54" stop-color="#808080" stop-opacity="0.12"/>
<stop offset="1" stop-color="#808080" stop-opacity="0.1"/>
</linearGradient>
<linearGradient id="paint11_linear" x1="3685.42" y1="25164.4" x2="3751.44" y2="25164.4" gradientUnits="userSpaceOnUse">
<stop stop-color="#808080" stop-opacity="0.25"/>
<stop offset="0.54" stop-color="#808080" stop-opacity="0.12"/>
<stop offset="1" stop-color="#808080" stop-opacity="0.1"/>
</linearGradient>
<linearGradient id="paint12_linear" x1="4341.3" y1="26545" x2="4548.07" y2="26545" gradientUnits="userSpaceOnUse">
<stop stop-color="#808080" stop-opacity="0.25"/>
<stop offset="0.54" stop-color="#808080" stop-opacity="0.12"/>
<stop offset="1" stop-color="#808080" stop-opacity="0.1"/>
</linearGradient>
<linearGradient id="paint13_linear" x1="12555.1" y1="11196.2" x2="14242.8" y2="11196.2" gradientUnits="userSpaceOnUse">
<stop stop-color="#808080" stop-opacity="0.25"/>
<stop offset="0.54" stop-color="#808080" stop-opacity="0.12"/>
<stop offset="1" stop-color="#808080" stop-opacity="0.1"/>
</linearGradient>
<linearGradient id="paint14_linear" x1="18708" y1="10360.6" x2="21424.9" y2="10360.6" gradientUnits="userSpaceOnUse">
<stop stop-color="#808080" stop-opacity="0.25"/>
<stop offset="0.54" stop-color="#808080" stop-opacity="0.12"/>
<stop offset="1" stop-color="#808080" stop-opacity="0.1"/>
</linearGradient>
<linearGradient id="paint15_linear" x1="22701.8" y1="16269.8" x2="29601.1" y2="16269.8" gradientUnits="userSpaceOnUse">
<stop stop-color="#808080" stop-opacity="0.25"/>
<stop offset="0.54" stop-color="#808080" stop-opacity="0.12"/>
<stop offset="1" stop-color="#808080" stop-opacity="0.1"/>
</linearGradient>
<linearGradient id="paint16_linear" x1="33145.5" y1="21402.3" x2="43010.6" y2="21402.3" gradientUnits="userSpaceOnUse">
<stop stop-color="#808080" stop-opacity="0.25"/>
<stop offset="0.54" stop-color="#808080" stop-opacity="0.12"/>
<stop offset="1" stop-color="#808080" stop-opacity="0.1"/>
</linearGradient>
<linearGradient id="paint17_linear" x1="33044.8" y1="21316.9" x2="42906.9" y2="21316.9" gradientUnits="userSpaceOnUse">
<stop stop-color="#808080" stop-opacity="0.25"/>
<stop offset="0.54" stop-color="#808080" stop-opacity="0.12"/>
<stop offset="1" stop-color="#808080" stop-opacity="0.1"/>
</linearGradient>
<linearGradient id="paint18_linear" x1="20942.3" y1="18987" x2="24044.3" y2="18987" gradientUnits="userSpaceOnUse">
<stop stop-color="#808080" stop-opacity="0.25"/>
<stop offset="0.54" stop-color="#808080" stop-opacity="0.12"/>
<stop offset="1" stop-color="#808080" stop-opacity="0.1"/>
</linearGradient>
<linearGradient id="paint19_linear" x1="20942.3" y1="19046.3" x2="24044.3" y2="19046.3" gradientUnits="userSpaceOnUse">
<stop stop-color="#808080" stop-opacity="0.25"/>
<stop offset="0.54" stop-color="#808080" stop-opacity="0.12"/>
<stop offset="1" stop-color="#808080" stop-opacity="0.1"/>
</linearGradient>
<linearGradient id="paint20_linear" x1="130917" y1="160245" x2="130917" y2="63834.9" gradientUnits="userSpaceOnUse">
<stop stop-color="#808080" stop-opacity="0.25"/>
<stop offset="0.54" stop-color="#808080" stop-opacity="0.12"/>
<stop offset="1" stop-color="#808080" stop-opacity="0.1"/>
</linearGradient>
<linearGradient id="paint21_linear" x1="187836" y1="89350.8" x2="187836" y2="65538.3" gradientUnits="userSpaceOnUse">
<stop stop-color="#808080" stop-opacity="0.25"/>
<stop offset="0.54" stop-color="#808080" stop-opacity="0.12"/>
<stop offset="1" stop-color="#808080" stop-opacity="0.1"/>
</linearGradient>
<linearGradient id="paint22_linear" x1="87443.6" y1="59467.2" x2="87443.6" y2="40680.9" gradientUnits="userSpaceOnUse">
<stop stop-color="#808080" stop-opacity="0.25"/>
<stop offset="0.54" stop-color="#808080" stop-opacity="0.12"/>
<stop offset="1" stop-color="#808080" stop-opacity="0.1"/>
</linearGradient>
<clipPath id="clip0">
<rect width="573" height="439" fill="white"/>
</clipPath>
</defs>
</svg>
